<svg width="316" height="194" viewBox="0 0 316 194" fill="none" xmlns="http://www.w3.org/2000/svg">
<path d="M213.24 39.3434C216.67 39.137 220.411 39.4238 223.339 40.8878C226.966 42.7016 232.071 47.5486 235.859 54.5408C239.657 61.5513 242.159 70.7667 240.513 81.3423C238.878 91.8411 236.073 98.6112 232.689 103.569C229.309 108.519 225.37 111.63 221.571 114.807L220.863 113.961C224.689 110.762 228.5 107.748 231.777 102.948C235.049 98.1551 237.807 91.5494 239.423 81.1726C241.026 70.8726 238.591 61.8996 234.889 55.0659C231.177 48.2141 226.218 43.5608 222.846 41.8744C220.174 40.5384 216.664 40.2421 213.306 40.4441C209.961 40.6454 206.842 41.3364 205.005 41.9078L204.678 40.8545C206.591 40.2592 209.798 39.5505 213.24 39.3434Z" fill="black"/>
<path d="M181.989 35.1492C194.369 33.9256 202.658 38.4483 205.317 40.9544L204.56 41.7568C202.149 39.4836 194.181 35.0524 182.097 36.2467C174.608 36.9869 169.084 40.5322 165.35 44.647C161.602 48.7772 159.687 53.449 159.39 56.3775C159.078 59.4495 158.195 67.0513 158.714 75.5449C159.234 84.0558 161.158 93.3599 166.384 99.8918L165.522 100.581C160.08 93.7786 158.138 84.1917 157.613 75.6122C157.088 67.016 157.982 59.3281 158.293 56.266C158.618 53.0607 160.659 48.176 164.534 43.9055C168.423 39.6197 174.188 35.9202 181.989 35.1492Z" fill="black"/>
<path d="M254.804 5.32059C251.672 7.54651 248.397 8.04585 245.542 8.16557C244.83 8.19546 244.141 8.2019 243.488 8.20488C242.833 8.20787 242.22 8.20755 241.643 8.22373C240.478 8.2564 239.54 8.35638 238.823 8.64323C237.254 9.27115 234.296 11.066 230.641 13.4301C227.003 15.7829 222.737 18.657 218.565 21.4141C215.332 23.5512 212.405 27.2297 210.052 31.0094C207.705 34.7794 205.962 38.5946 205.08 40.9451L204.047 40.5573C204.953 38.1441 206.727 34.2631 209.115 30.4268C211.498 26.6001 214.526 22.7615 217.957 20.4938C222.116 17.7452 226.399 14.86 230.042 12.5039C233.667 10.1591 236.723 8.29517 238.414 7.61897C239.327 7.25386 240.436 7.15438 241.612 7.12139C242.206 7.10474 242.837 7.10495 243.484 7.102C244.134 7.09903 244.805 7.09273 245.496 7.06376C248.256 6.94802 251.284 6.46954 254.165 4.42126L254.804 5.32059Z" fill="black"/>
<path d="M257.708 2.43702C258.302 2.47533 258.889 2.76113 259.42 3.12793C259.96 3.50073 260.493 3.99376 260.986 4.51892C261.972 5.56932 262.848 6.80262 263.357 7.62239L263.771 8.28854L263.005 8.45278C262.585 8.54262 261.234 8.63794 258.793 8.46355C255.94 8.25979 253.639 9.60445 250.027 11.4475C248.118 12.4214 246.679 12.2889 244.855 12.3678C243.033 12.4467 240.616 12.7234 236.513 14.4357C232.398 16.1533 227.798 18.9181 223.75 21.7671C219.699 24.6181 216.238 27.5271 214.392 29.5158C212.943 31.0759 211.729 33.2123 210.798 35.2752C209.868 37.3333 209.237 39.281 208.943 40.4337L207.875 40.1612C208.185 38.9472 208.836 36.939 209.792 34.8218C210.746 32.7094 212.018 30.4505 213.583 28.7651C215.504 26.6968 219.034 23.7373 223.116 20.865C227.199 17.9909 231.873 15.1778 236.089 13.4179C240.318 11.6529 242.863 11.3496 244.808 11.2655C246.752 11.1814 247.885 11.3024 249.525 10.4652C253.013 8.68591 255.639 7.13245 258.871 7.36337C260.276 7.46368 261.275 7.46841 261.918 7.44522C261.447 6.76691 260.838 5.97269 260.182 5.27338C259.719 4.78074 259.246 4.34805 258.793 4.03533C258.332 3.71665 257.942 3.55739 257.637 3.53774C256.912 3.49105 256.289 3.76994 255.785 4.17158C255.276 4.57767 254.922 5.08481 254.761 5.40747L253.775 4.91419C254 4.46411 254.45 3.82581 255.098 3.30941C255.751 2.78863 256.637 2.36793 257.708 2.43702Z" fill="black"/>
<path d="M206.559 138.848C206.444 138.879 206.035 139.114 205.658 139.97C205.29 140.805 204.986 142.171 205.04 144.293C205.15 148.657 205.086 157.516 205.04 161.394L203.937 161.38C203.983 157.499 204.047 148.662 203.937 144.321C203.881 142.091 204.197 140.553 204.649 139.526C205.091 138.521 205.7 137.936 206.274 137.783L206.559 138.848Z" fill="black"/>
<path d="M139.834 120.758C139.272 122.387 138.736 123.311 138.258 124.011C137.767 124.73 137.44 125.087 137.169 125.727C136.905 126.348 136.7 127.246 136.61 128.935C136.531 130.413 136.541 132.467 136.661 135.428L136.719 136.753V136.756C137.39 152.447 147.404 160.105 160.25 168.032C172.969 175.88 185.539 176.55 194.716 174.661C198.301 173.923 202.341 171.396 205.971 168.472C209.585 165.56 212.726 162.31 214.507 160.214L215.347 160.928C213.527 163.07 210.337 166.37 206.662 169.331C203.002 172.279 198.792 174.948 194.939 175.741C185.519 177.68 172.657 176.983 159.671 168.97C146.812 161.036 136.315 153.108 135.618 136.805L135.559 135.475C135.438 132.498 135.427 130.404 135.508 128.876C135.601 127.132 135.817 126.088 136.153 125.296C136.481 124.522 136.935 123.993 137.347 123.389C137.772 122.767 138.262 121.931 138.792 120.398L139.834 120.758Z" fill="black"/>
<path d="M315.144 83.7487C315.166 87.7412 314.724 97.3452 312.744 103.712C311.158 108.812 309.184 113.153 307.93 115.59L308.106 115.515L308.541 116.528L305.379 117.885L306.214 116.446C307.222 114.706 309.75 109.626 311.691 103.385C313.435 97.7756 313.963 89.4921 314.032 85.0266C312.616 86.5668 311.736 88.7067 311.055 91.5674C310.236 95.0051 309.733 99.3431 308.869 104.757C307.989 110.274 303.992 117.524 298.689 124.767C293.371 132.033 286.68 139.369 280.317 145.07C273.856 150.858 263.85 153.855 253.875 154.921C243.889 155.987 233.823 155.13 227.164 153.109C216.825 149.972 209.514 143.24 206.888 139.961L205.297 140.345L205.038 139.272L207.323 138.723L207.541 139.007C209.841 142.015 217.095 148.901 227.484 152.054C233.972 154.022 243.885 154.879 253.757 153.824C263.64 152.769 273.372 149.81 279.581 144.248C285.888 138.599 292.527 131.319 297.8 124.116C303.088 116.893 306.944 109.823 307.779 104.583C308.632 99.2415 309.151 94.8027 309.982 91.3116C310.816 87.8087 311.992 85.1195 314.249 83.3206L315.138 82.6124L315.144 83.7487Z" fill="black"/>
<path d="M306.28 120.151C302.831 124.477 297.358 131.206 292.151 137.33C289.547 140.393 287.007 143.307 284.818 145.696C282.637 148.076 280.781 149.962 279.552 150.946C276.483 153.4 270.873 155.703 265.176 157.397C259.467 159.095 253.557 160.215 249.837 160.251C246.194 160.286 240.217 160.369 233.965 159.969C227.726 159.569 221.152 158.684 216.335 156.757C212.502 155.224 209.739 153.503 207.837 151.964C205.947 150.435 204.881 149.062 204.483 148.21L205.483 147.743C205.783 148.385 206.709 149.633 208.53 151.107C210.339 152.571 213.006 154.238 216.744 155.733C221.391 157.592 227.818 158.469 234.036 158.868C240.24 159.265 246.177 159.183 249.826 159.148C253.397 159.114 259.195 158.025 264.862 156.34C270.54 154.652 275.972 152.397 278.863 150.084C280.017 149.161 281.821 147.335 284.005 144.951C286.181 142.576 288.711 139.673 291.311 136.616C296.508 130.503 301.973 123.784 305.418 119.464L306.28 120.151Z" fill="black"/>
<path d="M180.473 98.8035C190.181 98.9261 200.472 100.592 209.065 105.135C217.621 109.659 222.208 114.462 224.493 118.882C226.781 123.307 226.734 127.295 226.127 130.128C225.645 132.378 224.255 135.842 222.74 139.219C221.217 142.611 219.544 145.968 218.467 148.025L217.49 147.513C218.559 145.472 220.222 142.136 221.734 138.768C223.253 135.384 224.595 132.018 225.049 129.897C225.613 127.268 225.664 123.548 223.513 119.388C221.359 115.223 216.969 110.562 208.55 106.111C200.168 101.679 190.069 100.028 180.46 99.9064C170.855 99.7851 161.782 101.193 155.485 102.84C150.574 104.124 146.915 107.387 144.329 110.989C141.742 114.592 140.258 118.494 139.687 120.966L138.612 120.718C139.213 118.118 140.753 114.078 143.434 110.345C146.116 106.61 149.97 103.142 155.206 101.772C161.591 100.102 170.762 98.6809 180.473 98.8035Z" fill="black"/>
<path d="M97.3043 110.888C107.396 110.628 116.149 113.296 122.41 117.558C128.664 121.814 132.477 127.699 132.544 133.862C132.609 139.851 131.873 142.795 131.17 145.034C130.479 147.233 129.872 148.616 130.094 151.616L130.097 151.649L130.095 151.682C129.969 154.385 130.409 157.068 130.877 159.764C131.341 162.438 131.838 165.139 131.771 167.783C131.707 170.376 131.449 176.507 127.748 182.092C124.022 187.714 116.879 192.679 103.264 193.069C89.6243 193.461 77.7082 187.62 68.7532 180.726C59.8077 173.838 53.749 165.847 51.8341 161.819C49.9248 157.803 48.3329 150.985 48.3165 144.182C48.3003 137.398 49.8518 130.46 54.4131 126.368C63.2768 118.417 77.1949 111.407 97.3043 110.888ZM121.79 118.469C115.741 114.352 107.22 111.736 97.3328 111.991C77.4829 112.503 63.8166 119.415 55.1498 127.19C50.9457 130.961 49.4034 137.493 49.4194 144.179C49.4354 150.846 51.0016 157.499 52.8304 161.345C54.6537 165.181 60.5831 173.044 69.4258 179.852C78.2592 186.653 89.9323 192.349 103.233 191.967C116.558 191.585 123.336 186.753 126.829 181.483C130.346 176.175 130.605 170.318 130.669 167.755C130.731 165.243 130.26 162.659 129.79 159.952C129.326 157.277 128.865 154.493 128.992 151.664C128.759 148.443 129.439 146.864 130.118 144.703C130.787 142.573 131.505 139.744 131.441 133.874C131.379 128.179 127.846 122.591 121.79 118.469Z" fill="black"/>
<path d="M46.6181 75.7225C47.2422 75.3365 47.9902 75.2017 48.8416 75.4145C49.8569 75.6683 50.6053 76.2064 51.0975 76.9482C51.5822 77.6788 51.7933 78.5678 51.8191 79.4954C51.8704 81.3414 51.1927 83.4751 50.2078 85.2478C49.7329 86.1028 49.335 86.5971 48.8061 86.7745C48.5465 86.8616 48.303 86.8544 48.1211 86.845C47.9247 86.8349 47.7769 86.8207 47.5847 86.8337C46.8802 86.8816 45.4198 87.3306 41.8646 91.2033C38.2884 95.0988 36.535 96.9688 35.5381 98.2724C34.5804 99.5246 34.3506 100.212 33.8499 101.797L33.7282 102.183H33.3237C32.9383 102.183 31.5655 102.414 29.8056 103.457C27.5148 104.814 22.6827 107.443 19.4489 108.89C17.73 109.659 15.861 109.699 14.131 109.782C12.3626 109.866 10.7077 109.994 9.1842 110.814C6.51633 112.25 3.29624 113.516 2.01493 113.972L1.64551 112.933C2.89724 112.488 6.06055 111.243 8.6613 109.843C10.4306 108.89 12.3217 108.764 14.0782 108.68C15.8734 108.594 17.5091 108.549 18.9987 107.883C22.1817 106.459 26.9748 103.853 29.2434 102.508C30.7999 101.586 32.1375 101.214 32.9107 101.112C33.3571 99.7141 33.6675 98.9029 34.6619 97.6025C35.6984 96.2472 37.5062 94.3204 41.0525 90.4574C44.6194 86.5721 46.3389 85.813 47.5104 85.7335C47.787 85.7148 48.0268 85.736 48.1776 85.7438C48.343 85.7523 48.407 85.745 48.4555 85.7287C48.5428 85.6993 48.7654 85.5732 49.2439 84.712C50.1668 83.0507 50.7609 81.1141 50.7167 79.5261C50.6948 78.7367 50.5162 78.0672 50.1782 77.5578C49.8477 77.0597 49.3397 76.6759 48.5745 76.4845C48.0016 76.3413 47.5604 76.4365 47.1981 76.6606C46.818 76.8957 46.4844 77.299 46.204 77.8314C45.6404 78.9012 45.3769 80.329 45.316 81.3253L44.2152 81.2579C44.2814 80.1768 44.5645 78.5769 45.2282 77.3171C45.5614 76.6847 46.0117 76.0976 46.6181 75.7225Z" fill="black"/>
<path d="M45.3091 81.338C45.225 81.6438 45.0505 81.9469 44.8417 82.233C44.6292 82.5241 44.3591 82.8273 44.0533 83.1356C43.4418 83.752 42.6534 84.4217 41.8109 85.0947C40.9668 85.769 40.0544 86.4582 39.1932 87.1109C38.3281 87.7665 37.5167 88.3838 36.8609 88.9246C35.5857 89.9761 34.7319 91.0852 33.9938 92.1837C33.2707 93.26 32.61 94.4094 31.7923 95.3955C30.9772 96.3784 29.07 98.3993 26.9155 100.326C25.8369 101.29 24.6882 102.237 23.5767 103.022C22.4722 103.803 21.3742 104.444 20.4 104.769C18.5207 105.395 16.6457 105.468 14.9115 105.566C13.1518 105.667 11.5353 105.794 10.0126 106.461C8.7813 107.001 7.18853 108.109 5.67214 109.305C4.16618 110.493 2.77646 111.736 1.96068 112.514L1.19922 111.716C2.03708 110.916 3.45317 109.651 4.9893 108.439C6.51489 107.235 8.20056 106.052 9.56938 105.452C11.2969 104.694 13.102 104.565 14.849 104.465C16.6214 104.364 18.3387 104.293 20.0516 103.723C20.8735 103.449 21.8678 102.88 22.9407 102.122C24.0069 101.369 25.1213 100.45 26.1805 99.5033C28.3015 97.6069 30.1693 95.6253 30.9436 94.6916C31.7153 93.7611 32.2938 92.7363 33.0783 91.5688C33.8476 90.4238 34.7701 89.2192 36.1592 88.0738C36.8356 87.516 37.6657 86.8843 38.527 86.2315C39.3921 85.5759 40.292 84.8967 41.1227 84.2331C41.9549 83.5682 42.704 82.9299 43.2703 82.359C43.5533 82.0738 43.7823 81.8135 43.951 81.5825C44.1231 81.3466 44.2118 81.1685 44.2455 81.0461L45.3091 81.338Z" fill="black"/>
<path d="M55.5546 52.9534C62.4256 51.9902 69.2572 51.0677 76.0872 52.7875C82.9478 54.515 89.7432 58.8867 96.624 68.3641C102.185 76.0231 103.33 84.8604 102.525 92.7567C101.721 100.648 98.9647 107.647 96.6569 111.696L95.6983 111.15C97.9386 107.219 100.64 100.367 101.428 92.6447C102.214 84.9275 101.086 76.3878 95.7312 69.0125C88.9678 59.6969 82.3763 55.5084 75.8179 53.857C69.2291 52.198 62.6095 53.0779 55.7076 54.0455C42.1764 55.9424 33.2991 65.2977 28.589 75.8635C24.8911 84.1587 28.5487 92.6906 30.8507 95.9135L29.9536 96.5549C27.5358 93.1701 23.6591 84.2129 27.5814 75.4144C32.3966 64.6128 41.54 54.918 55.5546 52.9534Z" fill="black"/>
<path d="M32.7538 101.833C32.7358 102.933 33.293 106.164 35.7873 109.646C37.3774 111.867 39.3066 114.335 42.1515 116.269C44.9864 118.196 48.7616 119.611 54.0688 119.665C58.3847 119.709 61.2683 119.557 63.1143 119.353C64.0381 119.251 64.6932 119.137 65.1332 119.031C65.3535 118.977 65.5115 118.928 65.6184 118.886C65.7382 118.84 65.754 118.818 65.7293 118.84L66.4617 119.665C66.3363 119.776 66.171 119.855 66.0174 119.914C65.8509 119.979 65.6429 120.042 65.3928 120.102C64.8918 120.224 64.1871 120.344 63.2355 120.45C61.3308 120.66 58.4 120.812 54.0581 120.768C48.5427 120.712 44.5539 119.235 41.5316 117.181C38.5194 115.133 36.4977 112.532 34.8907 110.288C32.2695 106.629 31.6287 103.169 31.6509 101.815L32.7538 101.833Z" fill="black"/>
<path d="M78.6188 34.6157C79.9103 34.4637 80.9156 35.0703 81.7261 36.151C82.9197 37.7425 85.1166 41.3518 86.0579 42.9422L85.109 43.5039C84.1614 41.9028 81.9945 38.3475 80.8434 36.8128C80.1885 35.9396 79.5325 35.6187 78.7481 35.711C77.8851 35.8125 76.7467 36.4226 75.1998 37.7762C72.9043 39.7849 73.1414 42.154 73.4911 43.0154L72.9806 43.2233L72.4695 43.4306C71.9728 42.2077 71.7678 39.3143 74.4739 36.9463C76.053 35.5645 77.4059 34.7585 78.6188 34.6157Z" fill="black"/>
<path d="M76.2679 39.1794C76.4789 39.306 76.8656 39.5 77.304 39.6468C77.7515 39.7968 78.1939 39.8776 78.5404 39.8342C79.3989 39.7269 80.5006 39.3314 80.9459 39.1439L81.2981 38.9958L81.5609 39.2736C82.1713 39.9192 83.2611 40.9307 84.5233 41.8424C85.7968 42.7622 87.1885 43.5376 88.4109 43.7767C89.3102 43.9527 90.5401 44.4014 91.8924 44.9798C93.2549 45.5626 94.7771 46.293 96.2732 47.0525C99.2635 48.5705 102.176 50.2184 103.541 51.0672C104.806 51.8533 107.182 52.5834 109.72 53.2341C110.976 53.556 112.248 53.8529 113.413 54.1254C114.572 54.3969 115.631 54.6456 116.445 54.8675C118.091 55.3164 120.951 56.4622 123.787 57.6618C126.633 58.866 129.504 60.146 131.173 60.8719C132.873 61.6109 134.645 62.4532 136.457 63.1202C138.264 63.7855 140.052 64.2527 141.743 64.2527C143.46 64.2527 145.553 63.8299 147.512 63.3997C148.479 63.1873 149.417 62.9727 150.231 62.817C151.035 62.6632 151.774 62.5556 152.334 62.5763C153.29 62.6117 154.027 63.0495 154.547 63.5564C155.06 64.0568 155.384 64.6443 155.531 65.0557L155.697 65.522L155.252 65.7374C153.628 66.525 149.51 68.2129 146.038 68.6319C143.924 68.8871 141.661 69.1507 139.02 68.8511C136.373 68.5508 133.371 67.6887 129.743 65.7267C126.148 63.7822 123.976 62.2913 122.189 61.139C120.409 59.9918 119.019 59.1856 116.941 58.5515C114.851 57.9138 112.398 57.6816 109.877 57.3963C107.388 57.1148 104.836 56.7812 102.679 55.9106C101.632 55.4881 100.792 55.1208 100.084 54.8077C99.373 54.4928 98.8094 54.2392 98.2975 54.0344C97.2976 53.6344 96.5231 53.4332 95.3604 53.3989C93.8538 53.3546 93.0041 52.4198 92.327 51.5572C91.6134 50.6482 91.0966 49.8614 90.2079 49.4936C89.1638 49.0616 88.0736 48.7783 86.7565 48.3202C85.4732 47.8738 84.0777 47.2902 82.604 46.3078C81.9339 45.861 81.1818 45.5032 80.3994 45.1467C79.631 44.7967 78.8204 44.4426 78.101 44.0185C77.3759 43.5912 76.7019 43.0704 76.2119 42.3583C75.7158 41.6373 75.4326 40.7559 75.4326 39.6522V38.6786L76.2679 39.1794ZM81.0197 40.2995C80.4335 40.5199 79.4893 40.827 78.6772 40.9285C78.0905 41.0018 77.4634 40.8635 76.9534 40.6926C76.8411 40.655 76.7319 40.6141 76.6265 40.5726C76.7246 41.0299 76.8975 41.4084 77.1209 41.7331C77.4852 42.2625 78.0101 42.6849 78.661 43.0686C79.3174 43.4554 80.0605 43.7805 80.8571 44.1435C81.6397 44.5 82.4644 44.8892 83.2158 45.3901C84.5853 46.3031 85.8872 46.8497 87.119 47.2782C88.3169 47.6948 89.5595 48.0315 90.6295 48.4742C91.8549 48.9812 92.5776 50.0901 93.1945 50.876C93.8479 51.7084 94.4206 52.268 95.3927 52.2966C96.7085 52.3353 97.6109 52.5718 98.7068 53.0101C99.2427 53.2245 99.8319 53.4903 100.531 53.7996C101.234 54.1107 102.061 54.4721 103.092 54.8879C105.09 55.6941 107.496 56.017 110.001 56.3005C112.474 56.5802 115.051 56.8219 117.262 57.4965C119.485 58.1746 120.975 59.0449 122.786 60.2122C124.589 61.3747 126.719 62.8368 130.268 64.7562C133.785 66.6581 136.652 67.4724 139.144 67.7552C141.643 68.0388 143.791 67.7923 145.906 67.5371C148.895 67.1764 152.456 65.8017 154.272 64.977C154.15 64.7724 153.985 64.5488 153.777 64.3459C153.402 63.9804 152.912 63.7011 152.293 63.6781C151.87 63.6625 151.241 63.7463 150.438 63.9C149.643 64.0519 148.731 64.2609 147.748 64.4768C145.807 64.9032 143.598 65.3556 141.743 65.3556C139.862 65.3556 137.932 64.8387 136.075 64.1553C134.224 63.4736 132.387 62.6023 130.733 61.8833C129.05 61.1511 126.197 59.8791 123.357 58.6775C120.506 57.4714 117.716 56.3575 116.155 55.9316C115.365 55.7161 114.327 55.4722 113.161 55.1992C111.999 54.9272 110.715 54.6278 109.446 54.3026C106.937 53.6593 104.392 52.8943 102.959 52.0036C101.627 51.1756 98.7433 49.5432 95.774 48.0358C94.2902 47.2826 92.7909 46.5638 91.4583 45.9938C90.1156 45.4195 88.9761 45.0112 88.1987 44.8591C86.7383 44.5734 85.1897 43.684 83.8776 42.7363C82.7157 41.8971 81.6939 40.9789 81.0197 40.2995Z" fill="black"/>
<path d="M89.4804 49.2185C88.9235 50.0934 87.4729 52.1628 86.1545 53.3494C84.8571 54.5171 83.0381 55.7142 82.2907 56.168L81.7188 55.2251C82.4417 54.7861 84.1937 53.6306 85.4167 52.5298C86.6188 51.4479 88.0037 49.4841 88.5498 48.6261L89.4804 49.2185Z" fill="black"/>
<path d="M103.384 23.6605C103.5 24.2745 103.637 26.424 103.393 30.4544C103.324 31.5879 102.785 32.918 102.021 34.286C101.25 35.668 100.214 37.1483 99.085 38.5963C96.8263 41.493 94.1604 44.3043 92.3917 46.0111L91.626 45.2173C93.3668 43.5373 95.9957 40.7648 98.2153 37.9183C99.3253 36.4947 100.324 35.0629 101.059 33.748C101.801 32.4191 102.239 31.267 102.292 30.3877C102.535 26.3673 102.389 24.335 102.3 23.8641L103.384 23.6605Z" fill="black"/>
<path d="M92.9609 3.59619C94.3512 4.96552 96.1593 7.5175 97.8361 10.1069C99.5222 12.7106 101.107 15.4024 102.052 17.0882L101.571 17.3574L101.09 17.6272C100.154 15.9583 98.5817 13.2871 96.9104 10.7062C95.2298 8.11098 93.4799 5.65623 92.1865 4.38243L92.9609 3.59619Z" fill="black"/>
<path d="M76.9116 16.6474C82.5316 16.6061 88.1113 16.6267 92.549 16.6991C96.9622 16.7711 100.301 16.8947 101.395 17.0674C103.582 17.4129 106.044 18.4953 108.238 19.7029C110.44 20.9158 112.419 22.2809 113.65 23.2324C114.215 23.6685 115.044 24.1453 116.013 24.6557C116.998 25.1744 118.023 25.6754 119.074 26.2222C120.095 26.7536 121.086 27.3007 121.868 27.8475C122.259 28.1212 122.612 28.4043 122.893 28.6951C123.171 28.9822 123.409 29.3046 123.528 29.6617C124.06 31.2596 124.417 32.5509 124.53 33.0065L123.467 33.2983C123.322 32.8148 122.969 32.0668 122.398 31.4496C121.835 30.8397 121.091 30.3877 120.141 30.3876C117.133 30.3876 114.771 28.9853 112.22 27.9223C110.782 27.3231 109.723 26.2195 108.724 25.2642C107.699 24.284 106.702 23.4176 105.313 23.0245C103.94 22.6359 102.739 22.8908 101.572 23.2798C101.279 23.3775 100.992 23.4817 100.703 23.5867C100.417 23.6908 100.127 23.7958 99.84 23.8883C99.2695 24.0722 98.674 24.2206 98.0682 24.2206C97.4704 24.2205 96.7402 24.0563 95.8415 23.8409C94.9206 23.6202 93.765 23.3294 92.2469 23.0321C89.2159 22.4385 84.7305 21.819 77.9083 21.731C71.0567 21.6426 66.166 21.6765 62.7965 21.8252C61.1114 21.8996 59.8161 22.002 58.8508 22.1311C57.8698 22.2623 57.2808 22.415 56.9724 22.563C56.1092 22.9774 55.5213 23.0565 54.974 23.1182C54.4631 23.1758 54.0131 23.2167 53.3095 23.5146C52.6038 23.8133 51.9432 24.3279 51.2464 24.8495C50.9095 25.1018 50.5619 25.3567 50.2168 25.5604C49.8732 25.7631 49.4979 25.9362 49.102 25.9987C48.4926 26.095 47.4844 26.2322 46.4267 26.4775C45.3575 26.7254 44.312 27.0684 43.6162 27.5416C43.0174 27.9487 42.64 28.2916 42.4142 28.5427C42.3011 28.6684 42.2296 28.7673 42.1875 28.8356C42.1398 28.9132 42.1445 28.9276 42.1525 28.8879L42.0222 29.5406L41.405 29.2907C40.6896 29.0012 39.6892 28.3786 38.979 27.4226C38.2525 26.4445 37.8334 25.1157 38.3398 23.5038L38.4049 23.297L38.5929 23.1898C40.9881 21.8265 46.9178 18.8126 51.402 17.7363C52.1385 17.5595 53.4084 17.4127 55.037 17.2877C56.6781 17.1618 58.7197 17.0557 61.0221 16.9678C65.6276 16.792 71.2918 16.6887 76.9116 16.6474ZM92.5312 17.802C88.1037 17.7298 82.5326 17.709 76.9196 17.7503C71.3062 17.7916 65.6542 17.8949 61.0641 18.0702C58.7687 18.1578 56.7424 18.2629 55.121 18.3873C53.4873 18.5127 52.2996 18.6554 51.6594 18.809C47.4476 19.8199 41.8216 22.6416 39.3339 24.0385C39.0425 25.1688 39.3474 26.0685 39.8643 26.7645C40.2964 27.3462 40.8787 27.7824 41.384 28.0591C41.4445 27.9786 41.5144 27.894 41.594 27.8055C41.8911 27.4752 42.3403 27.0755 42.9963 26.6293C43.8691 26.0359 45.0824 25.6572 46.1779 25.4031C47.2849 25.1465 48.3475 25.0013 48.9302 24.9093C49.1304 24.8777 49.3676 24.7807 49.6562 24.6104C49.9432 24.4411 50.2474 24.2202 50.5856 23.9669C51.2392 23.4776 52.0217 22.8622 52.8797 22.4989C53.7396 22.1349 54.3252 22.0816 54.8507 22.0223C55.3399 21.9672 55.79 21.9069 56.4953 21.5684C56.9713 21.3399 57.7089 21.1716 58.7043 21.0385C59.7156 20.9032 61.0472 20.7985 62.7475 20.7234C66.1493 20.5732 71.0654 20.5402 77.9223 20.6287C84.8087 20.7175 89.3601 21.3429 92.4585 21.9496C94.005 22.2525 95.1876 22.5504 96.0984 22.7687C97.0311 22.9923 97.6263 23.1176 98.0682 23.1177C98.5024 23.1177 98.9687 23.0105 99.5012 22.8387C99.7661 22.7533 100.038 22.6554 100.327 22.5506C100.612 22.4469 100.914 22.3367 101.223 22.2334C102.469 21.8183 103.925 21.4852 105.613 21.9631C107.287 22.4366 108.453 23.4797 109.486 24.4672C110.545 25.4796 111.439 26.4025 112.644 26.9045C115.379 28.0441 117.423 29.2848 120.141 29.2848C121.086 29.2848 121.871 29.6086 122.5 30.0678C122.493 30.0489 122.488 30.0297 122.481 30.0107C122.435 29.8722 122.321 29.6886 122.102 29.4625C121.886 29.2401 121.595 29.0027 121.236 28.7516C120.517 28.2488 119.581 27.7293 118.565 27.2007C117.578 26.6875 116.455 26.1349 115.499 25.6315C114.528 25.1198 113.623 24.6053 112.976 24.1053C111.784 23.1846 109.853 21.8515 107.706 20.669C105.549 19.4816 103.22 18.4717 101.223 18.1563C100.225 17.9987 96.9831 17.8746 92.5312 17.802Z" fill="black"/>
<path d="M44.0875 26.6028C46.3943 28.6359 51.2806 34.5821 52.5832 42.3043C53.2249 46.1083 53.4402 48.8818 53.4453 50.8107C53.4479 51.7749 53.3982 52.534 53.321 53.1086C53.2457 53.6682 53.1389 54.0956 53.0043 54.3676L52.0161 53.8786C52.0689 53.7721 52.1568 53.4898 52.2278 52.9615C52.2967 52.4483 52.3449 51.7412 52.3425 50.8139C52.3375 48.9598 52.1297 46.2483 51.4954 42.4879C50.2459 35.0811 45.5326 29.3462 43.3584 27.4299L44.0875 26.6028Z" fill="black"/>
<path d="M27.0685 0.390625C28.2659 0.856255 30.1985 1.78808 32.1489 3.08375C34.0941 4.37605 36.0987 6.05748 37.3957 8.0354C38.674 9.98505 39.776 12.691 40.6321 15.2515C41.4911 17.8203 42.1158 20.284 42.4297 21.7746L41.3505 22.0018C41.0448 20.5501 40.431 18.1276 39.5863 15.6016C38.7389 13.0672 37.6724 10.4691 36.4732 8.64016C35.2925 6.83954 33.4256 5.25577 31.5382 4.00192C29.6559 2.75149 27.7945 1.85582 26.6689 1.41811L27.0685 0.390625Z" fill="black"/>
<path d="M26.6395 80.9776C24.2043 82.2073 17.9914 84.7639 12.616 85.1145C7.28321 85.4622 2.09397 84.6334 0.144531 84.1704L0.399788 83.0972C2.26688 83.5406 7.3438 84.3529 12.5444 84.0137C17.7026 83.6773 23.7595 81.1965 26.1425 79.9932L26.6395 80.9776Z" fill="black"/>
<path d="M25.0984 105.834C26.2522 107.263 28.1057 109.47 29.9122 111.444C30.8158 112.431 31.7026 113.354 32.4815 114.091C33.2745 114.84 33.9121 115.354 34.3254 115.568C35.4633 116.155 38.9131 117.497 42.0439 119.495C45.1726 121.491 48.2668 124.304 48.6084 128.018C49.2493 134.988 49.3966 149.665 33.2413 163.181C25.2317 169.882 19.7852 172.803 15.1197 174.028C10.4752 175.247 6.61896 174.767 1.99121 174.767V173.664C6.76651 173.664 10.3775 174.132 14.8397 172.961C19.2811 171.796 24.5815 168.988 32.5337 162.335C48.3018 149.143 48.1333 134.899 47.5098 128.119C47.2193 124.959 44.545 122.398 41.451 120.424C38.359 118.451 35.1314 117.225 33.8197 116.548C33.2531 116.255 32.5154 115.64 31.7238 114.892C30.918 114.13 30.011 113.185 29.0985 112.189C27.2728 110.194 25.4046 107.969 24.2406 106.527L25.0984 105.834Z" fill="black"/>
<path d="M1.69922 93.6767C2.58025 93.168 3.61053 93.0274 4.75907 93.1393C5.90265 93.2506 7.19845 93.6151 8.64662 94.1544C10.0254 94.6677 11.375 94.9425 12.8955 95.1878C14.4059 95.4314 16.1079 95.6489 18.1127 96.0467C19.875 96.3965 21.2331 97.4996 22.2022 98.6849C23.171 99.87 23.7891 101.181 24.0665 102.046L23.0164 102.383C22.7768 101.636 22.2207 100.45 21.3481 99.3828C20.4756 98.3157 19.3238 97.4116 17.8983 97.1286C15.9183 96.7356 14.2741 96.5273 12.72 96.2767C11.1759 96.0276 9.74208 95.739 8.26158 95.1878C6.85057 94.6624 5.65789 94.3347 4.65244 94.2368C3.65192 94.1393 2.87204 94.2727 2.25066 94.6315L1.69922 93.6767Z" fill="black"/>
</svg>
