<svg width="830" height="431" viewBox="0 0 830 431" fill="none" xmlns="http://www.w3.org/2000/svg">
<g clip-path="url(#clip0_20_73)">
<rect width="830" height="431" transform="translate(0 -0.00537109)" fill="#F0F4F4"/>
<path d="M365.972 75.3965C372.772 73.2807 388.913 70.3187 399.068 75.3965C411.763 81.7437 435.565 109.853 429.671 147.71C423.777 185.566 409.496 196.221 395.668 207.782" stroke="black" stroke-width="2"/>
<path d="M366.149 75.3499C361.552 71.0164 346.812 62.8975 324.629 65.0899C296.902 67.8304 283.683 91.3667 282.554 102.49C281.426 113.613 276.106 157.945 295.451 182.126" stroke="black" stroke-width="2"/>
<path d="M365.469 74.2542C368.713 65.6155 378.222 46.3412 390.309 38.3535C405.417 28.3689 421.314 17.4646 427.226 15.0998C433.138 12.735 445.093 16.939 455.997 9.18774" stroke="black" stroke-width="2"/>
<path d="M372.441 73.4309C373.536 69.1392 377.092 59.0844 382.558 53.1987C389.389 45.8416 407.913 31.9156 423.021 25.6095C438.13 19.3034 441.02 23.5075 447.458 20.2231C453.895 16.9387 458.362 14.3111 463.88 14.7053C468.294 15.0206 470.624 14.8366 471.237 14.7053C469.441 11.815 465.036 5.98185 461.778 5.77165C458.52 5.56145 456.304 8.31164 455.603 9.71301" stroke="black" stroke-width="2"/>
<path d="M368.828 251.18C367.58 251.513 365.132 254.153 365.332 262.046C365.531 269.939 365.415 285.983 365.332 293.019" stroke="black" stroke-width="2"/>
<path d="M384.261 291.538C377.732 299.225 361.301 315.293 347.812 318.07C330.951 321.541 307.891 320.301 284.583 305.92C261.275 291.538 242.678 277.405 241.438 248.394C240.176 221.608 243.18 230.484 247.14 219.014" stroke="black" stroke-width="2"/>
<path d="M366.562 253.888L370.073 253.043C374.348 258.634 387.668 271.262 406.742 277.05C430.585 284.285 479.198 283.266 502.174 262.684C525.15 242.101 550.519 209.672 553.63 190.167C556.742 170.661 557.34 158.336 564.998 152.233C565.038 159.453 564.233 176.74 560.69 188.132C557.148 199.525 552.533 208.806 550.668 212.022L553.63 210.751" stroke="black" stroke-width="2"/>
<path d="M549.143 217.616C536.641 233.297 509.475 266.387 500.83 273.303C490.023 281.948 460.781 289.831 447.559 289.958C434.337 290.085 404.349 290.559 387.186 283.694C373.456 278.202 367.494 271.409 366.229 268.699" stroke="black" stroke-width="2"/>
<path d="M246.845 219.494C248.968 210.294 257.814 190.691 276.214 185.879C299.213 179.864 342.381 175.618 373.165 191.894C403.949 208.171 405.718 226.217 403.595 236.124C401.896 244.05 393.687 260.893 389.795 268.323" stroke="black" stroke-width="2"/>
<path d="M232.465 304.593C232.698 295.243 228.958 285.425 229.426 275.374C228.589 264.052 234.1 264.621 233.866 243.116C233.633 221.611 207.218 201.508 170.987 202.443C134.755 203.378 109.744 216 93.8485 230.259C77.9533 244.518 82.6287 279.114 89.4075 293.373C96.1864 307.632 132.886 350.876 181.74 349.473C230.595 348.071 232.231 313.943 232.465 304.593Z" stroke="black" stroke-width="2"/>
<path d="M75.6863 147.771C75.9167 144.004 77.6693 136.792 82.8359 138.084C89.2943 139.698 88.141 148.232 84.6814 154.46C81.2217 160.687 82.6055 151 69.6893 165.07C56.7731 179.139 56.7751 178.838 54.9377 184.657C54.0191 184.657 51.355 185.147 48.0477 187.106C43.9137 189.556 35.1864 194.303 29.3681 196.906C23.5498 199.509 16.6593 197.212 10.6879 200.427C5.91074 203 0.122932 205.276 -2.17383 206.093" stroke="black" stroke-width="2"/>
<path d="M75.7078 147.591C74.8541 150.697 65.548 156.857 60.7157 160.841C55.8834 164.826 54.2727 169.234 51.3905 172.71C48.5082 176.185 37.6996 187.226 31.1851 189.397C24.6707 191.569 18.1565 189.914 12.2624 192.499C7.5472 194.567 0.370844 200.806 -2.62793 203.667" stroke="black" stroke-width="2"/>
<path d="M49.6377 174.869C45.3583 168.877 38.5267 153.02 45.4361 137.521C54.0728 118.147 70.4122 100.873 95.3885 97.372C120.365 93.8707 144.174 90.8361 168.917 124.916C188.711 152.18 177.165 187.94 168.917 202.413" stroke="black" stroke-width="2"/>
<path d="M52.9032 185.005C52.8666 187.23 53.9531 193.297 58.5914 199.773C64.3893 207.868 72.9205 218.161 92.5468 218.359C108.248 218.518 113.635 217.26 114.366 216.611" stroke="black" stroke-width="2"/>
<path d="M126.851 78.7368C126.084 76.847 125.683 72.0753 130.218 68.1067C135.887 63.146 139.253 62.9689 141.91 66.5122C144.036 69.3469 147.993 75.843 149.706 78.7368" stroke="black" stroke-width="2"/>
<path d="M137.058 73.5833C135.366 73.7948 133.18 72.7901 132.299 72.2612C132.299 79.5325 139.702 80.0614 144.858 83.4987C150.014 86.9361 154.642 87.5971 158.476 89.1836C162.309 90.7701 162.971 96.0583 167.465 96.1905C171.96 96.3227 173.547 97.777 181.083 100.818C188.618 103.858 199.063 103.197 206.863 105.577C214.663 107.957 217.307 111.659 230.263 118.665C243.219 125.672 251.548 124.747 259.216 123.821C265.35 123.081 272.701 120.076 275.61 118.665C275.169 117.432 273.574 114.937 270.718 114.831C267.148 114.699 258.026 117.872 251.548 117.872C245.07 117.872 238.063 114.303 231.982 111.659C225.9 109.014 211.226 102.404 205.408 100.818C199.591 99.2312 186.635 96.8515 181.744 93.8108C176.852 90.7701 160.723 81.9123 154.642 80.7224C149.776 79.7706 143.977 74.685 141.685 72.2612C140.848 72.6138 138.75 73.3718 137.058 73.5833Z" stroke="black" stroke-width="2"/>
<path d="M155.93 89.0718C154.93 90.643 152.358 94.2997 150.073 96.3567C147.788 98.4136 144.55 100.547 143.217 101.356" stroke="black" stroke-width="2"/>
<path d="M161.357 83.0725C167.722 76.9305 180.561 62.8214 181.003 55.521C181.445 48.2206 181.187 44.429 181.003 43.4458" stroke="black" stroke-width="2"/>
<path d="M178.699 31.8315C175.288 25.7478 167.25 12.3821 162.383 7.58887" stroke="black" stroke-width="2"/>
<path d="M87.9534 33.4908C79.9651 35.408 69.3135 40.8135 64.9862 43.2766C63.369 48.4244 67.6324 51.6 69.9662 52.5444C70.042 52.1651 70.7627 51.0196 73.0384 49.4721C75.8831 47.5378 81.231 46.8551 83.393 46.5137C85.5549 46.1723 87.9534 43.2766 90.7891 42.076C93.6247 40.8755 94.544 41.7347 97.3886 40.3693C100.233 39.0038 110.94 38.4419 135.8 38.7627C160.659 39.0834 168.574 43.2766 172.346 43.2766C176.118 43.2766 180.204 39.5742 185.756 41.1457C191.309 42.7172 193.6 48.0696 198.393 50.0667C203.186 52.0638 207.181 54.4604 212.373 54.4604C216.527 54.4604 218.764 58.4546 219.363 60.4517C219.163 59.6528 218.524 57.3362 217.565 54.4604C216.367 50.8656 204.385 46.6716 199.991 43.2766C195.597 39.8816 185.811 33.4908 178.222 32.2925C170.633 31.0942 97.9387 31.0942 87.9534 33.4908Z" stroke="black" stroke-width="2"/>
<path d="M73.7949 49.3469C77.8578 52.9279 86.5622 63.5192 88.8762 77.2369C91.1902 90.9547 90.4096 97.1302 89.7301 98.5032" stroke="black" stroke-width="2"/>
<path d="M70.4711 40.0471C69.3475 34.7114 65.9771 22.3268 61.4841 15.4745C56.9911 8.62224 47.4429 3.63281 43.2305 1.99463" stroke="black" stroke-width="2"/>
<path d="M42.3649 146.309C37.9962 148.515 26.8711 153.083 17.3201 153.706C7.76905 154.329 -1.53957 152.841 -5 152.019" stroke="black" stroke-width="2"/>
<path d="M39.2436 192.906C43.4469 198.112 52.7418 208.983 56.2957 210.817C60.7381 213.11 80.5128 220.132 81.6591 232.598C82.8055 245.065 83.0921 271.288 54.1465 295.505C25.2009 319.722 15.1703 316.282 -1.88184 316.282" stroke="black" stroke-width="2"/>
<path d="M37.1969 185.714C36.2595 182.791 32.9393 176.657 27.1582 175.509C19.9317 174.075 15.0224 173.965 9.83719 172.034C4.65203 170.103 0.812434 169.523 -1.91211 171.096" stroke="black" stroke-width="2"/>
</g>
<defs>
<clipPath id="clip0_20_73">
<rect width="830" height="431" fill="white" transform="translate(0 -0.00537109)"/>
</clipPath>
</defs>
</svg>
