<svg width="303" height="101" viewBox="0 0 303 101" fill="none" xmlns="http://www.w3.org/2000/svg">
<g clip-path="url(#clip0_20_59)">
<rect width="302" height="100" transform="translate(0.980469 0.236572)" fill="#F0F4F4"/>
<g clip-path="url(#clip1_20_59)">
<path d="M94.6546 14.5323C96.1615 14.4416 97.8046 14.5676 99.0908 15.2107C100.684 16.0075 102.927 18.1367 104.591 21.2082C106.259 24.2878 107.359 28.3359 106.635 32.9816C105.917 37.5936 104.685 40.5675 103.198 42.7454C101.714 44.9198 99.9834 46.2866 98.3145 47.6819L98.0036 47.3103C99.6843 45.9051 101.358 44.5811 102.798 42.4724C104.235 40.3672 105.447 37.4654 106.156 32.9071C106.861 28.3824 105.791 24.4408 104.165 21.4389C102.534 18.429 100.356 16.3849 98.8742 15.6441C97.7005 15.0572 96.1586 14.9271 94.6837 15.0158C93.2141 15.1042 91.8441 15.4078 91.0374 15.6588L90.8936 15.1961C91.734 14.9346 93.1425 14.6232 94.6546 14.5323Z" fill="black"/>
<path d="M80.9263 12.6898C86.3649 12.1523 90.0062 14.1391 91.1741 15.24L90.8417 15.5924C89.7824 14.5939 86.2825 12.6473 80.974 13.172C77.6842 13.4971 75.2575 15.0543 73.6173 16.8618C71.9709 18.6761 71.1296 20.7284 70.999 22.0148C70.8622 23.3643 70.4741 26.7039 70.7021 30.4352C70.9306 34.1738 71.7758 38.2608 74.0712 41.1301L73.693 41.4329C71.3024 38.4447 70.4489 34.2333 70.2186 30.4645C69.9878 26.6883 70.3807 23.311 70.5171 21.9658C70.6601 20.5579 71.5564 18.4122 73.2586 16.5363C74.967 14.6537 77.4996 13.0286 80.9263 12.6898Z" fill="black"/>
<path d="M112.913 -0.413294C111.537 0.564557 110.098 0.78386 108.844 0.836454C108.531 0.849585 108.229 0.852414 107.942 0.853723C107.654 0.855039 107.385 0.854894 107.131 0.862003C106.62 0.876354 106.208 0.920273 105.893 1.04628C105.203 1.32211 103.904 2.11055 102.299 3.14907C100.701 4.18259 98.8265 5.44513 96.9939 6.65631C95.5734 7.59506 94.2878 9.21096 93.2541 10.8713C92.2231 12.5274 91.4577 14.2033 91.0699 15.2359L90.6162 15.0656C91.0143 14.0055 91.7936 12.3006 92.8427 10.6154C93.8892 8.93442 95.2194 7.2482 96.7268 6.25203C98.5538 5.04461 100.435 3.77722 102.035 2.74218C103.628 1.71217 104.97 0.893376 105.713 0.596345C106.114 0.435948 106.601 0.392257 107.118 0.377764C107.379 0.370452 107.656 0.370545 107.94 0.369248C108.226 0.367943 108.521 0.365179 108.824 0.352452C110.036 0.301605 111.366 0.0914084 112.632 -0.80835L112.913 -0.413294Z" fill="black"/>
<path d="M114.189 -1.68007C114.45 -1.66324 114.708 -1.53771 114.941 -1.37656C115.178 -1.2128 115.412 -0.996217 115.628 -0.765529C116.062 -0.304068 116.447 0.237668 116.67 0.597768L116.852 0.890393L116.515 0.962544C116.331 1.00198 115.738 1.04388 114.665 0.967275C113.412 0.877749 112.401 1.46845 110.815 2.27806C109.976 2.70585 109.344 2.64769 108.543 2.68234C107.742 2.71697 106.68 2.83851 104.878 3.59073C103.071 4.34522 101.05 5.55975 99.2716 6.81126C97.4922 8.06366 95.9718 9.34154 95.1607 10.2151C94.5242 10.9005 93.9908 11.8389 93.5817 12.7451C93.1735 13.6492 92.8964 14.5048 92.7672 15.0112L92.2979 14.8915C92.4339 14.3582 92.7201 13.476 93.14 12.546C93.5589 11.618 94.1181 10.6257 94.8056 9.88536C95.6492 8.97678 97.2 7.67676 98.9927 6.41502C100.787 5.15246 102.839 3.91671 104.691 3.14363C106.549 2.36827 107.668 2.23506 108.522 2.1981C109.376 2.16116 109.873 2.21435 110.594 1.84657L111.152 1.55939C112.419 0.906581 113.457 0.395255 114.7 0.483982C115.316 0.528042 115.756 0.530122 116.038 0.519939C115.831 0.221969 115.564 -0.126933 115.275 -0.434108C115.072 -0.650528 114.864 -0.840595 114.665 -0.977961C114.463 -1.11795 114.291 -1.18792 114.158 -1.19654C113.839 -1.21708 113.565 -1.09455 113.344 -0.918111C113.12 -0.739721 112.965 -0.516971 112.894 -0.375205L112.461 -0.591894C112.56 -0.789593 112.758 -1.07 113.042 -1.29684C113.329 -1.52562 113.718 -1.71045 114.189 -1.68007Z" fill="black"/>
<path d="M91.7189 58.2428C91.6687 58.2562 91.4887 58.3594 91.3231 58.7356C91.1617 59.1023 91.0279 59.7023 91.0516 60.6347C91.0999 62.5519 91.0719 66.443 91.0518 68.1464L90.5673 68.1407C90.5874 66.4359 90.6154 62.5538 90.5673 60.647C90.5425 59.6674 90.6813 58.9915 90.8798 58.5404C91.0742 58.0989 91.3419 57.8422 91.594 57.7749L91.7189 58.2428Z" fill="black"/>
<path d="M62.4086 50.296C62.1615 51.0116 61.9262 51.4175 61.7162 51.7253C61.5006 52.0411 61.3569 52.1979 61.2376 52.4789C61.1217 52.7519 61.0316 53.1462 60.9921 53.8884C60.9575 54.5374 60.9618 55.4396 61.0145 56.7403L61.0403 57.3227V57.3237C61.3349 64.2163 65.7336 67.5808 71.3768 71.0626C76.9643 74.5103 82.486 74.8048 86.5172 73.9747C88.092 73.6505 89.8667 72.5403 91.461 71.2559C93.0489 69.9768 94.4286 68.5494 95.2108 67.6285L95.58 67.9419C94.7806 68.8831 93.3794 70.3327 91.765 71.6332C90.157 72.9286 88.3075 74.1008 86.6149 74.4492C82.4773 75.3012 76.8272 74.9949 71.1225 71.475C65.4739 67.9898 60.8628 64.5069 60.5563 57.3455C60.4798 55.7214 60.4674 54.6294 60.5083 53.8626C60.5492 53.0962 60.6438 52.6376 60.7915 52.2897C60.9358 51.9498 61.1349 51.7173 61.3159 51.452C61.5025 51.1787 61.7181 50.8114 61.9506 50.1379L62.4086 50.296Z" fill="black"/>
<path d="M139.418 34.0387C139.428 35.7926 139.234 40.0116 138.364 42.8085C137.667 45.0489 136.8 46.9555 136.249 48.026L136.327 47.9929L136.518 48.4379L135.129 49.0347L135.495 48.4019C135.939 47.6376 137.049 45.4061 137.901 42.6646C138.668 40.2007 138.9 36.5617 138.93 34.6001C138.308 35.2766 137.921 36.2167 137.622 37.4733C137.263 38.9834 137.041 40.889 136.662 43.2674C136.275 45.6907 134.52 48.8756 132.19 52.0577C129.854 55.2492 126.915 58.472 124.12 60.9761C121.281 63.5187 116.886 64.8354 112.504 65.3035C108.117 65.772 103.696 65.3953 100.77 64.5077C96.2287 63.1295 93.0169 60.1724 91.8634 58.732L91.1643 58.9005L91.0508 58.4295L92.0547 58.1877L92.1506 58.3129C93.1609 59.6342 96.3474 62.6591 100.911 64.044C103.761 64.9089 108.116 65.285 112.452 64.8218C116.794 64.3581 121.069 63.0583 123.796 60.6151C126.567 58.1333 129.483 54.9355 131.799 51.7715C134.122 48.5982 135.816 45.4927 136.183 43.191C136.558 40.8445 136.786 38.8948 137.151 37.3612C137.517 35.8223 138.034 34.6409 139.025 33.8506L139.416 33.5396L139.418 34.0387Z" fill="black"/>
<path d="M135.525 50.0294C134.01 51.93 131.606 54.8856 129.318 57.5761C128.175 58.9213 127.059 60.2016 126.097 61.2511C125.139 62.2967 124.324 63.1248 123.784 63.5569C122.436 64.6352 119.972 65.6468 117.469 66.3911C114.961 67.1368 112.365 67.6288 110.731 67.6446C109.131 67.66 106.505 67.6966 103.759 67.5207C101.018 67.345 98.1301 66.9565 96.0138 66.11C94.3302 65.4365 93.1161 64.6804 92.2807 64.0042C91.4506 63.3323 90.9824 62.7294 90.8076 62.3551L91.2467 62.1503C91.3784 62.4322 91.7856 62.98 92.5856 63.6276C93.3803 64.2708 94.5513 65.0031 96.1936 65.6601C98.2349 66.4766 101.058 66.8621 103.79 67.0371C106.515 67.2118 109.123 67.1755 110.726 67.1601L110.876 67.1575C112.454 67.115 114.919 66.6438 117.331 65.9267C119.825 65.185 122.211 64.1946 123.481 63.1786C123.988 62.773 124.781 61.9709 125.74 60.9237C126.696 59.8804 127.807 58.6051 128.949 57.2622C131.233 54.5766 133.633 51.6253 135.146 49.7275L135.525 50.0294Z" fill="black"/>
<path d="M80.2608 40.6522C84.525 40.706 89.0459 41.4378 92.8208 43.4336C96.5794 45.421 98.5939 47.5306 99.5978 49.4721C100.603 51.4161 100.582 53.1679 100.316 54.4126C100.104 55.4009 99.4935 56.9226 98.8278 58.406C98.159 59.8961 97.4239 61.3704 96.9507 62.274L96.5215 62.0493C96.9911 61.1528 97.7216 59.6873 98.3856 58.2075C99.0527 56.7211 99.6424 55.2429 99.8421 54.3112L99.8646 54.2014C100.09 53.0535 100.083 51.4648 99.1675 49.6947C98.2213 47.8648 96.2928 45.8174 92.5944 43.8618C88.9122 41.915 84.476 41.1899 80.2547 41.1366C76.0354 41.0834 72.05 41.7015 69.2837 42.425C67.1265 42.9891 65.5194 44.4229 64.3834 46.0048C63.2467 47.5878 62.5949 49.3019 62.3442 50.3878L61.8721 50.2788C62.1357 49.1363 62.8124 47.362 63.99 45.7221C65.1683 44.0813 66.8613 42.5578 69.1612 41.9563C71.9661 41.2228 75.9948 40.5983 80.2608 40.6522Z" fill="black"/>
<path d="M43.7255 45.9606C48.1587 45.8462 52.0036 47.0184 54.754 48.8904C57.5011 50.7601 59.1764 53.3454 59.2058 56.0527C59.2344 58.6835 58.9109 59.9769 58.6021 60.9601C58.2986 61.9264 58.032 62.5338 58.1294 63.8516L58.1306 63.866L58.1299 63.8807C58.0746 65.068 58.2677 66.2464 58.4734 67.4308C58.6774 68.6057 58.8953 69.7921 58.8663 70.9534C58.8378 72.0925 58.7248 74.7858 57.099 77.239C55.4623 79.7088 52.3244 81.8896 46.3435 82.0613C40.3519 82.2333 35.1174 79.6676 31.1836 76.6389C27.254 73.6134 24.5925 70.1029 23.7513 68.3335C22.9126 66.5692 22.2133 63.5743 22.2061 60.5859C22.199 57.6059 22.8806 54.5581 24.8842 52.7607C28.7779 49.2679 34.8918 46.1885 43.7255 45.9606ZM54.4815 49.2909C51.8242 47.4823 48.0814 46.333 43.7381 46.445C35.0184 46.6701 29.0151 49.7062 25.2078 53.1215C23.3611 54.7781 22.6835 57.6476 22.6906 60.5847C22.6976 63.5134 23.3856 66.4358 24.189 68.1256C24.9899 69.8103 27.5945 73.2644 31.479 76.2552C35.3594 79.2427 40.487 81.7447 46.3296 81.5771C52.1833 81.409 55.161 79.2865 56.6952 76.9715C58.2403 74.64 58.3537 72.0671 58.3819 70.9413C58.4094 69.8377 58.2025 68.7026 57.996 67.5136C57.792 66.3385 57.5894 65.1153 57.6452 63.8727C57.543 62.4577 57.8417 61.7643 58.1399 60.8149C58.4337 59.8792 58.7494 58.6366 58.7213 56.0579C58.6942 53.556 57.1418 51.1016 54.4815 49.2909Z" fill="black"/>
<path d="M21.4607 30.513C21.7349 30.3435 22.0634 30.2843 22.4375 30.3777C22.8834 30.4892 23.2122 30.7256 23.4284 31.0514C23.6413 31.3724 23.7341 31.7629 23.7454 32.1704C23.7679 32.9813 23.4702 33.9186 23.0376 34.6973C22.829 35.0729 22.6542 35.29 22.4218 35.3679C22.3078 35.4062 22.2009 35.403 22.1209 35.3989C22.0347 35.3945 21.9697 35.3882 21.8853 35.394C21.5758 35.415 20.9343 35.6124 19.3726 37.3136C17.8017 39.0248 17.0314 39.8461 16.5935 40.4187C16.1727 40.9689 16.0718 41.271 15.8519 41.9675L15.7984 42.1366H15.6207C15.4514 42.1367 14.8484 42.2382 14.0753 42.6963C13.069 43.2927 10.9463 44.4472 9.52576 45.0828C8.7707 45.4206 7.94966 45.4381 7.18973 45.4745C6.4129 45.5117 5.6859 45.5676 5.01669 45.928C3.84473 46.559 2.43017 47.115 1.86736 47.3152L1.70508 46.8589C2.25501 46.6632 3.64453 46.1166 4.78699 45.5015C5.56418 45.0829 6.39492 45.0275 7.16655 44.9905C7.95515 44.9527 8.67366 44.9331 9.328 44.6404C10.7263 44.0148 12.8318 42.8701 13.8283 42.2795C14.5121 41.8743 15.0996 41.711 15.4393 41.6661C15.6354 41.0521 15.7717 40.6957 16.2086 40.1245C16.6639 39.5291 17.4579 38.6828 19.0156 36.986L19.1602 36.8299C20.6295 35.2584 21.3541 34.9444 21.8527 34.9107C21.9743 34.9024 22.0798 34.9117 22.146 34.9152C22.2186 34.9189 22.2466 34.9159 22.2678 34.9088C22.3061 34.8959 22.4039 34.8405 22.6142 34.4619C23.0196 33.7322 23.2805 32.8814 23.2612 32.1838C23.2515 31.8371 23.1731 31.5432 23.0246 31.3194C22.8794 31.1006 22.6563 30.9318 22.3201 30.8477C22.0684 30.7849 21.8746 30.8266 21.7155 30.9251C21.5485 31.0284 21.402 31.2056 21.2788 31.4394C21.0312 31.9093 20.9155 32.5363 20.8887 32.9739L20.4052 32.9444C20.4342 32.4695 20.5586 31.767 20.8501 31.2137C20.9965 30.9359 21.1943 30.6778 21.4607 30.513Z" fill="black"/>
<path d="M20.8854 32.9795C20.8485 33.1139 20.7718 33.247 20.6801 33.3727C20.5867 33.5006 20.4682 33.634 20.3338 33.7694C20.0652 34.0402 19.7188 34.3344 19.3487 34.63C18.978 34.9262 18.5771 35.2288 18.1988 35.5155C17.8188 35.8035 17.4624 36.0747 17.1743 36.3122C16.6141 36.7741 16.2389 37.2615 15.9146 37.7441C15.597 38.2168 15.3069 38.7216 14.9478 39.1547C14.5897 39.5865 13.7519 40.4743 12.8055 41.3204C12.3317 41.744 11.8271 42.1604 11.3388 42.5053C10.8536 42.8481 10.3713 43.1298 9.94335 43.2725C9.11781 43.5476 8.29414 43.5793 7.53232 43.6226C6.75934 43.6666 6.04925 43.7226 5.38034 44.016C4.83948 44.2532 4.13976 44.7394 3.47366 45.2648C2.81211 45.7866 2.20166 46.3327 1.84329 46.6745L1.50879 46.3239C1.87683 45.9729 2.49891 45.4167 3.1737 44.8844C3.84387 44.3558 4.58436 43.836 5.18565 43.5722C5.9445 43.2394 6.73743 43.1825 7.50488 43.1389C8.28346 43.0945 9.03785 43.0636 9.79029 42.8129C10.1514 42.6925 10.5881 42.4425 11.0594 42.1096C11.5278 41.7788 12.0173 41.3751 12.4826 40.9592C13.4143 40.1262 14.2348 39.2557 14.575 38.8455C14.9139 38.4367 15.1681 37.9866 15.5127 37.4737C15.8506 36.9707 16.2558 36.4415 16.866 35.9384C17.1632 35.6934 17.5278 35.4161 17.9062 35.1294C18.2862 34.8414 18.6813 34.543 19.0462 34.2515C19.4118 33.9595 19.741 33.6791 19.9898 33.4283C20.1141 33.303 20.2148 33.1886 20.2888 33.0872C20.3645 32.9835 20.4034 32.9051 20.4182 32.8513L20.8854 32.9795Z" fill="black"/>
<path d="M25.9521 20.4321C28.7798 20.0417 31.5931 19.7298 34.4059 20.438C37.4196 21.1968 40.4047 23.1173 43.4273 27.2805C45.8699 30.645 46.3732 34.527 46.0196 37.9958C45.6662 41.4622 44.4556 44.5365 43.4418 46.3153L43.0207 46.0755C44.0048 44.3487 45.1916 41.3388 45.5374 37.9465C45.883 34.5565 45.3873 30.805 43.0351 27.5651C40.0641 23.473 37.1685 21.6332 34.2876 20.9078C31.3933 20.1791 28.4855 20.5656 25.4537 20.9906C19.5096 21.8239 15.6098 25.9335 13.5408 30.5749C11.9163 34.219 13.5231 37.9668 14.5343 39.3825L14.1402 39.6642C13.0782 38.1774 11.3752 34.2428 13.0982 30.3776C15.2134 25.6327 19.2298 21.374 25.3863 20.5109L25.9521 20.4321Z" fill="black"/>
<path d="M15.3705 41.9829C15.3625 42.4658 15.6074 43.8854 16.703 45.4149C17.4015 46.3902 18.249 47.4746 19.4987 48.3241C20.744 49.1706 22.4024 49.7927 24.7338 49.8164C26.6296 49.8354 27.8964 49.7688 28.7073 49.6791C29.113 49.6343 29.4008 49.5841 29.5941 49.5372C29.6909 49.5138 29.7603 49.492 29.8073 49.4738C29.8599 49.4534 29.8669 49.4441 29.856 49.4537L30.1777 49.8159C30.1226 49.8648 30.05 49.8995 29.9826 49.9256C29.9094 49.954 29.818 49.9816 29.7081 50.0082C29.4881 50.0615 29.1785 50.1146 28.7605 50.1608C27.9238 50.2533 26.6364 50.3198 24.729 50.3006C22.3062 50.276 20.554 49.6273 19.2264 48.7249C17.9032 47.8254 17.0151 46.6828 16.3091 45.6971C15.1577 44.0897 14.8762 42.5695 14.886 41.9749L15.3705 41.9829Z" fill="black"/>
<path d="M35.5179 12.4555C36.0851 12.3887 36.5266 12.6552 36.8826 13.1299C37.4069 13.829 38.3721 15.4145 38.7857 16.1132L38.3689 16.3599C37.9525 15.6565 37.0005 14.0948 36.4949 13.4206C36.2072 13.0371 35.9192 12.8961 35.5746 12.9366C35.1956 12.9812 34.6954 13.2492 34.0159 13.8438C33.0075 14.7263 33.1118 15.7672 33.2653 16.1456L32.8163 16.3277C32.5983 15.7905 32.5084 14.5195 33.6971 13.4793C34.3907 12.8723 34.985 12.5182 35.5179 12.4555Z" fill="black"/>
<path d="M34.4851 14.4602C34.5777 14.5158 34.7474 14.601 34.94 14.6656C35.1365 14.7314 35.3309 14.7669 35.4831 14.7479C35.8603 14.7007 36.3446 14.527 36.5401 14.4446L36.6948 14.3796L36.81 14.5014C37.0781 14.785 37.5568 15.2295 38.1113 15.63C38.6707 16.0341 39.2822 16.3747 39.8193 16.4797C40.2143 16.557 40.7546 16.7541 41.3486 17.0082C41.9471 17.2642 42.6158 17.5851 43.273 17.9187C44.5866 18.5856 45.8658 19.3095 46.4657 19.6823C47.0211 20.0276 48.0647 20.3484 49.18 20.6342C49.7315 20.7756 50.2904 20.906 50.8018 21.0257C51.3113 21.145 51.7764 21.2542 52.1339 21.3517C52.8571 21.549 54.1135 22.0522 55.3592 22.5792C56.6094 23.1082 57.8705 23.6705 58.604 23.9894C59.3506 24.314 60.129 24.6839 60.9249 24.977C61.7187 25.2692 62.5041 25.4745 63.247 25.4745C64.0012 25.4745 64.9207 25.2887 65.7811 25.0998C66.2059 25.0064 66.6179 24.9122 66.9754 24.8438C67.3289 24.7762 67.6533 24.729 67.8997 24.7381L67.9773 24.743C68.3597 24.7778 68.6577 24.9598 68.8717 25.1686C69.097 25.3884 69.2393 25.6465 69.3039 25.8272L69.377 26.032L69.1814 26.1267C68.4678 26.4726 66.6588 27.2142 65.1336 27.3982C64.205 27.5102 63.2108 27.6261 62.0507 27.4945C60.888 27.3625 59.5693 26.9838 57.9757 26.1219C56.3964 25.2678 55.4424 24.6128 54.6573 24.1067C53.8755 23.6027 53.265 23.2485 52.352 22.97C51.4339 22.6899 50.3563 22.5879 49.2488 22.4626C48.1557 22.3389 47.0348 22.1924 46.0872 21.8099C45.6272 21.6243 45.258 21.463 44.9472 21.3254C44.6347 21.1871 44.387 21.0757 44.162 20.9857C43.7228 20.8101 43.3826 20.7216 42.8718 20.7066C42.2101 20.6871 41.837 20.2765 41.5395 19.8976C41.2261 19.4983 40.9992 19.1526 40.6089 18.9911C40.1503 18.8013 39.6712 18.6768 39.0926 18.4756C38.5287 18.2795 37.9156 18.0232 37.2682 17.5916C36.9738 17.3954 36.6436 17.2381 36.3 17.0816C35.9624 16.9278 35.6062 16.7723 35.2901 16.586C34.9716 16.3982 34.6757 16.1695 34.4605 15.8566C34.2426 15.5399 34.1182 15.1527 34.1182 14.6679V14.24L34.4851 14.4602ZM36.5725 14.9523C36.3149 15.0491 35.9 15.184 35.5432 15.2286C35.2855 15.2608 35.0102 15.2 34.7862 15.125C34.7369 15.1084 34.6889 15.0905 34.6426 15.0722C34.6857 15.2731 34.7617 15.4394 34.8598 15.582C35.0198 15.8145 35.2502 16.0001 35.5361 16.1687C35.8245 16.3386 36.1508 16.4814 36.5008 16.6408C36.8446 16.7975 37.2069 16.9684 37.5369 17.1885C38.1385 17.5896 38.7106 17.8296 39.2518 18.0179C39.7781 18.2009 40.324 18.3487 40.7941 18.5433C41.3323 18.766 41.6496 19.2531 41.9206 19.5983C42.2077 19.964 42.4591 20.2098 42.886 20.2224C43.4641 20.2394 43.8606 20.3432 44.3421 20.5358C44.5775 20.63 44.8363 20.7465 45.1433 20.8824C45.4521 21.019 45.8156 21.178 46.2684 21.3607L46.4349 21.4246C47.2782 21.7324 48.2716 21.8644 49.3034 21.9812C50.3896 22.1041 51.5219 22.2102 52.4932 22.5066C53.4696 22.8044 54.1242 23.1868 54.9196 23.6996C55.7117 24.2102 56.6472 24.8525 58.2062 25.6957C59.7509 26.5311 61.0104 26.8888 62.1054 27.0131C63.2031 27.1376 64.1465 27.0293 65.0754 26.9173C66.3883 26.7589 67.953 26.1549 68.7511 25.7926C68.6971 25.7028 68.6248 25.6045 68.5334 25.5154C68.3689 25.3549 68.1536 25.2322 67.8817 25.2221C67.6957 25.2152 67.4195 25.252 67.0665 25.3195C66.7175 25.3863 66.3167 25.4781 65.8849 25.5729C65.0319 25.7602 64.062 25.959 63.247 25.959C62.4207 25.959 61.5729 25.7319 60.7575 25.4317C59.9442 25.1322 59.1372 24.7495 58.4108 24.4336C57.671 24.112 56.4181 23.5532 55.1704 23.0254C53.9181 22.4955 52.6925 22.0063 52.0064 21.8191C51.6593 21.7245 51.2037 21.6173 50.6913 21.4974C50.181 21.378 49.6171 21.2464 49.0598 21.1036C47.9574 20.821 46.8393 20.4849 46.2099 20.0937C45.6247 19.7299 44.3581 19.0128 43.0538 18.3507C42.402 18.0198 41.7433 17.7041 41.158 17.4537C40.5682 17.2014 40.0678 17.0221 39.7263 16.9552C39.0846 16.8297 38.4041 16.439 37.8277 16.0227C37.3173 15.6541 36.8686 15.2507 36.5725 14.9523Z" fill="black"/>
<path d="M40.2897 18.8701C40.045 19.2544 39.4077 20.1635 38.8287 20.6847C38.2588 21.1977 37.4598 21.7235 37.1316 21.9229L36.8799 21.5087C37.1975 21.3157 37.9672 20.8082 38.5043 20.3247C39.0323 19.8494 39.641 18.9867 39.8809 18.6099L40.2897 18.8701Z" fill="black"/>
<path d="M46.3967 7.64331C46.4472 7.91306 46.5077 8.85718 46.4005 10.6275C46.3704 11.1254 46.1337 11.7097 45.7982 12.3106C45.4593 12.9177 45.0043 13.568 44.5083 14.2041C43.5161 15.4765 42.3449 16.7115 41.5678 17.4613L41.2314 17.1126C41.9963 16.3746 43.1512 15.1567 44.1262 13.9062C44.6139 13.2809 45.0528 12.6519 45.3753 12.0743C45.7012 11.4906 45.8934 10.9845 45.9168 10.5982C46.0237 8.83185 45.9592 7.93895 45.9205 7.73226L46.3967 7.64331Z" fill="black"/>
<path d="M41.8177 -1.1709C42.4285 -0.569372 43.2227 0.551672 43.9593 1.68912C44.7 2.83289 45.3961 4.01534 45.8113 4.75588L45.3886 4.99268C44.9775 4.25952 44.2868 3.08612 43.5526 1.95241C42.8144 0.812376 42.0457 -0.265962 41.4775 -0.82552L41.8177 -1.1709Z" fill="black"/>
<path d="M34.7672 4.56223C37.236 4.54408 39.6871 4.55315 41.6365 4.58494C43.575 4.61655 45.0415 4.67085 45.5222 4.74675C46.483 4.89846 47.5646 5.37392 48.5282 5.90447C49.4958 6.43725 50.3649 7.03693 50.9059 7.45489C51.1538 7.64645 51.5181 7.85592 51.9439 8.08012C52.3766 8.308 52.8268 8.52806 53.2885 8.76827C53.7371 9.0017 54.1724 9.242 54.5158 9.48221C54.6877 9.60248 54.8424 9.72681 54.9662 9.85456C55.0884 9.98066 55.1923 10.1223 55.2446 10.2792L55.3286 10.5356C55.516 11.1171 55.6415 11.5731 55.6853 11.7482L55.2183 11.8767C55.1546 11.6643 54.9993 11.3355 54.7488 11.0643C54.5012 10.7964 54.1744 10.5981 53.7571 10.5981C52.4358 10.5981 51.3982 9.98203 50.2775 9.51509C49.6458 9.25185 49.1805 8.76709 48.7416 8.34743C48.2912 7.91684 47.8535 7.53623 47.2434 7.36358C46.6404 7.19289 46.1128 7.30485 45.6003 7.47571C45.4715 7.51864 45.3456 7.56438 45.2185 7.61055C45.0926 7.65626 44.9652 7.7024 44.8393 7.74302C44.5887 7.82382 44.3271 7.88898 44.061 7.88898C43.7983 7.88896 43.4774 7.81685 43.0826 7.7222C42.678 7.62523 42.1704 7.49749 41.5035 7.36689C40.172 7.10614 38.2019 6.83402 35.2051 6.79536C32.1953 6.75652 30.0469 6.77141 28.5668 6.83676C27.8265 6.86944 27.2575 6.91442 26.8335 6.97112C26.4026 7.02874 26.144 7.09585 26.0086 7.16084H26.0084C25.6291 7.34284 25.3709 7.37764 25.1305 7.40474C24.906 7.43004 24.7084 7.44799 24.3993 7.57885C24.0893 7.7101 23.7991 7.93612 23.493 8.16528C23.345 8.27608 23.1923 8.38808 23.0407 8.47754C22.8898 8.56659 22.7249 8.64264 22.551 8.6701C22.2833 8.71236 21.8404 8.77266 21.3758 8.8804C20.9061 8.98931 20.4469 9.14 20.1412 9.34784C19.8782 9.5267 19.7124 9.67729 19.6132 9.78761C19.5635 9.84284 19.5321 9.88627 19.5136 9.9163C19.5031 9.93328 19.4984 9.94337 19.4968 9.94705L19.441 10.226L19.1699 10.1162C18.8556 9.98901 18.4161 9.71552 18.1042 9.29556C17.785 8.86594 17.6009 8.2822 17.8234 7.57412L17.852 7.48328L17.9345 7.4362C18.9867 6.8373 21.5915 5.51333 23.5614 5.04055C23.8849 4.96291 24.4427 4.8984 25.1582 4.8435C25.8791 4.78818 26.7759 4.74159 27.7873 4.70298C29.8104 4.62575 32.2986 4.58038 34.7672 4.56223ZM41.6284 5.06941C39.6835 5.0377 37.2364 5.02857 34.7708 5.0467C32.3049 5.06484 29.8221 5.11025 27.8057 5.18722C26.7974 5.22571 25.9073 5.2719 25.1951 5.32656C24.4774 5.38163 23.9556 5.44429 23.6744 5.51178C21.8242 5.95585 19.3529 7.19538 18.2601 7.80902C18.1321 8.30551 18.266 8.70076 18.4931 9.00649C18.6829 9.26203 18.9386 9.45387 19.1606 9.57542C19.1872 9.54002 19.2179 9.50272 19.2529 9.46376C19.3834 9.31866 19.5807 9.14309 19.8689 8.94711C20.2523 8.68644 20.7853 8.52005 21.2665 8.40846C21.7528 8.2957 22.2196 8.23195 22.4756 8.19154C22.5635 8.17764 22.6677 8.13504 22.7944 8.06025C22.9205 7.98584 23.0542 7.8888 23.2027 7.77756C23.4898 7.56261 23.8336 7.29227 24.2105 7.13269C24.5882 6.97278 24.8454 6.94936 25.0763 6.92334C25.2912 6.89911 25.4889 6.87264 25.7988 6.72392C26.0078 6.62355 26.3318 6.54939 26.7691 6.49091C27.2133 6.4315 27.7983 6.38573 28.5452 6.35275C30.0396 6.28678 32.1992 6.27225 35.2113 6.31112C38.2362 6.35014 40.2357 6.62486 41.5967 6.8914C42.2761 7.02444 42.7955 7.1553 43.1956 7.25121C43.6053 7.34942 43.8668 7.40449 44.061 7.4045C44.2517 7.4045 44.4567 7.35742 44.6907 7.28196C44.807 7.24445 44.9265 7.2014 45.0531 7.1554C45.1785 7.10985 45.3109 7.06145 45.447 7.01607C45.994 6.83369 46.6337 6.68737 47.3754 6.89732L47.5107 6.93919C48.1743 7.1625 48.6512 7.59066 49.0765 7.99732C49.5416 8.44202 49.9345 8.84747 50.4637 9.06799C51.6652 9.5686 52.5631 10.1136 53.7571 10.1136C54.1722 10.1136 54.5167 10.2557 54.793 10.4573C54.7903 10.4491 54.7877 10.4408 54.785 10.4325C54.7647 10.3716 54.7144 10.291 54.6182 10.1917C54.5235 10.094 54.3957 9.98943 54.238 9.87916C53.9223 9.6583 53.5109 9.43004 53.0647 9.19787C52.6315 8.97247 52.1381 8.72986 51.7182 8.50877C51.2914 8.28401 50.8939 8.05796 50.6097 7.83835C50.0862 7.43389 49.2378 6.84828 48.2945 6.32886C47.3471 5.80723 46.3242 5.36364 45.4467 5.22507C45.0083 5.15584 43.5842 5.1013 41.6284 5.06941Z" fill="black"/>
<path d="M20.3486 8.93555C21.3619 9.82867 23.5084 12.4407 24.0806 15.8329C24.3625 17.504 24.4571 18.7223 24.4593 19.5696C24.4605 19.9932 24.4386 20.3267 24.4047 20.579C24.3716 20.8249 24.3247 21.0126 24.2656 21.1321L23.8315 20.9173C23.8547 20.8705 23.8933 20.7465 23.9245 20.5145C23.9548 20.289 23.9759 19.9784 23.9749 19.5711C23.9727 18.7566 23.8816 17.5655 23.603 15.9136C23.0541 12.6599 20.9834 10.1407 20.0283 9.2989L20.3486 8.93555Z" fill="black"/>
<path d="M12.8728 -2.57886C13.3988 -2.37432 14.2477 -1.96498 15.1045 -1.39582C15.959 -0.828138 16.8396 -0.0895077 17.4093 0.779353C17.9709 1.6358 18.4549 2.82447 18.831 3.94926C19.2083 5.07767 19.4828 6.15993 19.6207 6.81472L19.1466 6.91454C19.0123 6.27684 18.7427 5.21269 18.3716 4.10302C17.9994 2.98973 17.5309 1.84844 17.0041 1.04501C16.4854 0.25403 15.6654 -0.441688 14.8362 -0.992484C14.0094 -1.54177 13.1917 -1.93522 12.6973 -2.1275L12.8728 -2.57886Z" fill="black"/>
<path d="M12.6847 32.8213C11.6149 33.3615 8.88573 34.4846 6.5244 34.6384C4.1818 34.7912 1.90226 34.4271 1.0459 34.2237L1.15803 33.7524C1.97822 33.9473 4.20844 34.3041 6.49294 34.1551C8.75879 34.0075 11.4195 32.9175 12.4663 32.3889L12.6847 32.8213Z" fill="black"/>
<path d="M12.007 43.7405C12.5138 44.3682 13.3281 45.3378 14.1216 46.2047C14.5185 46.6383 14.9081 47.0439 15.2503 47.3674C15.5986 47.6968 15.8787 47.9226 16.0602 48.0163C16.5601 48.2743 18.0756 48.8638 19.4509 49.7413C20.8252 50.6183 22.1845 51.8537 22.3345 53.4856C22.6161 56.5471 22.6808 62.9944 15.584 68.9318C12.0656 71.8755 9.67301 73.1586 7.62355 73.6966C5.58328 74.2321 3.88935 74.0214 1.85645 74.0214V73.5369C3.95415 73.5369 5.5404 73.7427 7.50054 73.2282C9.45156 72.7161 11.78 71.4827 15.2732 68.5602C22.1998 62.7651 22.1258 56.5078 21.8519 53.5298C21.7243 52.1417 20.5495 51.0169 19.1904 50.1496C17.8321 49.2829 16.4144 48.7443 15.8381 48.4468C15.5892 48.3184 15.2651 48.0482 14.9174 47.7194C14.5634 47.3847 14.165 46.9698 13.7642 46.5319C12.9622 45.6557 12.1415 44.678 11.6302 44.0447L12.007 43.7405Z" fill="black"/>
<path d="M1.72852 38.3998C2.11554 38.1764 2.56811 38.1146 3.07265 38.1638C3.57501 38.2127 4.14422 38.3728 4.78038 38.6097C5.38606 38.8351 5.9789 38.9559 6.64684 39.0636C7.31032 39.1707 8.05801 39.2662 8.93864 39.4409C9.7128 39.5945 10.3094 40.0792 10.7351 40.5999C11.1607 41.1205 11.4322 41.6967 11.554 42.0767L11.0928 42.2246C10.9875 41.8963 10.7432 41.3753 10.3599 40.9064C9.97661 40.4377 9.47068 40.0405 8.84449 39.9162C7.97467 39.7436 7.25244 39.6521 6.56972 39.542C5.93387 39.4394 5.34058 39.3216 4.73307 39.1079L4.61124 39.0639C3.9914 38.833 3.46749 38.6889 3.02581 38.6459C2.58631 38.6031 2.24372 38.6617 1.97075 38.8193L1.72852 38.3998Z" fill="black"/>
</g>
</g>
<defs>
<clipPath id="clip0_20_59">
<rect width="302" height="100" fill="white" transform="translate(0.980469 0.236572)"/>
</clipPath>
<clipPath id="clip1_20_59">
<rect width="138.56" height="85.0255" fill="white" transform="translate(0.980469 -2.76343)"/>
</clipPath>
</defs>
</svg>
