<svg width="418" height="183" viewBox="0 0 418 183" fill="none" xmlns="http://www.w3.org/2000/svg">
<path d="M404.487 94.8493C404.487 94.5706 404.586 94.1933 404.708 93.802C404.837 93.3887 405.019 92.8829 405.229 92.3144C405.653 91.1695 406.202 89.7526 406.731 88.2106C407.104 87.1205 406.966 85.3994 406.581 83.5966C406.567 83.5323 406.552 83.4682 406.538 83.404C406.497 83.6036 406.452 83.7999 406.404 83.9919C406.195 84.8204 405.927 85.5945 405.698 86.2491C405.463 86.9246 405.284 87.4343 405.218 87.7952C405.137 88.2384 404.859 88.7525 404.53 89.2507C404.19 89.7663 403.751 90.3299 403.284 90.8854C402.347 91.9973 401.267 93.1102 400.556 93.7973L400.43 93.9196L400.255 93.9424C398.313 94.1914 393.932 94.6981 392.147 94.6981C391.513 94.6981 390.878 94.5296 390.278 94.3132C389.681 94.0981 389.069 93.8159 388.509 93.5746C387.933 93.3266 387.402 93.1164 386.906 93.0049C386.413 92.8941 385.995 92.8903 385.633 93.0157C385.247 93.1491 384.785 93.4805 384.177 93.9833C383.596 94.4632 382.897 95.0846 382.114 95.6718C380.529 96.8611 378.482 98.0042 375.766 98.0042C373.642 98.0042 371.127 97.4349 368.873 96.7409C366.756 96.0896 364.832 95.3154 363.611 94.7592C361.609 95.8098 359.238 96.2591 357.05 96.397C354.769 96.5408 352.643 96.3494 351.256 96.1183C348.338 95.6319 344.411 92.6298 343.737 87.773C343.593 86.7387 343.802 85.4646 344.193 84.125C344.588 82.7733 345.184 81.3007 345.863 79.8466C346.899 77.6292 348.14 75.429 349.186 73.7254C349.142 73.7228 349.095 73.7179 349.047 73.7062C348.899 73.6702 348.729 73.577 348.624 73.3887C348.519 73.1993 348.539 72.9982 348.548 72.9189C348.556 72.8511 348.571 72.7809 348.588 72.7117C347.946 73.2986 347.264 73.9172 346.616 74.4945C345.938 75.0987 345.294 75.6613 344.772 76.0981C344.512 76.3163 344.278 76.5061 344.084 76.655C343.899 76.7967 343.722 76.9228 343.585 76.9947C343.151 77.223 342.92 77.3938 342.734 77.6448C342.537 77.9123 342.361 78.3131 342.138 79.0666C342.09 79.2266 342.001 79.3733 341.912 79.496C341.818 79.6242 341.701 79.7568 341.571 79.8912C341.31 80.1598 340.965 80.4632 340.564 80.7878C339.76 81.4384 338.693 82.2054 337.534 82.9948C335.248 84.5534 332.571 86.2228 330.774 87.3026C330.68 87.4159 330.493 87.6837 330.258 88.15C329.994 88.6739 329.68 89.4225 329.377 90.4244C329.3 90.6772 329.249 91.082 329.232 91.6364C329.216 92.1816 329.233 92.837 329.277 93.572C329.365 95.042 329.558 96.8007 329.785 98.5781C330.234 102.101 330.825 105.751 330.955 107.187C331.029 107.995 330.848 109.073 330.571 110.229C330.29 111.4 329.892 112.716 329.492 114.022C329.089 115.335 328.684 116.637 328.379 117.805C328.07 118.982 327.878 119.971 327.878 120.668C327.878 122.181 328.052 124.17 328.599 125.824C329.156 127.506 330.027 128.648 331.299 128.847C332.502 129.034 334.127 128.997 335.699 128.866C337.261 128.736 338.73 128.517 339.6 128.356L339.837 128.312L340.027 128.462C340.711 129.007 341.794 129.843 342.82 130.582C343.334 130.952 343.828 131.294 344.249 131.562C344.684 131.839 344.996 132.008 345.162 132.065C345.792 132.282 346.023 132.391 346.438 132.342C346.89 132.289 347.57 132.036 348.948 131.297C349.421 131.044 350.136 130.433 351.015 129.55C351.88 128.68 352.862 127.589 353.859 126.424C355.853 124.093 357.893 121.484 359.161 119.795L359.359 119.532L370.973 121.684C372.048 121.544 374.559 121.064 376.576 120.182C377.803 119.645 378.844 118.581 380.049 117.469C381.21 116.398 382.518 115.294 384.183 114.986C385.724 114.701 387.2 114.63 388.467 114.609C389.763 114.588 390.774 114.616 391.49 114.536C391.692 114.514 392.002 114.405 392.406 114.199C392.797 113.999 393.234 113.73 393.678 113.43C394.513 112.864 395.339 112.206 395.878 111.746L399.216 103.431L399.317 103.346C400.206 102.597 401.559 101.422 402.727 100.336C403.311 99.7919 403.844 99.2754 404.248 98.848C404.45 98.634 404.614 98.448 404.735 98.2958C404.795 98.2198 404.841 98.1565 404.874 98.1057C404.891 98.0806 404.903 98.0605 404.911 98.0451C404.915 98.0377 404.918 98.0316 404.92 98.0275C404.922 98.0235 404.923 98.0216 404.923 98.0218C405.055 97.6844 405.002 97.1816 404.851 96.5539C404.774 96.2353 404.7 95.9829 404.622 95.6765C404.554 95.4082 404.488 95.1096 404.487 94.8493ZM405.548 94.8493C405.548 94.9621 405.581 95.1432 405.65 95.4165C405.71 95.652 405.81 96.0036 405.882 96.3058C406.03 96.9199 406.177 97.7271 405.91 98.4082C405.84 98.5891 405.704 98.7812 405.566 98.9547C405.419 99.1402 405.232 99.3507 405.019 99.5762C404.592 100.028 404.041 100.562 403.449 101.112C402.309 102.173 400.999 103.312 400.102 104.07L396.813 112.265L396.765 112.384L396.668 112.468C396.11 112.95 395.2 113.679 394.273 114.308C393.809 114.622 393.333 114.917 392.888 115.144C392.455 115.365 392.005 115.546 391.607 115.59C390.825 115.677 389.7 115.65 388.485 115.67C387.241 115.691 385.832 115.76 384.376 116.029C383.044 116.276 381.938 117.17 380.769 118.249C379.643 119.287 378.436 120.526 377 121.154C374.805 122.114 372.108 122.615 371.026 122.748L370.945 122.759L370.865 122.744L359.811 120.694C358.525 122.397 356.577 124.88 354.665 127.114C353.659 128.289 352.658 129.402 351.767 130.297C350.891 131.179 350.077 131.896 349.45 132.232C348.079 132.968 347.236 133.316 346.561 133.396C345.85 133.48 345.35 133.252 344.816 133.068C344.517 132.965 344.108 132.73 343.679 132.456C343.235 132.173 342.722 131.819 342.201 131.443C341.247 130.757 340.249 129.989 339.555 129.441C338.639 129.602 337.254 129.802 335.787 129.923C334.195 130.056 332.467 130.102 331.136 129.894C329.243 129.6 328.179 127.932 327.592 126.157C326.995 124.353 326.817 122.238 326.817 120.668C326.817 119.824 327.043 118.72 327.352 117.536C327.665 116.342 328.078 115.014 328.477 113.711C328.879 112.401 329.268 111.115 329.54 109.982C329.816 108.832 329.955 107.902 329.899 107.282C329.77 105.862 329.192 102.315 328.732 98.7128C328.505 96.9276 328.308 95.1412 328.218 93.6357C328.173 92.8832 328.154 92.1932 328.172 91.6043C328.189 91.0247 328.243 90.5066 328.361 90.1167C328.681 89.0621 329.017 88.256 329.311 87.6725C329.599 87.1012 329.861 86.7158 330.045 86.5247L330.094 86.4744L330.154 86.4382C331.94 85.3666 334.641 83.6835 336.937 82.1184C338.087 81.3351 339.126 80.5873 339.896 79.9637C340.282 79.6512 340.591 79.3775 340.811 79.152C340.92 79.0393 341 78.9453 341.055 78.8708C341.102 78.8058 341.117 78.7721 341.12 78.7656C341.35 77.9919 341.567 77.4397 341.881 77.0149C342.206 76.5736 342.604 76.3122 343.092 76.0557C343.14 76.0306 343.252 75.9558 343.439 75.8128C343.616 75.6768 343.837 75.4979 344.092 75.2844C344.602 74.8578 345.236 74.3039 345.911 73.7026C347.26 72.5006 348.761 71.1196 349.73 70.2152L350.561 70.8517C350.369 71.2134 350.09 71.7696 349.878 72.2606C349.857 72.3089 349.838 72.3567 349.819 72.4025C349.975 72.3145 350.127 72.2213 350.243 72.143L350.982 72.8749C349.84 74.6094 348.156 77.4437 346.824 80.2957C346.158 81.7217 345.585 83.1409 345.211 84.4223C344.834 85.7157 344.674 86.8164 344.787 87.6269C345.393 91.9938 348.938 94.6566 351.43 95.072C352.749 95.2918 354.794 95.4763 356.983 95.3383C359.179 95.1999 361.476 94.7399 363.334 93.7041L363.571 93.572L363.817 93.687C364.973 94.2282 366.972 95.0461 369.185 95.7273C371.406 96.4109 373.801 96.9434 375.766 96.9434C378.159 96.9434 379.982 95.9448 381.478 94.8234C382.235 94.2554 382.88 93.6793 383.501 93.166C384.095 92.6755 384.694 92.2177 385.286 92.013C385.9 91.8003 386.535 91.8342 387.138 91.97C387.739 92.105 388.349 92.3505 388.928 92.6003C389.524 92.8569 390.081 93.1146 390.637 93.3151C391.19 93.5144 391.692 93.6373 392.147 93.6373C393.8 93.6373 397.909 93.1693 399.944 92.9116C400.634 92.2373 401.618 91.2162 402.472 90.2022C402.926 89.663 403.336 89.1343 403.645 88.6664C403.965 88.1811 404.135 87.8207 404.175 87.6046C404.259 87.1415 404.475 86.5352 404.697 85.8995C404.927 85.243 405.179 84.5102 405.375 83.7334C405.698 82.4464 405.846 81.1003 405.495 79.858C405.385 79.5542 405.28 79.2781 405.182 79.0381L406.15 78.6051C406.298 78.9092 406.415 79.2185 406.505 79.5301C406.89 80.592 407.317 81.9698 407.618 83.375C408.006 85.1874 408.211 87.1645 407.734 88.5546C407.2 90.1128 406.641 91.5561 406.224 92.6827C406.014 93.25 405.841 93.7333 405.721 94.118C405.594 94.5246 405.548 94.7549 405.548 94.8493Z" fill="black"/>
<path d="M416.129 100.684C416.129 95.8769 414.368 91.3457 412.14 87.6187C409.912 83.892 407.24 81.0066 405.476 79.5012L406.164 78.6943C408.013 80.2726 410.762 83.246 413.05 87.0743C415.339 90.9024 417.19 95.6227 417.19 100.684C417.19 106.815 417.804 118.765 413.914 130.024C411.965 135.664 408.88 141.151 404.01 145.66C399.138 150.171 392.504 153.681 383.492 155.403C365.494 158.842 352.92 154.179 344.61 148.283C336.317 142.4 332.292 135.301 331.374 133.971C329.838 131.744 328.178 127.735 327.543 126.026L328.537 125.657C329.171 127.361 330.793 131.26 332.248 133.369C333.199 134.749 337.117 141.667 345.224 147.418C353.313 153.156 365.596 157.743 383.294 154.361C392.13 152.672 398.578 149.244 403.29 144.881C408.004 140.516 411.005 135.192 412.911 129.677C416.73 118.626 416.129 106.887 416.129 100.684Z" fill="black"/>
<path d="M251.314 109.372C263.198 103.144 274.415 104.317 283.422 107.734C292.417 111.145 299.228 116.799 302.365 119.576C307.373 124.009 309.976 127.104 310.671 128.136L310.915 128.499L310.606 128.808C309.599 129.814 308.08 131.446 306.798 133.063C306.157 133.872 305.584 134.668 305.165 135.373C304.734 136.098 304.51 136.657 304.485 137.012C304.399 138.215 304.399 140.014 304.355 141.986C304.312 143.937 304.224 146.038 303.957 147.775C303.665 149.673 302.355 151.068 301.033 152.27C300.341 152.899 299.692 153.435 299.053 154.037C298.433 154.621 297.901 155.199 297.523 155.815C296.273 157.854 296.064 160.426 296.118 161.436L296.135 161.745L291.849 164.48C291.113 165.362 290.031 166.718 289.109 167.992C288.637 168.644 288.213 169.268 287.901 169.792C287.744 170.054 287.62 170.284 287.533 170.475C287.442 170.675 287.407 170.798 287.399 170.856C287.304 171.617 286.867 173.268 286.157 174.896C285.801 175.714 285.368 176.544 284.862 177.263C284.361 177.977 283.766 178.611 283.075 179.001L282.848 179.13L282.607 179.027C281.889 178.721 280.758 178.154 279.671 177.436C278.682 176.782 277.67 175.965 277.067 175.066C276.305 174.969 274.865 174.782 273.643 174.608C272.866 174.497 272.016 174.126 271.297 173.736C270.754 173.442 270.258 173.122 269.885 172.858C269.226 173.379 268.314 174.069 267.398 174.688C266.86 175.051 266.313 175.395 265.813 175.669C265.323 175.937 264.838 176.159 264.432 176.249C263.854 176.378 263.145 176.19 262.48 175.947C261.786 175.693 261.005 175.323 260.237 174.959C259.458 174.591 258.687 174.227 257.977 173.962C257.254 173.692 256.662 173.551 256.228 173.575C255.897 173.593 255.37 173.764 254.685 174.086C254.016 174.4 253.254 174.831 252.475 175.311C250.918 176.272 249.327 177.412 248.34 178.167L248.052 178.387L247.742 178.199C246.255 177.295 243.97 175.786 241.939 174.19C240.924 173.392 239.962 172.566 239.193 171.776C238.437 170.999 237.819 170.209 237.553 169.485C237.249 168.656 236.482 165.272 235.865 160.511C235.245 155.731 234.769 149.513 235.065 143.001C235.654 130.029 239.323 115.655 251.314 109.372ZM283.046 108.725C274.247 105.388 263.357 104.258 251.806 110.311C240.361 116.309 236.712 130.13 236.124 143.05C235.832 149.484 236.303 155.638 236.917 160.375C237.534 165.132 238.29 168.413 238.549 169.119C238.734 169.623 239.218 170.279 239.954 171.035C240.678 171.779 241.599 172.574 242.595 173.356C244.45 174.814 246.531 176.203 247.987 177.103C249 176.342 250.469 175.302 251.918 174.408C252.715 173.917 253.514 173.464 254.233 173.126C254.934 172.797 255.62 172.546 256.168 172.516C256.833 172.479 257.599 172.688 258.348 172.968C259.108 173.252 259.92 173.636 260.69 174C261.471 174.37 262.205 174.716 262.844 174.951C263.512 175.195 263.956 175.268 264.202 175.213C264.456 175.157 264.832 174.996 265.304 174.738C265.765 174.486 266.281 174.161 266.804 173.808C267.85 173.102 268.896 172.3 269.538 171.779L269.864 171.514L270.196 171.77C270.532 172.029 271.128 172.438 271.803 172.803C272.486 173.174 273.204 173.474 273.794 173.558C274.475 173.655 275.226 173.757 275.888 173.844L277.447 174.045L277.707 174.077L277.839 174.304C278.288 175.073 279.214 175.862 280.256 176.551C281.162 177.149 282.104 177.638 282.771 177.94C283.194 177.648 283.606 177.206 283.995 176.653C284.447 176.011 284.847 175.248 285.185 174.472C285.866 172.91 286.267 171.359 286.346 170.725C286.374 170.504 286.464 170.263 286.569 170.034C286.678 169.795 286.822 169.529 286.99 169.248C287.325 168.686 287.769 168.034 288.249 167.37C289.211 166.041 290.339 164.631 291.085 163.739L291.138 163.676L295.051 161.178C295.043 159.894 295.334 157.356 296.619 155.261C297.069 154.526 297.68 153.873 298.326 153.264C298.954 152.672 299.694 152.054 300.32 151.485C301.634 150.29 302.678 149.114 302.909 147.613C303.164 145.951 303.251 143.911 303.294 141.962C303.338 140.034 303.338 138.173 303.427 136.936C303.471 136.315 303.813 135.572 304.253 134.831C304.706 134.069 305.311 133.232 305.967 132.404C307.151 130.911 308.526 129.413 309.538 128.379C308.624 127.17 306.132 124.327 301.662 120.371C298.556 117.621 291.86 112.068 283.046 108.725Z" fill="black"/>
<path d="M183.392 9.32813C197.4 2.1572 214.179 -2.4034 228.506 1.9788C235.716 4.18436 242.317 9.98259 245.476 16.809C248.649 23.6659 248.36 31.6102 241.682 37.9459C228.534 50.4193 211.515 49.7265 199.91 49.3949C188.143 49.0587 177.161 43.3493 172.391 36.3641L172.376 36.3423L172.364 36.3195C170.611 33.1126 170.555 27.8073 172.299 22.6371C174.051 17.4417 177.658 12.2634 183.392 9.32813ZM228.196 2.99348C214.263 -1.26835 197.794 3.14745 183.876 10.2724C178.439 13.0554 174.989 17.9828 173.304 22.9764C171.616 27.982 171.738 32.9368 173.282 35.7881C177.83 42.4241 188.447 48.0062 199.94 48.3346C211.607 48.668 228.167 49.3051 240.951 37.1762C247.239 31.2109 247.532 23.7791 244.513 17.2545C241.48 10.6994 235.115 5.11003 228.196 2.99348Z" fill="black"/>
<path d="M209.045 39.0276C209.045 38.6858 209.126 38.2073 209.238 37.6933C209.352 37.167 209.509 36.5609 209.682 35.9452C210.028 34.7133 210.443 33.4208 210.719 32.6054L211.723 32.9462C211.451 33.7485 211.043 35.0225 210.703 36.2322C210.534 36.8373 210.382 37.4213 210.274 37.9192C210.163 38.4293 210.106 38.81 210.106 39.0276V42.6145L210.045 42.731C209.691 43.3981 209.155 44.4397 208.701 45.3938C208.474 45.8714 208.271 46.3215 208.12 46.6892C207.959 47.0836 207.89 47.3137 207.883 47.3885C207.828 47.9308 208.002 48.5623 208.094 48.7984L207.107 49.1868C206.981 48.8666 206.75 48.0565 206.827 47.2828C206.852 47.0286 206.988 46.6552 207.138 46.2878C207.299 45.8938 207.513 45.4235 207.744 44.938C208.18 44.0206 208.688 43.0286 209.045 42.3513C209.045 41.6041 209.045 40.0804 209.045 39.0276Z" fill="black"/>
<path d="M26.2326 115.326C31.867 111.1 49.7979 97.4293 71.5743 102.993C93.3936 108.567 97.9103 127.238 96.1349 135.792C94.3651 144.319 86.3406 153.459 74.3106 154.421C64.8098 155.181 57.6534 153.159 55.2083 152.018L55.6569 151.058C57.9208 152.114 64.8914 154.11 74.2262 153.364C85.741 152.442 93.4128 143.688 95.0964 135.577C96.7742 127.493 92.5009 109.434 71.3117 104.021C50.0795 98.5964 32.5363 111.924 26.8692 116.174C24.7079 117.795 23.9978 119.422 23.9142 120.75C23.8292 122.101 24.3872 123.231 24.9144 123.845L24.1095 124.536C23.4329 123.749 22.7503 122.354 22.8555 120.683C22.9623 118.988 23.8735 117.095 26.2326 115.326Z" fill="black"/>
<path d="M0.224609 121.981C4.13722 121.13 10.7541 120.664 17.9637 122.009C25.1779 123.355 33.0186 126.52 39.33 132.958C47.0818 140.867 52.5382 146.825 54.9983 152.586C56.2371 155.486 56.722 158.346 56.3642 161.381C56.0072 164.409 54.8156 167.579 52.7514 171.112C48.5437 178.314 40.641 181.413 31.5772 182.145C22.5076 182.878 12.1619 181.254 2.87553 178.893L3.13658 177.865C12.3721 180.213 22.5889 181.807 31.4918 181.088C40.4006 180.368 47.8811 177.346 51.8356 170.577C53.8525 167.125 54.976 164.095 55.3106 161.257C55.6444 158.426 55.197 155.752 54.0225 153.002C51.6558 147.461 46.3602 141.646 38.5723 133.701C32.4519 127.457 24.8312 124.369 17.7695 123.052C10.7031 121.734 4.22908 122.195 0.45044 123.018L0.224609 121.981Z" fill="black"/>
</svg>
