<svg width="303" height="101" viewBox="0 0 303 101" fill="none" xmlns="http://www.w3.org/2000/svg">
<g clip-path="url(#clip0_20_62)">
<rect width="302" height="100" transform="translate(0.980469 0.236572)" fill="#F0F4F4"/>
<path d="M213.941 44.5319C213.941 44.3851 213.993 44.1863 214.057 43.9802C214.125 43.7624 214.221 43.496 214.332 43.1965C214.555 42.5934 214.844 41.847 215.123 41.0347C215.32 40.4604 215.247 39.5538 215.044 38.6041C215.036 38.5702 215.029 38.5364 215.021 38.5026C214.999 38.6078 214.976 38.7112 214.951 38.8123C214.841 39.2488 214.699 39.6565 214.579 40.0014C214.455 40.3572 214.361 40.6258 214.326 40.8159C214.283 41.0493 214.137 41.3202 213.964 41.5826C213.784 41.8542 213.553 42.1511 213.307 42.4437C212.814 43.0295 212.244 43.6157 211.87 43.9777L211.803 44.0421L211.711 44.0541C210.688 44.1853 208.38 44.4522 207.44 44.4522C207.106 44.4522 206.772 44.3635 206.455 44.2495C206.141 44.1362 205.819 43.9875 205.524 43.8604C205.221 43.7297 204.941 43.619 204.679 43.5602C204.42 43.5019 204.199 43.4999 204.009 43.566C203.806 43.6362 203.562 43.8108 203.242 44.0757C202.936 44.3285 202.567 44.6558 202.155 44.9652C201.32 45.5916 200.242 46.1938 198.811 46.1938C197.692 46.1938 196.367 45.8939 195.18 45.5283C194.065 45.1852 193.051 44.7774 192.408 44.4844C191.353 45.0379 190.104 45.2745 188.952 45.3472C187.75 45.4229 186.63 45.3221 185.899 45.2004C184.362 44.9441 182.293 43.3627 181.938 40.8041C181.863 40.2593 181.973 39.5881 182.179 38.8824C182.387 38.1704 182.701 37.3946 183.059 36.6287C183.604 35.4606 184.258 34.3015 184.809 33.4041C184.786 33.4027 184.761 33.4001 184.736 33.394C184.658 33.375 184.568 33.3259 184.513 33.2267C184.457 33.127 184.468 33.021 184.473 32.9792C184.477 32.9435 184.485 32.9065 184.494 32.8701C184.156 33.1793 183.797 33.5051 183.455 33.8093C183.098 34.1275 182.759 34.4239 182.484 34.654C182.347 34.7689 182.224 34.8689 182.121 34.9473C182.024 35.022 181.931 35.0884 181.858 35.1263C181.63 35.2466 181.508 35.3365 181.41 35.4688C181.306 35.6097 181.213 35.8208 181.096 36.2177C181.071 36.302 181.024 36.3793 180.977 36.4439C180.928 36.5115 180.866 36.5814 180.797 36.6521C180.66 36.7936 180.478 36.9534 180.267 37.1244C179.843 37.4672 179.281 37.8712 178.671 38.2871C177.466 39.1081 176.056 39.9875 175.11 40.5564C175.06 40.616 174.962 40.7571 174.838 41.0028C174.699 41.2788 174.533 41.6731 174.374 42.2009C174.333 42.334 174.306 42.5473 174.297 42.8394C174.289 43.1265 174.298 43.4718 174.321 43.859C174.367 44.6333 174.469 45.5598 174.589 46.4962C174.825 48.3518 175.136 50.2746 175.205 51.031C175.244 51.4568 175.149 52.0248 175.003 52.6335C174.855 53.2503 174.645 53.9439 174.434 54.6318C174.222 55.3235 174.009 56.0095 173.848 56.6245C173.685 57.2449 173.584 57.7658 173.584 58.1328C173.584 58.9296 173.676 59.9777 173.964 60.8488C174.257 61.735 174.716 62.3368 175.386 62.4412C176.02 62.5398 176.876 62.5204 177.704 62.4516C178.527 62.3831 179.301 62.2678 179.759 62.1828L179.884 62.1593L179.984 62.2387C180.344 62.5254 180.915 62.9663 181.455 63.3555C181.726 63.5503 181.987 63.7305 182.208 63.8715C182.437 64.0174 182.602 64.1065 182.689 64.1367C183.021 64.251 183.143 64.3084 183.361 64.2827C183.599 64.2547 183.958 64.1215 184.684 63.7321C184.933 63.5985 185.31 63.277 185.773 62.8115C186.228 62.3534 186.745 61.7789 187.271 61.1648C188.321 59.9371 189.396 58.5629 190.064 57.6728L190.168 57.5342L196.286 58.6682C196.852 58.5945 198.175 58.3416 199.237 57.8769C199.884 57.5939 200.433 57.0332 201.067 56.4477C201.679 55.8833 202.368 55.302 203.245 55.1396C204.056 54.9893 204.834 54.9523 205.502 54.9413C206.184 54.9299 206.717 54.9447 207.094 54.9028C207.2 54.891 207.364 54.8336 207.576 54.7252C207.783 54.6198 208.013 54.4782 208.246 54.32C208.686 54.0218 209.122 53.6752 209.406 53.4329L211.164 49.0525L211.217 49.0078C211.686 48.6131 212.398 47.9942 213.014 47.4219C213.321 47.1356 213.602 46.8635 213.815 46.6383C213.921 46.5256 214.008 46.4276 214.071 46.3474C214.103 46.3074 214.127 46.274 214.145 46.2473C214.153 46.2341 214.16 46.2235 214.164 46.2154C214.166 46.2114 214.168 46.2083 214.169 46.2061C214.17 46.204 214.17 46.203 214.17 46.2031C214.24 46.0253 214.212 45.7605 214.133 45.4298C214.092 45.262 214.053 45.129 214.012 44.9676C213.976 44.8263 213.941 44.669 213.941 44.5319ZM214.5 44.5319C214.5 44.5913 214.517 44.6867 214.554 44.8306C214.585 44.9547 214.637 45.1399 214.676 45.2991C214.754 45.6226 214.831 46.0478 214.69 46.4067C214.653 46.502 214.582 46.6032 214.509 46.6945C214.432 46.7922 214.333 46.9032 214.221 47.0219C213.996 47.2599 213.706 47.5414 213.394 47.8312C212.793 48.3899 212.103 48.9897 211.631 49.3892L209.898 53.706L209.873 53.7688L209.822 53.8133C209.528 54.0672 209.049 54.4513 208.56 54.7825C208.316 54.948 208.065 55.1033 207.83 55.2228C207.602 55.3393 207.365 55.4348 207.156 55.458C206.744 55.5038 206.151 55.4895 205.511 55.5001C204.855 55.5109 204.113 55.5472 203.347 55.6892C202.645 55.8191 202.062 56.29 201.446 56.8583C200.853 57.4055 200.217 58.0579 199.461 58.3888C198.305 58.8948 196.884 59.1586 196.314 59.2286L196.271 59.2341L196.229 59.2262L190.406 58.1467C189.729 59.0436 188.702 60.3514 187.695 61.5282C187.165 62.1475 186.638 62.7336 186.169 63.2055C185.707 63.6698 185.278 64.0474 184.948 64.2246C184.226 64.612 183.782 64.7959 183.426 64.8377C183.051 64.8818 182.788 64.7619 182.507 64.665C182.35 64.6106 182.134 64.4868 181.908 64.3427C181.674 64.1937 181.404 64.0068 181.129 63.809C180.627 63.4473 180.101 63.0432 179.735 62.7544C179.253 62.8393 178.523 62.9442 177.75 63.0085C176.912 63.0782 176.001 63.1023 175.3 62.9932C174.303 62.8379 173.743 61.9593 173.433 61.0243C173.119 60.0741 173.025 58.9599 173.025 58.1328C173.025 57.6879 173.144 57.1064 173.307 56.4829C173.472 55.8539 173.689 55.1542 173.9 54.4679C174.112 53.7778 174.316 53.1006 174.46 52.5033C174.605 51.8978 174.678 51.4079 174.649 51.0815C174.581 50.3332 174.276 48.4648 174.034 46.5671C173.914 45.6267 173.811 44.6856 173.763 43.8926C173.739 43.4961 173.729 43.1327 173.739 42.8224C173.748 42.5171 173.777 42.2442 173.839 42.0388C174.007 41.4832 174.184 41.0586 174.339 40.7512C174.491 40.4503 174.629 40.2472 174.726 40.1466L174.751 40.1201L174.783 40.101C175.724 39.5365 177.147 38.6499 178.356 37.8254C178.962 37.4127 179.509 37.0189 179.915 36.6903C180.119 36.5257 180.281 36.3815 180.397 36.2628C180.455 36.2034 180.497 36.1539 180.525 36.1146C180.55 36.0804 180.558 36.0626 180.56 36.0592C180.681 35.6516 180.795 35.3607 180.961 35.137C181.132 34.9045 181.341 34.7668 181.599 34.6316C181.624 34.6184 181.683 34.579 181.781 34.5037C181.875 34.4321 181.991 34.3378 182.125 34.2254C182.394 34.0006 182.728 33.7088 183.084 33.3921C183.794 32.7589 184.585 32.0314 185.096 31.5549L185.533 31.8903C185.432 32.0808 185.285 32.3738 185.173 32.6324C185.162 32.6579 185.153 32.6831 185.143 32.7072C185.225 32.6608 185.304 32.6117 185.366 32.5705L185.755 32.956C185.153 33.8697 184.266 35.3628 183.565 36.8652C183.214 37.6164 182.912 38.364 182.715 39.039C182.516 39.7204 182.432 40.3003 182.492 40.7272C182.811 43.0276 184.678 44.4304 185.991 44.6492C186.686 44.765 187.763 44.8621 188.916 44.7894C190.073 44.7166 191.283 44.4743 192.262 43.9286L192.387 43.859L192.516 43.9196C193.125 44.2047 194.178 44.6355 195.344 44.9944C196.514 45.3545 197.776 45.635 198.811 45.635C200.071 45.635 201.032 45.109 201.82 44.5182C202.219 44.219 202.558 43.9155 202.886 43.6451C203.198 43.3867 203.514 43.1456 203.826 43.0377C204.149 42.9257 204.484 42.9436 204.802 43.0151C205.118 43.0862 205.439 43.2155 205.745 43.3471C206.058 43.4823 206.352 43.618 206.645 43.7237C206.936 43.8286 207.2 43.8934 207.44 43.8934C208.311 43.8934 210.476 43.6469 211.548 43.5111C211.911 43.1559 212.43 42.618 212.879 42.0838C213.118 41.7998 213.334 41.5213 213.497 41.2748C213.666 41.0192 213.755 40.8293 213.776 40.7155C213.821 40.4715 213.935 40.1521 214.051 39.8172C214.172 39.4714 214.305 39.0854 214.408 38.6762C214.579 37.9982 214.657 37.2891 214.472 36.6347C214.414 36.4746 214.358 36.3292 214.307 36.2027L214.817 35.9746C214.895 36.1348 214.956 36.2978 215.004 36.4619C215.206 37.0213 215.432 37.7471 215.59 38.4873C215.794 39.4421 215.902 40.4836 215.651 41.2159C215.37 42.0367 215.075 42.7971 214.856 43.3905C214.745 43.6894 214.654 43.944 214.591 44.1466C214.524 44.3608 214.5 44.4822 214.5 44.5319Z" fill="black"/>
<path d="M220.073 47.6052C220.073 45.0731 219.145 42.6861 217.972 40.7228C216.798 38.7596 215.39 37.2396 214.461 36.4466L214.824 36.0215C215.798 36.8529 217.246 38.4193 218.451 40.436C219.657 42.4526 220.632 44.9392 220.632 47.6052C220.632 50.835 220.956 57.1301 218.906 63.0611C217.879 66.0324 216.255 68.9226 213.689 71.298C211.123 73.6745 207.628 75.5235 202.881 76.4306C193.399 78.2425 186.776 75.7857 182.398 72.68C178.029 69.5811 175.909 65.8411 175.426 65.1405C174.616 63.9672 173.742 61.8552 173.407 60.9554L173.931 60.7606C174.265 61.6584 175.119 63.7126 175.886 64.8234C176.387 65.5505 178.45 69.1944 182.721 72.224C186.982 75.2469 193.453 77.6633 202.776 75.8817C207.431 74.9921 210.828 73.1862 213.31 70.8879C215.793 68.5883 217.374 65.7835 218.378 62.8785C220.39 57.0569 220.073 50.8733 220.073 47.6052Z" fill="black"/>
<path d="M133.251 52.1821C139.511 48.9014 145.42 49.5191 150.165 51.319C154.903 53.1162 158.492 56.0948 160.144 57.5576C162.782 59.8929 164.153 61.5234 164.519 62.067L164.648 62.258L164.485 62.4206C163.955 62.9509 163.154 63.8106 162.479 64.6624C162.142 65.0886 161.84 65.5077 161.619 65.8791C161.392 66.2613 161.274 66.5555 161.261 66.7424C161.215 67.3761 161.216 68.324 161.192 69.3629C161.169 70.3906 161.123 71.4973 160.983 72.4123C160.829 73.4122 160.139 74.1468 159.442 74.7801C159.078 75.1117 158.736 75.3942 158.399 75.7108C158.073 76.0187 157.792 76.3232 157.593 76.6478C156.935 77.7219 156.824 79.0765 156.853 79.6088L156.862 79.7717L154.604 81.2124C154.217 81.677 153.646 82.391 153.161 83.0623C152.912 83.4061 152.689 83.7346 152.524 84.0105C152.442 84.1486 152.377 84.2698 152.331 84.3704C152.282 84.4757 152.264 84.5406 152.26 84.5712C152.21 84.9718 151.98 85.8416 151.606 86.6992C151.418 87.1305 151.19 87.5677 150.924 87.9461C150.659 88.3221 150.346 88.6565 149.982 88.8618L149.862 88.9298L149.735 88.8755C149.357 88.7143 148.762 88.4156 148.189 88.0373C147.668 87.693 147.135 87.2626 146.817 86.7887C146.416 86.7378 145.657 86.6394 145.014 86.5475C144.604 86.489 144.157 86.2935 143.778 86.0883C143.492 85.9333 143.23 85.7647 143.034 85.6255C142.687 85.9004 142.207 86.2636 141.724 86.5895C141.44 86.7809 141.152 86.9621 140.889 87.1063C140.63 87.2476 140.375 87.3647 140.161 87.4122C139.857 87.4798 139.483 87.3812 139.133 87.2528C138.767 87.1189 138.356 86.924 137.951 86.7328C137.541 86.5387 137.135 86.3471 136.761 86.2073C136.38 86.0651 136.068 85.9907 135.839 86.0034C135.665 86.0131 135.388 86.1029 135.026 86.2727C134.674 86.4383 134.273 86.6649 133.862 86.918C133.042 87.4241 132.204 88.0245 131.684 88.4223L131.533 88.5385L131.369 88.4392C130.586 87.9631 129.382 87.1684 128.312 86.3276C127.778 85.9073 127.271 85.4717 126.866 85.0555C126.468 84.6462 126.142 84.2303 126.002 83.8487C125.842 83.4124 125.438 81.6293 125.113 79.1215C124.786 76.6032 124.535 73.328 124.691 69.8977C125.002 63.0638 126.934 55.4921 133.251 52.1821ZM149.967 51.8415C145.332 50.0833 139.595 49.4882 133.51 52.677C127.481 55.8364 125.559 63.1173 125.249 69.923C125.095 73.3126 125.343 76.5542 125.667 79.0497C125.992 81.5557 126.39 83.2839 126.527 83.6563C126.624 83.9216 126.879 84.2672 127.267 84.6656C127.648 85.0574 128.133 85.4759 128.658 85.888C129.635 86.6561 130.731 87.3877 131.498 87.8621C132.032 87.4612 132.806 86.9132 133.569 86.4425C133.989 86.1835 134.41 85.9451 134.789 85.7671C135.158 85.5936 135.519 85.4615 135.808 85.4454C136.158 85.426 136.562 85.5364 136.956 85.6836C137.357 85.8332 137.785 86.0357 138.19 86.2274C138.602 86.422 138.988 86.6048 139.325 86.7281C139.677 86.857 139.911 86.8953 140.04 86.8665C140.174 86.8368 140.372 86.7518 140.621 86.616C140.863 86.4831 141.136 86.3121 141.411 86.1262C141.962 85.7545 142.513 85.3319 142.851 85.0572L143.023 84.9177L143.198 85.0528C143.374 85.189 143.689 85.4043 144.044 85.5969C144.404 85.792 144.782 85.95 145.093 85.9944C145.452 86.0457 145.847 86.0991 146.196 86.145L147.018 86.2512L147.155 86.2681L147.224 86.3876C147.46 86.7927 147.948 87.2082 148.497 87.571C148.975 87.8864 149.471 88.144 149.822 88.303C150.045 88.1488 150.262 87.9163 150.467 87.625C150.705 87.2865 150.916 86.885 151.094 86.476C151.452 85.6533 151.664 84.8361 151.705 84.5019C151.72 84.3857 151.767 84.2588 151.823 84.1379C151.88 84.0123 151.956 83.8722 152.044 83.7243C152.221 83.4282 152.455 83.0847 152.708 82.7349C153.214 82.0345 153.809 81.2921 154.202 80.8219L154.23 80.7889L156.291 79.4729C156.287 78.7963 156.44 77.4597 157.117 76.3559C157.354 75.9688 157.676 75.6245 158.016 75.304C158.347 74.9923 158.737 74.6664 159.067 74.3667C159.759 73.7375 160.309 73.1177 160.43 72.3272C160.565 71.4516 160.611 70.3771 160.634 69.3503C160.656 68.3347 160.657 67.3543 160.703 66.7025C160.727 66.3753 160.907 65.9838 161.139 65.5934C161.377 65.1922 161.696 64.7515 162.041 64.3153C162.665 63.5285 163.389 62.7393 163.923 62.195C163.441 61.558 162.128 60.0603 159.774 57.9761C158.138 56.5276 154.61 53.6026 149.967 51.8415Z" fill="black"/>
<path d="M97.4708 -0.519601C104.85 -4.29715 113.689 -6.69961 121.236 -4.39113C125.034 -3.22927 128.512 -0.17484 130.176 3.42123C131.847 7.03335 131.695 11.2183 128.177 14.5559C121.251 21.1267 112.286 20.7617 106.172 20.587C99.9734 20.4099 94.1886 17.4023 91.6756 13.7226L91.6677 13.7111L91.6612 13.6991C90.7378 12.0097 90.7083 9.21497 91.6271 6.49139C92.5503 3.75451 94.4502 1.02669 97.4708 -0.519601ZM121.073 -3.85661C113.733 -6.10168 105.058 -3.7755 97.7256 -0.0221876C94.8617 1.44389 93.044 4.03954 92.1567 6.6701C91.2672 9.30703 91.3314 11.9172 92.1452 13.4192C94.5406 16.9149 100.134 19.8555 106.188 20.0285C112.334 20.2041 121.058 20.5397 127.792 14.1504C131.105 11.0079 131.259 7.093 129.668 3.65589C128.071 0.202743 124.718 -2.74164 121.073 -3.85661Z" fill="black"/>
<path d="M110.984 15.1255C110.984 14.9455 111.027 14.6934 111.086 14.4227C111.146 14.1454 111.229 13.8261 111.32 13.5018C111.502 12.8528 111.72 12.172 111.866 11.7424L112.395 11.922C112.252 12.3446 112.037 13.0157 111.858 13.653C111.768 13.9717 111.689 14.2794 111.632 14.5416C111.573 14.8104 111.543 15.0109 111.543 15.1255V17.0151L111.511 17.0765C111.324 17.4279 111.042 17.9766 110.803 18.4792C110.684 18.7308 110.576 18.9679 110.497 19.1616C110.412 19.3694 110.376 19.4906 110.372 19.53C110.343 19.8157 110.434 20.1483 110.483 20.2727L109.963 20.4773C109.897 20.3086 109.775 19.8819 109.816 19.4743C109.829 19.3404 109.901 19.1437 109.98 18.9501C110.065 18.7426 110.177 18.4948 110.299 18.2391C110.529 17.7558 110.796 17.2332 110.984 16.8765C110.984 16.4828 110.984 15.6801 110.984 15.1255Z" fill="black"/>
<path d="M14.6812 55.3185C17.6493 53.0924 27.0951 45.891 38.5666 48.8216C50.0607 51.7581 52.44 61.5939 51.5047 66.1001C50.5725 70.5919 46.3452 75.4066 40.008 75.9136C35.0031 76.314 31.2332 75.2489 29.9452 74.6478L30.1815 74.1417C31.3741 74.6982 35.0461 75.7498 39.9636 75.3564C46.0294 74.8711 50.0708 70.2596 50.9577 65.9866C51.8415 61.7279 49.5904 52.2149 38.4282 49.3632C27.2434 46.5058 18.0019 53.5264 15.0165 55.7655C13.878 56.6194 13.5039 57.4766 13.4599 58.1759C13.4151 58.8876 13.709 59.483 13.9868 59.8062L13.5627 60.1704C13.2063 59.7556 12.8467 59.021 12.9022 58.1407C12.9584 57.2477 13.4384 56.2506 14.6812 55.3185Z" fill="black"/>
<path d="M0.980469 58.8246C3.04158 58.3759 6.52728 58.1308 10.3252 58.8393C14.1255 59.5483 18.2559 61.2153 21.5807 64.6072C25.6642 68.7731 28.5386 71.9121 29.8345 74.9464C30.4871 76.4744 30.7425 77.9808 30.554 79.5798C30.366 81.1748 29.7383 82.845 28.6509 84.7062C26.4343 88.4998 22.2713 90.1325 17.4966 90.5182C12.7189 90.9042 7.26885 90.0487 2.37694 88.805L2.51445 88.2634C7.37959 89.5002 12.7617 90.3399 17.4516 89.9611C22.1446 89.5819 26.0853 87.9898 28.1685 84.4243C29.2309 82.6058 29.8228 81.0097 29.999 79.5143C30.1749 78.0229 29.9392 76.6145 29.3205 75.1658C28.0737 72.2467 25.2841 69.1839 21.1815 64.9984C17.9574 61.7092 13.9429 60.0825 10.2229 59.3886C6.5004 58.6941 3.08997 58.9372 1.09943 59.3706L0.980469 58.8246Z" fill="black"/>
</g>
<defs>
<clipPath id="clip0_20_62">
<rect width="302" height="100" fill="white" transform="translate(0.980469 0.236572)"/>
</clipPath>
</defs>
</svg>
