<svg width="830" height="431" viewBox="0 0 830 431" fill="none" xmlns="http://www.w3.org/2000/svg">
<g clip-path="url(#clip0_20_75)">
<rect width="830" height="431" transform="translate(0 -0.00537109)" fill="#F0F4F4"/>
<path d="M632.514 166.829C628.167 173.431 619.713 188.374 620.679 195.331C621.886 204.026 628.93 209.366 634.03 210.216C639.131 211.067 649.757 211.633 657.124 207.525C661.563 209.603 672.369 213.758 680.076 213.758C689.71 213.758 694.669 205.683 698.353 204.408C702.036 203.133 706.853 207.525 710.962 207.525C714.249 207.525 722.438 206.58 726.122 206.108C728.766 203.551 734.169 197.816 734.622 195.331C735.189 192.223 739.439 184.714 736.464 178.622C738.112 182.672 741.007 191.942 739.404 196.618C737.4 202.463 735.228 207.402 735.228 208.809C735.228 210.216 736.732 213.235 735.98 215.156C735.379 216.692 728.493 222.755 725.125 225.594L718.832 241.272C716.774 243.051 712.094 246.671 709.834 246.922C707.009 247.236 701.778 246.713 696.128 247.759C690.478 248.805 687.026 255.292 682.004 257.489C677.986 259.247 673.006 260.174 671.018 260.418L649.57 256.443C644.77 262.838 634.133 276.186 629.987 278.41C624.805 281.191 624.244 280.678 622.051 279.922C620.297 279.317 614.667 275.033 612.071 272.967C608.732 273.586 600.861 274.64 596.085 273.896C590.116 272.967 588.789 263.301 588.789 257.489C588.789 251.677 595.084 237.546 594.595 232.161C594.105 226.776 590.189 205.024 591.657 200.177C592.832 196.3 594.105 194.316 594.595 193.809C601.35 189.756 615.032 181.073 615.715 178.769C616.568 175.89 617.198 175.176 618.939 174.262C620.331 173.53 628.007 166.513 631.671 163.096C630.931 164.489 629.517 167.393 629.778 167.863C630.039 168.333 631.711 167.369 632.514 166.829Z" stroke="black" stroke-width="2"/>
<path d="M736.738 179.112C743.55 184.926 757.175 201.205 757.175 219.81C757.175 243.066 761.756 309.135 694.454 321.996C627.152 334.857 600.725 287.112 597.201 282.003C594.382 277.915 591.287 270.46 590.092 267.243" stroke="black" stroke-width="2"/>
<path d="M544.682 288.232C544.945 284.551 552.679 275.962 556.513 272.128C555.273 270.285 550.437 264.515 541.021 256.179C529.251 245.759 490.081 213.922 445.895 237.076C401.708 260.231 418.302 343.394 420.425 349.183C422.123 353.814 433.66 361.726 439.217 365.103C442.977 362.226 451.325 356.425 454.64 356.241C458.783 356.011 466.84 361.996 469.947 361.305C472.434 360.753 477.966 356.624 480.422 354.629C481.764 355.665 485.095 357.829 487.673 358.197C490.251 358.566 493.351 358.965 494.579 359.118C496.513 362.433 502.214 365.487 504.823 366.599C509.312 364.067 512.146 354.618 512.474 351.989C512.737 349.886 518.39 342.678 521.184 339.336L528.907 334.407C528.798 332.38 529.203 327.308 531.701 323.233C534.823 318.139 542.71 314.852 543.696 308.444C544.682 302.035 544.353 292.833 544.682 288.232Z" stroke="black" stroke-width="2"/>
<path d="M317.83 48.4586C296.769 59.24 291.219 86.5626 297.459 97.978C306.234 110.828 326.606 121.484 348.545 122.111C370.484 122.738 402.139 123.991 426.585 100.799C451.031 77.6061 428.779 42.8171 402.139 34.6684C375.499 26.5196 344.157 34.9818 317.83 48.4586Z" stroke="black" stroke-width="2"/>
<path d="M369.841 91.7764C368.807 94.8265 366.739 101.454 366.739 103.563C366.739 105.672 366.739 108.785 366.739 110.077C365.395 112.61 362.676 117.987 362.552 119.227C362.428 120.468 362.809 121.827 363.016 122.351" stroke="black" stroke-width="2"/>
<path d="M17.8193 264.13C15.5494 261.489 13.1405 254.608 21.6637 248.216C32.3176 240.225 65.7591 214.774 106.303 225.132C146.848 235.49 155.134 270.116 151.879 285.801C148.623 301.486 133.826 318.355 111.63 320.13C93.8737 321.551 80.5562 317.763 76.1171 315.691" stroke="black" stroke-width="2"/>
<path d="M-27.7588 260.941C-13.2576 257.785 21.6045 257.449 45.0434 281.362C74.3421 311.252 85.588 325.753 70.1989 352.092C54.8098 378.431 12.194 375.176 -22.7274 366.297" stroke="black" stroke-width="2"/>
</g>
<defs>
<clipPath id="clip0_20_75">
<rect width="830" height="431" fill="white" transform="translate(0 -0.00537109)"/>
</clipPath>
</defs>
</svg>
