<svg width="19" height="19" viewBox="0 0 19 19" fill="none" xmlns="http://www.w3.org/2000/svg">
<path d="M3.89462 8.45275C3.96135 8.41367 4.04883 8.45546 4.11532 8.51281C4.13615 8.5306 4.1256 8.61011 4.13998 8.62597C4.16812 8.65689 4.19432 8.61789 4.22212 8.65472C4.23134 8.66731 4.21987 8.79326 4.22953 8.80358C4.28246 8.85924 4.33255 8.82716 4.38617 8.85394C4.65032 8.98603 4.90996 9.03331 5.17734 9.09069C5.2655 9.1095 5.37267 9.22381 5.46373 9.17382C5.47436 9.16787 5.46802 9.05732 5.47005 9.04821C5.50177 8.90872 5.49122 9.1319 5.51193 9.16155C5.59414 9.27863 5.68555 9.28881 5.76466 9.24615C5.79832 9.22767 5.76457 9.00809 5.79846 9.13134C5.80082 9.13967 5.79228 9.25706 5.80151 9.26958C5.82244 9.29775 5.86215 9.27676 5.87837 9.28606C5.90964 9.30458 5.91481 9.3034 5.94438 9.30474C5.98481 9.30759 6.03289 9.36595 6.07627 9.33935C6.08553 9.33332 6.07327 9.21298 6.08804 9.1925C6.10281 9.17205 6.14191 9.18226 6.15509 9.21062C6.16827 9.23901 6.16266 9.3336 6.16499 9.35528C6.18419 9.53827 6.22941 9.28482 6.23523 9.27856C6.34132 9.17176 6.4323 9.31614 6.53189 9.31573C6.60749 9.31511 6.68833 9.26744 6.76027 9.27398C6.84597 9.28223 6.91861 9.34745 7.00186 9.33624C7.01065 9.33519 7.00036 9.19369 7.01109 9.19213C7.12511 9.17567 7.23833 9.19109 7.35186 9.28661C7.36324 9.29632 7.34857 9.42055 7.35995 9.43768C7.42959 9.53977 7.53978 9.78503 7.58115 9.24413C7.62832 9.26525 7.68559 9.28708 7.7278 9.39611C7.75501 9.46629 7.72858 9.60163 7.762 9.54388C7.76954 9.53101 7.75974 9.41249 7.77105 9.40215C7.81865 9.35876 7.87065 9.39729 7.91774 9.33605C7.92732 9.32332 7.9247 9.21712 7.92742 9.19799C7.95022 9.04311 7.98819 9.29914 7.99647 9.31774C8.0595 9.45647 8.10553 9.40188 8.16424 9.40527C8.17787 9.40611 8.16176 9.26346 8.17488 9.25915C8.24288 9.2387 8.31332 9.25096 8.3799 9.31426C8.39471 9.32869 8.38109 9.4502 8.38817 9.46331C8.41938 9.51964 8.42629 9.29013 8.45622 9.33971C8.46253 9.34987 8.45898 9.4539 8.46013 9.46532C8.47814 9.64467 8.4938 9.39055 8.49843 9.38494C8.55704 9.30828 8.5945 9.57357 8.65112 9.536C8.65789 9.53124 8.64262 9.39962 8.66166 9.39428C8.78851 9.35794 8.92267 9.3941 9.04823 9.49938C9.06775 9.51557 9.05381 9.61445 9.05504 9.62664C9.07506 9.81709 9.08802 9.56191 9.09438 9.5523C9.1446 9.48312 9.19151 9.69712 9.22563 9.39318C9.43831 9.49866 9.65001 9.32798 9.86093 9.60027C9.86361 9.60343 9.8588 9.7291 9.86415 9.73485C9.92858 9.80542 9.91621 9.6101 9.95883 9.37121C9.96957 9.31122 10.0022 9.59964 10.0051 9.62078C10.0157 9.69869 10.0047 9.88566 10.0083 9.90075C10.0374 10.0192 10.0327 9.40089 10.072 9.40069C10.0733 9.40172 10.0681 9.51553 10.0714 9.52685C10.0817 9.56238 10.0918 9.51715 10.1019 9.55633C10.1249 9.64698 10.1331 9.94744 10.1682 9.77257C10.1726 9.74988 10.1658 9.39913 10.201 9.4157C10.215 9.42261 10.277 9.41659 10.2944 9.43932C10.3117 9.46203 10.2998 9.57505 10.3011 9.57995C10.3478 9.72941 10.3301 9.79135 10.3535 10.0126C10.377 10.2331 10.3705 9.7073 10.38 9.64861C10.3896 9.5901 10.4239 9.71341 10.4323 9.75628C10.4407 9.79916 10.4302 9.87099 10.4377 9.89525C10.4874 10.0538 10.4595 9.63428 10.4759 9.55083C10.5145 9.35325 10.5445 9.74316 10.5798 9.78136C10.5894 9.79168 10.5816 9.70288 10.5901 9.69457C10.6238 9.66286 10.6441 9.78452 10.6824 9.67297C10.6887 9.65479 10.7197 9.42036 10.7397 9.5924C10.7426 9.61721 10.7345 9.71437 10.7489 9.73614C10.7703 9.7688 10.809 9.79004 10.832 9.75756C10.8491 9.73353 10.8296 9.57342 10.851 9.62316C10.8605 9.64537 10.8429 9.73903 10.8608 9.77294C10.8786 9.80684 10.9241 9.80272 10.9414 9.79949C10.9587 9.79619 10.9492 9.67474 10.9506 9.66656C10.9591 9.61969 10.9923 9.56113 10.9952 9.56127C11.1431 9.54645 11.2795 9.75116 11.4235 9.6834C11.4348 9.67826 11.4272 9.55019 11.429 9.54809C11.4676 9.49443 11.4371 9.83493 11.4642 9.9489C11.4603 9.68902 11.4762 9.73607 11.5035 9.70757C11.5166 9.69363 11.5094 9.593 11.5106 9.58269C11.5301 9.42985 11.5437 9.62727 11.5472 9.66766C11.5601 9.81622 11.5741 9.64068 11.5829 9.73998C11.5916 9.83854 11.5715 9.98465 11.5976 9.98278C11.6049 9.88975 11.5855 9.64663 11.6054 9.60723C11.6802 9.45819 11.82 9.64894 11.8802 9.66875C11.9402 9.68855 11.9596 9.67139 11.9947 9.70501C12.0579 9.7658 12.0347 9.58542 12.074 9.50286C12.1134 9.42031 12.0942 9.86412 12.0999 9.95952C12.1054 10.0549 12.1115 9.95672 12.1184 10.0091C12.1253 10.0616 12.1104 10.1264 12.1266 10.1461C12.1428 10.1658 12.1871 9.99611 12.1929 9.89635C12.205 9.68501 12.185 9.46319 12.2279 9.54113C12.2304 9.54576 12.2224 9.66245 12.2318 9.67425C12.3069 9.76409 12.3848 9.76965 12.4598 9.84911C12.4701 9.86022 12.4609 9.99004 12.4669 9.99798C12.5293 10.081 12.507 9.86212 12.5412 9.61895C12.5335 9.94255 12.5525 10.1405 12.5999 10.1424C12.6284 10.1437 12.6235 10.0024 12.6419 9.90276C12.6474 9.87273 12.6676 9.96978 12.6712 9.90331C12.6833 9.68604 12.6643 9.44282 12.7132 9.53966C12.7153 9.54427 12.7085 9.6632 12.7159 9.6704C12.7638 9.71755 12.7695 9.49028 12.8213 9.46276C12.8619 9.44117 12.9341 9.57975 12.9803 9.60229C12.9793 9.96611 13.0229 9.8828 13.0406 9.63195C13.0706 9.64222 13.103 9.62804 13.132 9.66271C13.142 9.67453 13.1354 9.77987 13.1367 9.79125C13.156 9.9698 13.169 9.72575 13.1755 9.71618C13.2456 9.62317 13.3028 9.80814 13.3697 9.62737C13.3721 9.62086 13.376 9.36814 13.3939 9.55267C13.395 9.56539 13.3729 9.68037 13.4044 9.68926C13.4359 9.69817 13.4953 9.83365 13.539 9.71654C13.5496 9.68835 13.5764 9.48319 13.5978 9.64349C13.6007 9.66525 13.5976 9.73773 13.6017 9.77807C13.6151 9.90659 13.6224 9.65115 13.638 9.86816C13.6537 10.0852 13.6864 10.2477 13.7305 10.098C13.7319 10.0936 13.7423 9.89114 13.7562 9.89434C13.7784 9.89962 13.8098 9.9418 13.8329 9.94048C13.844 9.93978 13.8369 9.81406 13.8388 9.81176C13.9132 9.74131 13.9662 9.85339 14.0459 9.90203C14.0605 9.9112 14.1025 9.73976 14.1308 9.8753C14.1619 10.0237 14.13 10.6409 14.2014 10.4938C14.2302 10.435 14.2666 9.65198 14.3184 10.0577C14.4188 9.95714 14.5116 10.1648 14.6123 10.0212C14.6168 10.0149 14.6311 9.79633 14.6418 9.79931C14.6576 9.80415 14.6663 9.90629 14.6775 9.91302C14.7248 9.94378 14.7681 9.85639 14.8136 9.86999C14.831 9.87493 14.8249 9.98054 14.8455 9.98644C14.8662 9.99225 14.8799 9.85317 14.9079 9.92034C14.929 9.97154 14.9501 10.2558 14.9781 10.2889C14.9792 10.0085 14.9984 10.0143 15.0326 9.9403C15.0392 9.92594 15.0321 9.82835 15.0353 9.81652C15.0479 9.76622 15.0596 9.8471 15.0716 9.79235C15.0746 9.7792 15.0747 9.68344 15.0771 9.66729C15.0974 9.52627 15.1309 9.74166 15.1367 9.77917C15.1587 9.92159 15.169 9.79705 15.1859 9.85314C15.2028 9.90922 15.1775 9.97933 15.1973 10.0134C15.2381 10.0837 15.2906 10.0683 15.3321 10.0727C15.3487 10.0738 15.3374 9.94603 15.3398 9.94323C15.374 9.91081 15.4086 10.0468 15.4276 9.79217C15.4514 10.4505 15.4483 9.72831 15.4972 9.8601C15.5011 9.87076 15.506 10.1821 15.4912 10.2278C15.4764 10.2734 15.4539 10.1761 15.4334 10.2474C15.4285 10.2641 15.4007 10.5558 15.3969 10.5735C15.3671 10.7116 15.3629 10.2464 15.3613 10.2208C15.3434 9.94507 15.3094 10.2593 15.3004 10.2811C15.2594 10.3806 15.2246 10.3151 15.1903 10.3862C15.1678 10.4321 15.1656 10.7368 15.148 10.7275C15.0894 10.6966 15.069 10.2715 15.0138 10.6401C15.002 10.7187 15.0137 11.0518 14.9713 10.7899C14.9687 10.7734 14.9372 10.5338 14.919 10.6854C14.9167 10.7045 14.9168 10.8015 14.9138 10.8097C14.8936 10.8624 14.8801 10.7851 14.8581 10.8221C14.8361 10.8592 14.8097 10.9144 14.7846 10.8815C14.7694 10.8618 14.75 10.6809 14.7428 10.6366C14.7223 10.5091 14.7004 10.7182 14.6877 10.5638C14.6749 10.4085 14.6999 10.1728 14.6664 10.0725C14.6652 10.3247 14.6623 10.5835 14.6603 10.8371C14.5869 10.8283 14.5146 10.7467 14.4409 10.7579C14.4318 10.7595 14.4411 10.8951 14.4314 10.9003C14.39 10.9219 14.3539 10.8252 14.3111 10.8637C14.2779 10.894 14.2416 11.0376 14.2069 11.0737C14.1857 10.7851 14.1342 10.8831 14.0968 10.8567C14.0838 10.8476 14.0846 10.7706 14.0753 10.7454C14.0402 10.6524 14.0566 10.9074 14.047 10.9476C14.0057 11.1188 14.0021 10.5416 13.9534 10.5559C13.9508 10.5565 13.9193 10.8641 13.9149 10.8833C13.8873 11.0082 13.9104 10.7762 13.8931 10.7535C13.8615 10.7119 13.8396 10.6384 13.8026 10.7286C13.7918 10.7553 13.7659 10.947 13.7449 10.7987C13.7422 10.7793 13.7437 10.6776 13.7415 10.6716C13.7013 10.5723 13.7003 10.8919 13.6773 11.0001C13.6543 11.1083 13.6189 10.8877 13.6117 10.8241C13.5928 10.6597 13.6261 10.7539 13.6271 10.7377C13.6392 10.5457 13.6133 10.5787 13.5935 10.5625C13.5907 10.2492 13.563 10.268 13.573 10.5469C13.5742 10.5774 13.5896 10.5482 13.5935 10.5625C13.5762 10.8699 13.5458 10.9093 13.5123 10.622C13.4965 10.4874 13.5114 10.3304 13.4637 10.3878C13.442 10.4137 13.4504 10.6295 13.4313 10.6883C13.3876 10.8225 13.3309 10.6212 13.2859 10.6529C13.2696 10.6645 13.2855 10.7825 13.2743 10.7945C13.2447 10.8265 13.2186 10.7379 13.1888 10.7833C13.1861 10.7876 13.1927 10.9112 13.1835 10.9128C13.1133 10.9271 13.0523 10.8479 12.979 10.8458C12.9437 10.8447 12.8804 10.9129 12.8437 10.8992C12.7802 10.8762 12.7021 10.6964 12.6478 10.7401C12.6124 10.7681 12.6202 10.8917 12.605 10.9759C12.5757 11.1392 12.5239 10.8467 12.517 10.8014C12.5168 10.7999 12.5472 10.7708 12.531 10.7073C12.5215 10.5751 12.5173 10.8009 12.517 10.8014C12.5124 10.7722 12.4515 10.7441 12.4395 10.7677C12.4329 10.7807 12.4366 10.8978 12.4331 10.9023C12.3518 11.0072 12.2703 11.0369 12.1878 10.9822C12.1863 10.9798 12.1885 10.8488 12.1851 10.8448C12.1373 10.7866 12.1067 10.9469 12.0673 11.042C12.028 11.1372 11.9967 11.1053 11.9734 10.8804C11.9437 10.9087 11.901 10.8092 11.8765 10.7489C11.852 10.6885 11.8485 10.9436 11.8464 10.9487C11.779 11.1101 11.7401 10.9641 11.6702 10.9413C11.637 10.9301 11.5711 10.9671 11.5352 10.995C11.5067 11.0175 11.4896 10.9577 11.4634 10.9959C11.4599 11.001 11.4635 11.1146 11.4624 11.1189C11.4332 11.2548 11.4472 10.9772 11.4412 10.9276C11.4193 10.7473 11.4058 10.6512 11.3684 10.7361C11.3597 10.7555 11.3346 11.1553 11.3188 11.1786C11.2984 11.2083 11.3061 11.065 11.2847 11.0997C11.2828 11.1026 11.2832 11.191 11.27 11.1871C11.2086 11.1701 11.1417 11.1187 11.0779 11.1276C11.0692 11.1284 11.0804 11.2686 11.0678 11.2722C11.0087 11.2888 10.944 11.2836 10.8864 11.218C10.8723 11.2014 10.8811 11.1032 10.8781 11.0741C10.8592 10.8977 10.8324 11.154 10.828 11.1589C10.7226 11.282 10.642 11.0501 10.5346 11.1605C10.5288 11.167 10.4838 11.4417 10.4637 11.2061C10.4623 11.1904 10.4425 10.9494 10.4249 11.1142C10.4238 11.1245 10.4362 11.2486 10.4146 11.2359C10.393 11.2233 10.3582 11.3062 10.3285 11.1698C10.3191 11.1269 10.2969 10.8864 10.2689 11.0781C10.2671 11.0915 10.2238 11.5249 10.2083 11.2259C10.2058 11.1767 10.2085 10.8602 10.175 11.0224C10.1686 11.0539 10.1802 11.1245 10.1634 11.1686C10.1376 11.2365 10.1034 11.1517 10.0716 11.2927C10.0661 11.3177 10.0426 11.5325 10.0237 11.3694C10.0207 11.3439 10.0263 11.2383 10.0163 11.2264C9.9689 11.1697 9.91923 11.2404 9.87106 11.1673C9.854 11.1416 9.86272 10.9708 9.84494 10.925C9.82715 10.8793 9.79131 10.8353 9.7727 10.9133C9.75409 10.9914 9.77442 11.2636 9.74654 11.2854C9.6253 11.38 9.5052 11.2203 9.38414 11.1969C9.36618 11.1935 9.38107 11.2909 9.35461 11.2927C9.25705 11.3 9.08863 11.3913 9.00398 11.1843C8.93615 11.0185 9.02151 10.8923 8.96968 10.8249C8.94467 10.7927 8.91761 11.1092 8.91157 11.1191C8.85259 11.2203 8.8116 11.0801 8.75852 11.1232C8.74756 11.1321 8.75831 11.2603 8.74898 11.2665C8.71711 11.2888 8.68362 11.2315 8.65316 11.242C8.6395 11.247 8.64202 11.3449 8.62945 11.3374C8.59937 11.3204 8.57277 11.2792 8.54345 11.1874C8.54078 11.1791 8.5588 11.0572 8.53655 11.0527C8.50053 11.0457 8.45582 10.9551 8.41438 11.0486C8.40209 11.0768 8.40161 11.3007 8.37518 11.146C8.36963 11.1137 8.37671 10.8449 8.34592 11.0772C8.34074 11.1158 8.28903 11.4291 8.26365 11.2272C8.25695 11.174 8.23986 10.954 8.22508 10.9886C8.22307 10.9941 8.2311 11.1144 8.21885 11.1261C8.17567 11.1653 8.13042 11.1525 8.08606 11.1902C8.07421 11.2005 8.09186 11.3249 8.0742 11.3363C8.02565 11.3677 7.96503 11.3361 7.91756 11.2971C7.90005 11.2825 7.91215 11.1794 7.91088 11.1682C7.8904 10.9857 7.87829 11.232 7.87149 11.2464C7.82921 11.3324 7.79702 11.2167 7.75805 11.2473C7.7473 11.2554 7.75492 11.3729 7.75278 11.3833C7.73058 11.4857 7.74712 11.2748 7.73307 11.2515C7.6937 11.1857 7.64981 11.1951 7.60999 11.2101C7.59537 11.2158 7.61181 11.352 7.59868 11.3555C7.521 11.379 7.44025 11.366 7.36444 11.2909C7.35017 11.2765 7.35915 11.1716 7.35618 11.1477C7.33567 10.9801 7.30562 11.2087 7.29871 11.2305C7.26727 11.3299 7.25505 11.2371 7.22729 11.2544C7.09166 11.3406 6.92419 11.2792 6.79616 11.2413C6.62932 11.1924 6.49986 11.0927 6.34076 11.1186C6.33065 11.1201 6.34085 11.2596 6.33213 11.2627C6.21959 11.2963 6.1088 11.2418 5.99604 11.2821C5.98679 11.2851 6.00012 11.4174 5.98527 11.4267C5.95481 11.4469 5.91622 11.4397 5.88542 11.3974C5.87039 11.3771 5.89054 11.2636 5.87542 11.2455C5.84021 11.2029 5.80247 11.1935 5.7663 11.2147C5.75091 11.224 5.77413 11.3593 5.75412 11.3608C5.61785 11.3742 5.48401 11.3975 5.34629 11.2224C5.33685 11.2104 5.32857 10.9355 5.3085 10.9882C5.30698 11.0645 5.30707 11.1542 5.30641 11.2358C5.10802 11.2797 4.91167 11.1844 4.71272 11.1697C4.70434 11.1691 4.71883 11.3147 4.70259 11.3143C4.6086 11.3122 4.51734 11.3525 4.4212 11.2077C4.41166 11.1936 4.41655 10.9374 4.38844 10.9761C4.38349 10.9832 4.34115 11.0174 4.3302 11.073C4.32871 11.0814 4.33644 11.201 4.3228 11.2045C4.24351 11.2226 4.16043 11.1953 4.08129 11.1222C4.06852 11.1102 4.08212 10.9829 4.07302 10.9732C4.00849 10.9056 3.93829 11.0024 3.87663 10.8868C3.83535 10.8089 3.85063 10.5888 3.8287 10.3721C3.82559 10.3415 3.80003 10.3366 3.79871 10.2106C3.79532 9.89352 3.8077 9.54636 3.80262 9.20843C3.80155 9.13564 3.76731 9.21404 3.78758 9.03814C3.789 9.02637 3.81382 8.96799 3.81993 8.90832C3.82418 8.86706 3.81652 8.73884 3.8252 8.68603C3.83388 8.63327 3.84342 8.74075 3.85782 8.67871C3.87221 8.61589 3.86588 8.47002 3.89462 8.45275ZM11.766 10.4792C11.7433 10.3567 11.7399 10.8053 11.7645 10.698C11.7657 10.6923 11.7672 10.4852 11.766 10.4792ZM14.515 10.4083C14.4853 10.2104 14.465 10.5014 14.486 10.6542C14.5069 10.8069 14.5241 10.4683 14.515 10.4083ZM14.8231 10.2638C14.7883 10.1078 14.7829 10.744 14.8201 10.6154C14.8222 10.6081 14.8251 10.2729 14.8231 10.2638ZM3.93041 10.3104C3.9301 10.3044 3.91173 10.2986 3.91129 10.3045C3.9015 10.447 3.93824 10.4585 3.93041 10.3104ZM15.1287 10.1066C15.1179 10.0205 15.0867 10.1198 15.1001 10.2269C15.111 10.3129 15.1422 10.2136 15.1287 10.1066ZM10.5808 10.0004C10.5804 9.99367 10.5672 9.98765 10.5675 10.0254C10.5684 10.1472 10.5867 10.1128 10.5808 10.0004ZM15.6482 10.0992C15.5714 10.0753 15.5249 9.54976 15.6085 9.60906C15.6236 9.61979 15.5759 9.77665 15.5951 9.82403C15.6304 9.91034 15.6538 9.58038 15.6898 9.75719C15.6963 9.78956 15.6526 10.1018 15.6481 10.1C15.6481 10.0997 15.6482 10.0995 15.6482 10.0992ZM11.7529 9.9403C11.7525 9.93437 11.7342 9.92874 11.7338 9.93462C11.7239 10.0771 11.7607 10.0885 11.7529 9.9403ZM9.81214 9.72295C9.81113 9.71031 9.76881 9.69849 9.76743 9.71014C9.74536 9.94305 9.83091 9.96764 9.81214 9.72295ZM12.981 9.61199C13.0009 9.4687 13.0247 9.45183 13.0405 9.63177C13.0208 9.62222 13.0009 9.62081 12.981 9.61199ZM12.2367 3.91831C12.3192 3.9455 12.3615 4.04692 12.3756 4.14209C12.3801 4.17178 12.3152 4.21934 12.3158 4.24237C12.3171 4.28734 12.3662 4.28129 12.363 4.33017C12.3616 4.34665 12.2632 4.42628 12.2638 4.44152C12.2679 4.52437 12.3318 4.54282 12.3569 4.60581C12.4805 4.9162 12.6603 5.16294 12.8394 5.42316C12.8985 5.50889 12.9057 5.67776 13.0159 5.71722C13.0288 5.72174 13.1018 5.63837 13.1099 5.63358C13.2346 5.56101 13.0681 5.71016 13.0642 5.74814C13.0489 5.89846 13.1168 5.98075 13.212 6.01557C13.2527 6.03016 13.3802 5.84717 13.3209 5.96216C13.317 5.96998 13.2269 6.04598 13.2257 6.06241C13.223 6.09952 13.2704 6.11731 13.2772 6.13721C13.2898 6.17599 13.2948 6.17941 13.3182 6.20465C13.3494 6.23987 13.3476 6.32064 13.4021 6.33746C13.4139 6.3408 13.489 6.24564 13.5156 6.24329C13.5422 6.24097 13.5671 6.2803 13.5578 6.31119C13.5486 6.34209 13.4771 6.40437 13.4637 6.42161C13.35 6.56678 13.5664 6.42472 13.5756 6.42506C13.7383 6.4367 13.7109 6.61353 13.7931 6.69505C13.8556 6.75672 13.9557 6.78943 14.0102 6.85314C14.0748 6.92939 14.0883 7.03517 14.1646 7.09564C14.1726 7.10212 14.2642 6.99361 14.2741 7.00132C14.3794 7.08334 14.4615 7.18726 14.4872 7.34807C14.4897 7.36429 14.3898 7.44008 14.3871 7.46153C14.3721 7.59094 14.2892 7.85489 14.7056 7.50639C14.7295 7.56008 14.7611 7.62256 14.7186 7.73433C14.6914 7.80631 14.574 7.88029 14.6423 7.86692C14.6576 7.86401 14.7333 7.77215 14.7499 7.77413C14.8197 7.78255 14.8352 7.85252 14.9172 7.8479C14.934 7.84676 15.007 7.76952 15.0227 7.75823C15.151 7.66745 15.0011 7.87968 14.9948 7.89963C14.9485 8.04951 15.0249 8.04872 15.0707 8.09935C15.0813 8.11114 15.169 7.99704 15.1828 8.00476C15.2531 8.04616 15.3023 8.1127 15.3122 8.21216C15.3142 8.23453 15.2171 8.30926 15.2136 8.32435C15.1994 8.38981 15.3674 8.23321 15.3569 8.29286C15.3549 8.30522 15.2785 8.37586 15.2713 8.38489C15.1593 8.5265 15.3519 8.35967 15.3596 8.35951C15.462 8.35345 15.3052 8.57181 15.3782 8.59176C15.3872 8.59396 15.4677 8.48834 15.4871 8.50021C15.5924 8.56382 15.6679 8.66504 15.7081 8.79562C15.7266 8.83538 15.7407 8.87652 15.7506 8.9187C15.7586 8.95314 15.6685 8.9997 15.6606 9.0093C15.5327 9.15301 15.7413 9.00567 15.756 9.00889C15.8627 9.03378 15.7186 9.20489 16.0081 9.09848C16.0785 9.38403 16.2416 9.64976 16.1421 9.93771C16.1173 10.0056 16.0762 10.0706 16.0147 10.1262C16.011 10.1297 15.8873 10.1066 15.8806 10.1132C15.7977 10.1896 15.9938 10.1994 16.2112 10.324C16.2649 10.3586 15.9719 10.3378 15.9509 10.3336C15.8718 10.3266 15.6965 10.2598 15.6806 10.2602C15.5576 10.2578 16.1505 10.4362 16.1271 10.5033C16.1255 10.5048 16.0213 10.4582 16.0088 10.4594C15.97 10.4623 16.0066 10.4934 15.9643 10.4937C15.8658 10.4952 15.5885 10.3803 15.7279 10.4947C15.7454 10.5103 16.0675 10.6517 16.0248 10.6988C16.0086 10.717 15.9607 10.8114 15.9249 10.823C15.89 10.8348 15.8068 10.7556 15.8014 10.7548C15.6386 10.7287 15.6026 10.671 15.4079 10.5628C15.2175 10.4492 15.6393 10.7629 15.6767 10.8104C15.7137 10.8585 15.586 10.8192 15.547 10.7982C15.5075 10.7782 15.4625 10.7206 15.4382 10.7115C15.282 10.6476 15.6116 10.9086 15.6556 10.9837C15.6734 11.0157 15.6777 11.035 15.6728 11.0447C15.6593 11.08 15.4478 10.9104 15.4017 10.912C15.3866 10.9126 15.4558 10.969 15.4546 10.9818C15.4494 11.032 15.3467 10.9626 15.3941 11.073C15.4018 11.091 15.5421 11.2822 15.404 11.177C15.3841 11.1618 15.322 11.0865 15.2948 11.0829C15.2541 11.0774 15.2073 11.0942 15.2113 11.1361C15.2143 11.1671 15.3436 11.2642 15.2908 11.2467C15.2673 11.2388 15.2156 11.1581 15.1769 11.1488C15.1383 11.1394 15.1038 11.1797 15.0919 11.1963C15.08 11.2128 15.1736 11.2909 15.1783 11.2978C15.2045 11.3379 15.2186 11.4066 15.2161 11.4089C15.1051 11.5409 14.8483 11.5081 14.7779 11.6744C14.7723 11.6873 14.869 11.7716 14.8691 11.7745C14.8753 11.8443 14.6595 11.5784 14.5567 11.5201C14.7437 11.7006 14.6973 11.6804 14.6951 11.723C14.6942 11.7436 14.7712 11.8089 14.7775 11.8172C14.8696 11.9413 14.7189 11.8128 14.6874 11.7871C14.5718 11.6927 14.6844 11.8283 14.607 11.7653C14.5301 11.7028 14.4433 11.5829 14.4232 11.6057C14.4829 11.6775 14.6708 11.8335 14.6824 11.8776C14.7262 12.0445 14.4766 12.0245 14.4131 12.0599C14.3497 12.0953 14.3459 12.1233 14.2934 12.1283C14.1985 12.1373 14.3451 12.2458 14.3712 12.3364C14.3972 12.4271 14.0991 12.0976 14.027 12.0348C13.955 11.9719 14.0194 12.0463 13.9767 12.0149C13.934 11.9835 13.9004 11.9254 13.8731 11.9248C13.8459 11.9242 13.9295 12.0806 13.9953 12.1558C14.1347 12.3153 14.308 12.4557 14.2176 12.4358C14.2124 12.4346 14.1364 12.3455 14.1203 12.3449C13.9951 12.343 13.9272 12.4031 13.8094 12.4085C13.7931 12.4091 13.7089 12.3097 13.6983 12.3091C13.5883 12.3017 13.7614 12.4381 13.9053 12.6382C13.6827 12.403 13.5272 12.2786 13.4869 12.3162C13.4626 12.3387 13.5666 12.4346 13.6219 12.5202C13.6386 12.546 13.5534 12.4939 13.5974 12.5439C13.7411 12.7074 13.9287 12.8638 13.8201 12.8355C13.815 12.834 13.7366 12.7443 13.7254 12.7453C13.6527 12.7513 13.8087 12.9167 13.7856 12.9787C13.7675 13.0273 13.6103 12.9886 13.5564 13.0106C13.2999 12.7526 13.323 12.8473 13.4858 13.0393C13.4539 13.0566 13.4373 13.0933 13.389 13.0926C13.3724 13.0924 13.3033 13.0125 13.2943 13.0055C13.1522 12.8951 13.314 13.0784 13.3155 13.0905C13.3236 13.2139 13.1459 13.13 13.2187 13.3128C13.2213 13.3194 13.3969 13.5013 13.2517 13.3855C13.2417 13.3774 13.1786 13.278 13.1464 13.2976C13.1143 13.3171 12.9697 13.2701 13.0166 13.3888C13.0278 13.4175 13.1509 13.5845 13.0199 13.4888C13.0021 13.4758 12.9535 13.422 12.9216 13.3968C12.8197 13.3169 12.9943 13.5036 12.828 13.363C12.6617 13.2225 12.5199 13.1344 12.5896 13.2765C12.5915 13.2807 12.7261 13.4324 12.7124 13.4416C12.6905 13.456 12.6348 13.452 12.6168 13.4719C12.6082 13.4815 12.7029 13.5646 12.703 13.5678C12.6916 13.6788 12.5689 13.643 12.469 13.6741C12.4505 13.6796 12.5372 13.8354 12.4181 13.7628C12.2877 13.6834 11.8775 13.2207 11.9228 13.3834C11.9407 13.4486 12.4645 14.0323 12.1351 13.7879C12.1237 13.9415 11.9006 13.8709 11.9194 14.0551C11.9202 14.0633 12.063 14.2296 12.0521 14.2363C12.0357 14.2458 11.9564 14.1807 11.9423 14.1852C11.8817 14.2023 11.908 14.2996 11.8609 14.3275C11.8432 14.3382 11.7735 14.2585 11.7524 14.2713C11.7314 14.2842 11.8184 14.3938 11.7479 14.3693C11.6944 14.3504 11.4761 14.1667 11.4296 14.1663C11.627 14.3655 11.6071 14.3772 11.6313 14.4576C11.6361 14.4732 11.7109 14.5364 11.7167 14.5473C11.7419 14.5933 11.6751 14.5457 11.7039 14.5943C11.7108 14.606 11.7784 14.6738 11.7879 14.6872C11.8709 14.8036 11.6911 14.6788 11.6598 14.657C11.541 14.5744 11.6206 14.671 11.567 14.6452C11.5135 14.6194 11.4847 14.5491 11.4444 14.5412C11.3611 14.525 11.3289 14.5791 11.2917 14.6101C11.2772 14.6229 11.3769 14.704 11.3769 14.7079C11.3717 14.7589 11.2471 14.6912 11.4116 14.8869C10.9266 14.4409 11.4398 14.949 11.3064 14.896C11.2957 14.8917 11.0715 14.6756 11.0513 14.6311C11.0312 14.5866 11.1185 14.637 11.085 14.5697C11.0771 14.5539 10.8937 14.3248 10.8844 14.3091C10.8112 14.187 11.1436 14.5125 11.163 14.5293C11.3726 14.7096 11.1784 14.4594 11.1704 14.4367C11.1337 14.3326 11.2086 14.3503 11.1866 14.2719C11.1725 14.221 10.9589 14.0037 10.9799 13.9958C11.0498 13.9695 11.3672 14.2533 11.1519 13.9473C11.1061 13.882 10.8609 13.6562 11.0809 13.8065C11.0948 13.816 11.2901 13.9596 11.1978 13.8375C11.1862 13.8221 11.1175 13.7535 11.1142 13.7453C11.0935 13.6914 11.1593 13.735 11.1511 13.6907C11.143 13.6465 11.1257 13.5857 11.1696 13.5884C11.196 13.5898 11.3398 13.7018 11.3771 13.7271C11.4841 13.8005 11.3542 13.6346 11.4738 13.7334C11.5941 13.8327 11.7403 14.0199 11.8387 14.0633C11.6614 13.884 11.4807 13.6986 11.303 13.5176C11.3696 13.4636 11.4867 13.4619 11.5393 13.3935C11.5457 13.3848 11.4421 13.2966 11.4464 13.2848C11.4652 13.2357 11.5631 13.2744 11.5711 13.212C11.5769 13.1633 11.5053 13.0319 11.5082 12.9778C11.7297 13.1645 11.7027 13.0529 11.7521 13.0409C11.7693 13.0366 11.823 13.0918 11.8485 13.1019C11.9431 13.1388 11.7492 12.972 11.7288 12.9357C11.6416 12.7806 12.0527 13.1859 12.0826 13.1358C12.0843 13.1333 11.8927 12.8898 11.8827 12.8727C11.8171 12.7616 11.9622 12.9446 11.9925 12.9465C12.0478 12.95 12.1177 12.9839 12.0844 12.8898C12.0744 12.862 11.9601 12.7052 12.0822 12.7928C12.0982 12.8043 12.1688 12.8775 12.1749 12.8798C12.2781 12.917 12.053 12.6902 11.9953 12.5948C11.9377 12.4995 12.1228 12.6263 12.1737 12.6653C12.3055 12.7661 12.2115 12.7269 12.2221 12.7392C12.348 12.8848 12.3459 12.8402 12.3736 12.8355C12.5975 13.0547 12.6069 13.0187 12.4014 12.8296C12.379 12.809 12.387 12.8423 12.3736 12.8355C12.1705 12.6038 12.1676 12.551 12.3983 12.7266C12.5064 12.8089 12.6052 12.9321 12.6038 12.8523C12.6032 12.8162 12.4438 12.6705 12.4179 12.6132C12.3589 12.4825 12.5478 12.5782 12.5623 12.5188C12.5676 12.4972 12.471 12.4268 12.4718 12.4092C12.4735 12.3622 12.5576 12.4034 12.5499 12.3469C12.5491 12.3416 12.4563 12.2596 12.4628 12.2509C12.5102 12.1831 12.6164 12.189 12.6781 12.1304C12.7079 12.102 12.7116 12.0018 12.7514 11.9814C12.8199 11.9455 13.0112 12.0084 13.0249 11.933C13.0342 11.8841 12.9404 11.8031 12.8933 11.731C12.8019 11.5915 13.0513 11.7558 13.089 11.7821C13.0903 11.783 13.0859 11.8286 13.1441 11.8601C13.2454 11.9459 13.0892 11.7828 13.089 11.7821C13.1135 11.799 13.1833 11.7689 13.1765 11.7422C13.1728 11.7277 13.0869 11.6479 13.0866 11.6419C13.0793 11.5009 13.1252 11.4129 13.2317 11.3839C13.2345 11.3844 13.3254 11.4788 13.331 11.4788C13.4114 11.4807 13.3232 11.3423 13.2883 11.2426C13.2534 11.143 13.3016 11.1398 13.4798 11.2797C13.4842 11.2353 13.5895 11.2706 13.6523 11.2931C13.7152 11.3156 13.5376 11.1324 13.5358 11.1271C13.477 10.9577 13.6122 11.0289 13.6857 10.9876C13.7209 10.9682 13.7489 10.888 13.7587 10.8387C13.7662 10.7995 13.8225 10.8277 13.817 10.7791C13.8163 10.7726 13.7331 10.6952 13.7309 10.6913C13.6588 10.5712 13.8436 10.779 13.8836 10.8091C14.0291 10.9187 14.1081 10.9755 14.0788 10.8847C14.0722 10.8639 13.8102 10.5606 13.8066 10.5311C13.8024 10.4933 13.8974 10.601 13.8905 10.5588C13.89 10.5553 13.8271 10.4931 13.8408 10.485C13.9031 10.4466 13.9945 10.428 14.0406 10.3693C14.0472 10.3615 13.9388 10.2716 13.9467 10.2587C13.9834 10.1984 14.0403 10.1489 14.134 10.1481C14.1573 10.1482 14.2195 10.2249 14.2426 10.243C14.3828 10.3522 14.2236 10.149 14.2238 10.1419C14.2233 9.96824 14.4535 10.066 14.4636 9.89969C14.4638 9.89406 14.4072 9.80864 14.4015 9.77354C14.3856 9.76218 14.3918 9.77384 14.4598 9.83913C14.47 9.85129 14.6494 10.0122 14.5256 9.90346C14.5175 9.89707 14.4252 9.81404 14.4322 9.82531C14.4404 9.83499 14.3682 9.79296 14.4768 9.87555C14.5099 9.90326 14.713 10.0321 14.5514 9.92911C14.5428 9.91717 14.1599 9.71348 14.4204 9.86064C14.4634 9.88464 14.7442 10.0305 14.6007 9.95484C14.5723 9.94117 14.5093 9.90946 14.4688 9.89192C14.4053 9.86737 14.4825 9.90192 14.3482 9.85891C14.3249 9.84974 14.1178 9.79144 14.2713 9.84722C14.2954 9.85542 14.3968 9.88531 14.4076 9.89034C14.4603 9.91181 14.3897 9.90476 14.4609 9.92265C14.4861 9.92781 14.6555 9.94979 14.7013 9.9528C14.747 9.95625 14.7917 9.94929 14.7138 9.94303C14.6358 9.9387 14.3637 9.92927 14.3418 9.93473C14.339 9.93552 14.3364 9.93635 14.334 9.93721C14.2567 9.97286 14.4136 9.98554 14.439 9.98469C14.4432 9.98585 14.3514 10.0186 14.352 10.0252C14.3482 10.0426 14.3135 10.1518 14.476 10.0205C14.5919 9.91279 14.6798 9.82791 14.7261 9.77595C14.7278 9.77291 14.7283 9.76894 14.7286 9.76483C14.7308 9.72153 14.4848 9.92308 14.4728 9.92516C14.3528 9.94827 14.4182 9.81547 14.3442 9.80227C14.3289 9.79958 14.247 9.89911 14.235 9.89582C14.1931 9.88537 14.206 9.81737 14.1736 9.79976C14.1589 9.79206 14.0916 9.8634 14.0867 9.84773C14.074 9.81103 14.0812 9.76006 14.1221 9.67104C14.1258 9.66293 14.2268 9.59156 14.2117 9.57008C14.187 9.53555 14.2144 9.43477 14.1142 9.46687C14.0842 9.47667 13.9255 9.63459 14.0131 9.50354C14.0314 9.47615 14.2273 9.29186 14.0377 9.43083C14.0062 9.45387 13.7421 9.63294 13.8641 9.46928C13.8962 9.42619 14.0377 9.25659 14.0011 9.26889C13.9956 9.27114 13.9171 9.36278 13.8988 9.36101C13.8355 9.35329 13.8074 9.30704 13.7444 9.29724C13.7274 9.29479 13.6539 9.39728 13.6313 9.39082C13.5692 9.37317 13.5418 9.30097 13.5303 9.23443C13.5263 9.20973 13.6091 9.14677 13.616 9.13779C13.7282 8.99194 13.5441 9.15615 13.5284 9.16072C13.4328 9.1868 13.4882 9.07854 13.4345 9.06817C13.4199 9.06509 13.3432 9.1544 13.334 9.16004C13.2434 9.21415 13.4061 9.07861 13.411 9.05063C13.4252 8.97174 13.3825 8.94236 13.3392 8.92026C13.3231 8.91227 13.2404 9.02206 13.2271 9.01377C13.1467 8.96655 13.0895 8.891 13.0804 8.77564C13.0788 8.75374 13.1603 8.68698 13.1748 8.6676C13.2764 8.53227 13.0902 8.6692 13.0691 8.67891C12.973 8.72337 13.0285 8.64777 12.9934 8.6372C12.8211 8.58671 12.7269 8.40571 12.6486 8.2737C12.5461 8.10212 12.5102 7.92523 12.3612 7.81285C12.3519 7.80561 12.2616 7.91263 12.2522 7.90766C12.136 7.83898 12.0835 7.70942 11.9624 7.64528C11.9527 7.63984 11.8701 7.7443 11.8513 7.73872C11.812 7.72792 11.7854 7.69113 11.79 7.63597C11.792 7.60924 11.8888 7.54556 11.8892 7.5203C11.8904 7.46129 11.866 7.42362 11.8213 7.4089C11.8021 7.40284 11.7255 7.51755 11.708 7.50222C11.5866 7.39976 11.4602 7.30628 11.4709 7.0693C11.4716 7.05304 11.6592 6.85187 11.6054 6.87266C11.5502 6.92536 11.4868 6.98888 11.4286 7.04599C11.2346 6.91407 11.1407 6.68539 10.9877 6.51154C10.9812 6.50423 10.8901 6.61912 10.8771 6.6055C10.8014 6.52677 10.6979 6.48032 10.7213 6.29898C10.7234 6.28113 10.9086 6.10398 10.8581 6.10828C10.8491 6.10921 10.7901 6.09859 10.7418 6.12893C10.7346 6.13364 10.6564 6.22455 10.6427 6.21581C10.5648 6.16352 10.5158 6.07596 10.5025 5.95928C10.5005 5.94028 10.6017 5.8614 10.6011 5.84709C10.5959 5.74627 10.4697 5.75707 10.5009 5.62464C10.522 5.53568 10.6902 5.39256 10.8254 5.22131C10.8445 5.19715 10.8269 5.17273 10.915 5.08249C11.1364 4.85552 11.392 4.62021 11.6268 4.37708C11.6774 4.32473 11.5939 4.35204 11.7349 4.24432C11.7444 4.23716 11.806 4.21626 11.8533 4.17909C11.8859 4.15342 11.9703 4.05645 12.0148 4.02624C12.0592 3.99606 11.991 4.0799 12.0467 4.04786C12.103 4.01526 12.2009 3.90692 12.2367 3.91831ZM13.9338 11.3931C14.0391 11.461 13.7246 11.141 13.7803 11.2371C13.7834 11.2421 13.9286 11.3898 13.9338 11.3931ZM11.7256 13.7015C11.8899 13.817 11.7009 13.5946 11.5756 13.5037C11.4504 13.413 11.6758 13.6665 11.7256 13.7015ZM11.5747 14.0567C11.7136 14.1385 11.2682 13.6841 11.3286 13.8056C11.332 13.8125 11.5666 14.0519 11.5747 14.0567ZM10.9526 5.26124C10.9566 5.25677 10.9456 5.23757 10.9411 5.24139C10.8323 5.33411 10.8543 5.37243 10.9526 5.26124ZM11.4348 14.419C11.5046 14.471 11.46 14.3751 11.3733 14.3105C11.3035 14.2585 11.3481 14.3544 11.4348 14.419ZM15.2461 10.758C15.2511 10.7624 15.2662 10.7558 15.2392 10.7293C15.1524 10.644 15.1617 10.6833 15.2461 10.758ZM11.0133 14.8509C11.0932 14.8048 11.5031 15.1382 11.3925 15.1649C11.3725 15.1698 11.3008 15.0196 11.2514 15.002C11.1615 14.9699 11.3755 15.2224 11.221 15.127C11.1927 15.1094 11.0079 14.8528 11.0129 14.8503C11.013 14.8505 11.0131 14.8507 11.0133 14.8509ZM14.3256 11.7634C14.3302 11.7672 14.3491 11.7562 14.3453 11.7517C14.2527 11.6428 14.2145 11.6649 14.3256 11.7634ZM15.9 10.0432C15.913 10.0431 15.9282 9.98426 15.9163 9.9819C15.6849 9.94885 15.655 10.0454 15.9 10.0432ZM13.5489 13.0044C13.6339 13.122 13.6263 13.1535 13.486 13.0393C13.509 13.0298 13.5263 13.0145 13.5489 13.0044Z" fill="black"/>
</svg>
