<svg width="18" height="19" viewBox="0 0 18 19" fill="none" xmlns="http://www.w3.org/2000/svg">
<path d="M14.8866 11.4222C14.8199 11.4613 14.7324 11.4195 14.6659 11.3622C14.6451 11.3444 14.6556 11.2649 14.6413 11.249C14.6131 11.2181 14.5869 11.2571 14.5591 11.2203C14.5499 11.2077 14.5614 11.0817 14.5517 11.0714C14.4988 11.0158 14.4487 11.0478 14.3951 11.0211C14.1309 10.889 13.8713 10.8417 13.6039 10.7843C13.5157 10.7655 13.4086 10.6512 13.3175 10.7012C13.3069 10.7071 13.3132 10.8177 13.3112 10.8268C13.2795 10.9663 13.29 10.7431 13.2693 10.7134C13.1871 10.5964 13.0957 10.5862 13.0166 10.6289C12.9829 10.6473 13.0167 10.8669 12.9828 10.7437C12.9804 10.7353 12.989 10.6179 12.9797 10.6054C12.9588 10.5773 12.9191 10.5982 12.9029 10.5889C12.8716 10.5704 12.8664 10.5716 12.8369 10.5703C12.7964 10.5674 12.7484 10.5091 12.705 10.5357C12.6957 10.5417 12.708 10.662 12.6932 10.6825C12.6784 10.7029 12.6393 10.6927 12.6262 10.6644C12.613 10.636 12.6186 10.5414 12.6163 10.5197C12.5971 10.3367 12.5518 10.5902 12.546 10.5964C12.4399 10.7032 12.3489 10.5589 12.2494 10.5593C12.1738 10.5599 12.0929 10.6076 12.021 10.601C11.9353 10.5928 11.8626 10.5276 11.7794 10.5388C11.7706 10.5398 11.7809 10.6813 11.7702 10.6829C11.6561 10.6993 11.5429 10.6839 11.4294 10.5884C11.418 10.5787 11.4327 10.4544 11.4213 10.4373C11.3517 10.3352 11.2415 10.09 11.2001 10.6309C11.1529 10.6097 11.0957 10.5879 11.0535 10.4789C11.0262 10.4087 11.0527 10.2734 11.0192 10.3311C11.0117 10.344 11.0215 10.4625 11.0102 10.4728C10.9626 10.5162 10.9106 10.4777 10.8635 10.5389C10.8539 10.5517 10.8565 10.6579 10.8538 10.677C10.831 10.8319 10.7931 10.5759 10.7848 10.5573C10.7218 10.4185 10.6757 10.4731 10.617 10.4697C10.6034 10.4689 10.6195 10.6115 10.6064 10.6159C10.5384 10.6363 10.4679 10.624 10.4013 10.5607C10.3865 10.5463 10.4002 10.4248 10.3931 10.4117C10.3619 10.3554 10.355 10.5849 10.325 10.5353C10.3187 10.5251 10.3223 10.4211 10.3211 10.4097C10.3031 10.2303 10.2875 10.4844 10.2828 10.4901C10.2242 10.5667 10.1868 10.3014 10.1301 10.339C10.1234 10.3438 10.1386 10.4754 10.1196 10.4807C9.99274 10.5171 9.85858 10.4809 9.73302 10.3756C9.7135 10.3594 9.72744 10.2605 9.72621 10.2484C9.70619 10.0579 9.69323 10.3131 9.68687 10.3227C9.63665 10.3919 9.58974 10.1779 9.55562 10.4818C9.34294 10.3763 9.13124 10.547 8.92032 10.2747C8.91764 10.2716 8.92245 10.1459 8.9171 10.1401C8.85267 10.0696 8.86504 10.2649 8.82242 10.5038C8.81168 10.5638 8.77902 10.2754 8.77613 10.2542C8.7656 10.1763 8.77652 9.98934 8.77299 9.97425C8.74381 9.85578 8.74857 10.4741 8.70921 10.4743C8.70797 10.4733 8.71315 10.3595 8.70984 10.3482C8.69958 10.3126 8.6894 10.3578 8.67936 10.3187C8.65637 10.228 8.64819 9.92756 8.61308 10.1024C8.60863 10.1251 8.61542 10.4759 8.58028 10.4593C8.56626 10.4524 8.50425 10.4584 8.48687 10.4357C8.46951 10.413 8.48143 10.2999 8.48019 10.2951C8.43342 10.1456 8.45116 10.0836 8.42772 9.86237C8.40429 9.64194 8.41079 10.1677 8.40124 10.2264C8.39167 10.2849 8.35737 10.1616 8.34894 10.1187C8.34052 10.0758 8.35103 10.004 8.34354 9.97974C8.29388 9.82118 8.32174 10.2407 8.30538 10.3242C8.2668 10.5218 8.23675 10.1318 8.20143 10.0936C8.19188 10.0833 8.19967 10.1721 8.19117 10.1804C8.15746 10.2121 8.13719 10.0905 8.09885 10.202C8.09258 10.2202 8.06158 10.4546 8.04152 10.2826C8.03868 10.2578 8.04675 10.1606 8.03239 10.1389C8.01093 10.1062 7.97227 10.085 7.9492 10.1174C7.93218 10.1415 7.95169 10.3016 7.93026 10.2518C7.92073 10.2296 7.93839 10.136 7.92049 10.1021C7.90269 10.0682 7.85717 10.0723 7.83985 10.0755C7.82257 10.0788 7.83203 10.2003 7.83063 10.2084C7.82218 10.2553 7.789 10.3139 7.78606 10.3137C7.63817 10.3286 7.50179 10.1238 7.35779 10.1916C7.34649 10.1967 7.35402 10.3248 7.3523 10.3269C7.31361 10.3806 7.34411 10.0401 7.31709 9.9261C7.32099 10.186 7.30504 10.1389 7.27779 10.1674C7.26466 10.1814 7.27181 10.282 7.27061 10.2923C7.25114 10.4452 7.23758 10.2477 7.23409 10.2073C7.22119 10.0588 7.20715 10.2343 7.19838 10.135C7.18961 10.0365 7.20979 9.89035 7.18366 9.89222C7.17633 9.98525 7.19573 10.2284 7.17589 10.2678C7.10103 10.4168 6.96128 10.2261 6.90108 10.2062C6.84101 10.1864 6.82161 10.2036 6.7866 10.17C6.72337 10.1092 6.74654 10.2896 6.70728 10.3721C6.6679 10.4547 6.68704 10.0109 6.68138 9.91548C6.67582 9.82011 6.66976 9.91828 6.66285 9.86585C6.65596 9.81344 6.67087 9.74857 6.65467 9.72889C6.63845 9.70923 6.59413 9.87889 6.58838 9.97865C6.57624 10.19 6.59621 10.4118 6.55331 10.3339C6.55085 10.3292 6.55885 10.2125 6.54941 10.2008C6.47437 10.1109 6.39642 10.1053 6.32148 10.0259C6.31118 10.0148 6.32039 9.88496 6.3144 9.87702C6.25193 9.79399 6.27426 10.0129 6.24003 10.2561C6.24771 9.93245 6.22878 9.73446 6.18138 9.73255C6.15288 9.73129 6.15779 9.87263 6.13935 9.97224C6.13383 10.0023 6.11366 9.90522 6.11 9.97169C6.09796 10.189 6.11695 10.4322 6.06807 10.3353C6.06593 10.3307 6.07276 10.2118 6.06535 10.2046C6.01745 10.1575 6.01172 10.3847 5.95995 10.4122C5.91937 10.4338 5.84719 10.2953 5.80099 10.2727C5.80196 9.90889 5.75831 9.9922 5.74061 10.243C5.71062 10.2328 5.67823 10.247 5.64925 10.2123C5.63928 10.2005 5.64583 10.0951 5.64457 10.0837C5.62528 9.9052 5.61224 10.1493 5.60577 10.1588C5.53562 10.2518 5.47846 10.0669 5.41151 10.2476C5.40914 10.2541 5.40529 10.5069 5.38739 10.3223C5.38623 10.3096 5.40834 10.1946 5.37685 10.1857C5.34535 10.1768 5.28597 10.0413 5.24224 10.1585C5.23166 10.1866 5.20489 10.3918 5.18341 10.2315C5.18054 10.2097 5.18368 10.1373 5.17955 10.0969C5.16619 9.96841 5.1589 10.2239 5.1432 10.0068C5.1275 9.78984 5.09485 9.62733 5.05075 9.77705C5.04935 9.7814 5.03891 9.98386 5.02504 9.98066C5.0029 9.97538 4.97147 9.9332 4.94835 9.93452C4.93728 9.93522 4.94437 10.0609 4.94245 10.0632C4.86802 10.1337 4.81506 10.0216 4.73533 9.97297C4.72071 9.9638 4.67872 10.1352 4.65042 9.9997C4.61935 9.85133 4.65128 9.23413 4.57987 9.38118C4.55106 9.43999 4.5146 10.223 4.46284 9.81733C4.36245 9.91786 4.26962 9.71023 4.16895 9.85377C4.16442 9.86013 4.15011 10.0787 4.13947 10.0757C4.12367 10.0709 4.115 9.96871 4.10371 9.96198C4.05644 9.93122 4.01318 10.0186 3.9676 10.005C3.9503 10.0001 3.95635 9.89446 3.93571 9.88856C3.91509 9.88275 3.90133 10.0218 3.87338 9.95466C3.85227 9.90346 3.83117 9.6192 3.80315 9.58607C3.80208 9.86646 3.78283 9.86068 3.74863 9.9347C3.74205 9.94906 3.74911 10.0467 3.74599 10.0585C3.73334 10.1088 3.72162 10.0279 3.7096 10.0826C3.70668 10.0958 3.70655 10.1916 3.70415 10.2077C3.68383 10.3487 3.65034 10.1333 3.64459 10.0958C3.62255 9.95341 3.61225 10.0779 3.59535 10.0219C3.57847 9.96578 3.60371 9.89567 3.58399 9.86164C3.54312 9.79125 3.49061 9.80672 3.44911 9.80232C3.43255 9.80115 3.44384 9.92897 3.44147 9.93177C3.40723 9.96419 3.3726 9.82823 3.35361 10.0828C3.32987 9.42452 3.33296 10.1467 3.28401 10.0149C3.28016 10.0042 3.27525 9.69293 3.29006 9.64723C3.30486 9.60157 3.32731 9.69888 3.34784 9.62763C3.35271 9.61092 3.38057 9.3192 3.38437 9.30152C3.41415 9.16342 3.41837 9.62863 3.41994 9.65418C3.43781 9.92993 3.47185 9.61566 3.48082 9.59394C3.52184 9.49444 3.55668 9.55986 3.59099 9.48884C3.61342 9.44294 3.61562 9.13821 3.63324 9.14753C3.6918 9.17836 3.71225 9.60347 3.76744 9.23487C3.77927 9.15626 3.76751 8.8232 3.80991 9.08509C3.81258 9.1016 3.84406 9.34119 3.86225 9.18965C3.86454 9.17054 3.86446 9.07347 3.86747 9.06532C3.88767 9.01257 3.90113 9.0899 3.92313 9.05287C3.94512 9.01583 3.97157 8.96062 3.99668 8.99354C4.01181 9.01323 4.03123 9.19408 4.03847 9.23835C4.05893 9.3659 4.08086 9.15678 4.09354 9.31123C4.10631 9.46646 4.08133 9.7022 4.11484 9.8025C4.11608 9.55031 4.11894 9.29147 4.12093 9.03785C4.19437 9.04673 4.26663 9.12828 4.34031 9.11714C4.34945 9.1155 4.34011 8.97993 4.3499 8.97468C4.39122 8.95314 4.4273 9.04979 4.47015 9.0113C4.50332 8.98099 4.53969 8.83745 4.57437 8.80128C4.59555 9.08985 4.64702 8.99189 4.6844 9.01826C4.6975 9.02737 4.69662 9.10444 4.70594 9.12959C4.74107 9.22258 4.72461 8.96757 4.73424 8.92744C4.77557 8.75617 4.7791 9.33336 4.82783 9.3191C4.83041 9.31854 4.86196 9.01087 4.86631 8.99171C4.89392 8.86677 4.87088 9.0988 4.88816 9.12153C4.91971 9.16308 4.94163 9.23655 4.97865 9.14643C4.98945 9.11974 5.01534 8.92797 5.03631 9.07631C5.03906 9.09573 5.03754 9.19742 5.03976 9.20338C5.07993 9.30266 5.08099 8.98311 5.10395 8.87489C5.12692 8.76669 5.16238 8.98728 5.1696 9.05085C5.18848 9.21532 5.15513 9.12114 5.15411 9.13728C5.14209 9.32935 5.16796 9.29628 5.18772 9.31251C5.19059 9.62583 5.21823 9.60702 5.20821 9.32807C5.20707 9.29761 5.19169 9.32682 5.18772 9.31251C5.20508 9.0051 5.23545 8.96573 5.269 9.253C5.2847 9.38764 5.26986 9.54462 5.31756 9.48719C5.33921 9.46127 5.33085 9.24553 5.34996 9.18672C5.39361 9.05252 5.45033 9.25377 5.49533 9.22206C5.51166 9.21055 5.49576 9.09245 5.50692 9.08052C5.53654 9.04847 5.56267 9.13708 5.59242 9.09169C5.59511 9.08742 5.58853 8.96381 5.59778 8.96223C5.66791 8.94788 5.72899 9.02705 5.80221 9.02925C5.8376 9.03025 5.90085 8.96207 5.93751 8.97578C6.00103 8.99881 6.07918 9.17857 6.13345 9.1349C6.16884 9.10695 6.16108 8.9833 6.17624 8.89906C6.20551 8.73576 6.25731 9.02827 6.26428 9.07356C6.2645 9.07506 6.23404 9.10421 6.25029 9.16768C6.25974 9.29992 6.26394 9.07413 6.26428 9.07356C6.26887 9.10282 6.32971 9.13089 6.34179 9.10725C6.34835 9.09433 6.34468 8.97719 6.3481 8.97267C6.42946 8.86783 6.51096 8.83806 6.59347 8.89283C6.59493 8.8952 6.59274 9.02623 6.59615 9.03016C6.64393 9.08842 6.67451 8.92813 6.71391 8.83296C6.7533 8.73783 6.78454 8.76969 6.80786 8.99464C6.83758 8.96632 6.88022 9.06577 6.90476 9.12611C6.9293 9.18645 6.93272 8.93138 6.93488 8.92634C7.00222 8.76495 7.04115 8.91095 7.11101 8.93367C7.14423 8.94491 7.21012 8.90791 7.24608 8.88002C7.2745 8.85755 7.29163 8.91732 7.31781 8.8791C7.32136 8.874 7.31778 8.76043 7.31886 8.75606C7.34809 8.62018 7.33404 8.89781 7.34007 8.9474C7.36195 9.12772 7.37547 9.22375 7.4129 9.13893C7.42153 9.1195 7.44668 8.71974 7.46242 8.69636C7.48288 8.6667 7.47516 8.80999 7.49658 8.77528C7.49841 8.77244 7.49803 8.68404 7.51126 8.68794C7.57263 8.70487 7.63955 8.75631 7.70334 8.74745C7.71205 8.74658 7.70088 8.60636 7.71347 8.6028C7.77254 8.58618 7.83728 8.59136 7.89482 8.657C7.90899 8.67359 7.90011 8.77177 7.90318 8.80092C7.92206 8.97729 7.94883 8.72102 7.95325 8.71614C8.05861 8.59299 8.13925 8.82491 8.24664 8.71449C8.25248 8.70801 8.29748 8.43328 8.31755 8.6689C8.31893 8.68457 8.33879 8.92563 8.35635 8.76082C8.35744 8.7505 8.34506 8.6264 8.36666 8.63905C8.38826 8.65167 8.42302 8.5688 8.45271 8.70515C8.46211 8.74811 8.48432 8.98857 8.51236 8.79689C8.51419 8.78351 8.55747 8.35008 8.57292 8.64912C8.57542 8.69835 8.5728 9.0148 8.60626 8.85255C8.61265 8.8211 8.60105 8.75051 8.61789 8.70643C8.6437 8.6385 8.67789 8.72326 8.70962 8.58229C8.71515 8.55733 8.7387 8.34254 8.75759 8.50557C8.76055 8.5311 8.75493 8.63675 8.7649 8.64857C8.81235 8.70529 8.86202 8.63462 8.91019 8.70772C8.92725 8.7334 8.91853 8.90419 8.93631 8.94996C8.9541 8.99572 8.98994 9.03973 9.00855 8.96168C9.02716 8.8836 9.00683 8.61139 9.03471 8.58961C9.15595 8.49501 9.27605 8.65469 9.39711 8.67805C9.41507 8.68154 9.40018 8.58414 9.42664 8.58229C9.5242 8.57504 9.69262 8.48372 9.77727 8.69069C9.8451 8.85646 9.75974 8.98266 9.81157 9.05012C9.83658 9.0823 9.86364 8.76584 9.86968 8.75587C9.92866 8.65467 9.96965 8.79485 10.0227 8.75184C10.0337 8.74292 10.0229 8.61465 10.0323 8.60847C10.0641 8.58623 10.0976 8.64348 10.1281 8.63301C10.1417 8.62802 10.1392 8.53005 10.1518 8.53761C10.1819 8.55457 10.2085 8.59575 10.2378 8.68757C10.2405 8.69594 10.2225 8.81781 10.2447 8.82234C10.2807 8.82933 10.3254 8.91991 10.3669 8.82637C10.3792 8.79823 10.3796 8.57433 10.4061 8.72896C10.4116 8.76125 10.4045 9.0301 10.4353 8.7978C10.4405 8.7592 10.4922 8.44587 10.5176 8.64784C10.5243 8.701 10.5414 8.921 10.5562 8.88643C10.5582 8.88091 10.5501 8.76064 10.5624 8.74891C10.6056 8.70966 10.6508 8.7225 10.6952 8.68483C10.707 8.67453 10.6894 8.55008 10.707 8.53871C10.7556 8.50725 10.8162 8.53894 10.8637 8.57789C10.8812 8.59249 10.8691 8.69558 10.8704 8.7068C10.8909 8.88927 10.903 8.64298 10.9098 8.62861C10.952 8.54262 10.9842 8.65832 11.0232 8.6277C11.034 8.61956 11.0263 8.50212 11.0285 8.49165C11.0507 8.38934 11.0341 8.60024 11.0482 8.62349C11.0876 8.68931 11.1314 8.67988 11.1713 8.66487C11.1859 8.65918 11.1694 8.52301 11.1826 8.51948C11.2602 8.49602 11.341 8.50905 11.4168 8.58412C11.4311 8.5985 11.4221 8.70336 11.4251 8.72731C11.4456 8.89486 11.4756 8.66632 11.4825 8.64454C11.514 8.54514 11.5262 8.63786 11.554 8.62056C11.6896 8.53439 11.8571 8.5958 11.9851 8.63374C12.1519 8.68257 12.2814 8.78232 12.4405 8.75642C12.4506 8.75491 12.4404 8.61541 12.4491 8.61232C12.5617 8.57869 12.6724 8.6332 12.7852 8.59291C12.7945 8.58985 12.7811 8.45761 12.796 8.44826C12.8264 8.42814 12.865 8.43533 12.8958 8.47755C12.9109 8.4979 12.8907 8.61137 12.9058 8.62953C12.941 8.67207 12.9788 8.68149 13.015 8.66029C13.0303 8.65098 13.0071 8.51573 13.0271 8.51417C13.1634 8.50076 13.2972 8.47746 13.435 8.6526C13.4444 8.66463 13.4527 8.9395 13.4728 8.88679C13.4743 8.81051 13.4742 8.72077 13.4748 8.63923C13.6732 8.59531 13.8696 8.6906 14.0685 8.70533C14.0769 8.70592 14.0624 8.56028 14.0787 8.56068C14.1726 8.56284 14.2639 8.52249 14.3601 8.66725C14.3696 8.68141 14.3647 8.93763 14.3928 8.89888C14.3978 8.89181 14.4401 8.85764 14.451 8.80201C14.4525 8.79362 14.4448 8.67403 14.4585 8.67055C14.5377 8.65238 14.6208 8.67969 14.7 8.75276C14.7127 8.76478 14.6991 8.89214 14.7082 8.90181C14.7728 8.96941 14.843 8.8726 14.9046 8.98823C14.9459 9.06609 14.9306 9.28624 14.9526 9.50294C14.9557 9.53351 14.9812 9.53836 14.9825 9.66444C14.9859 9.98148 14.9736 10.3286 14.9786 10.6666C14.9797 10.7394 15.0139 10.661 14.9937 10.8369C14.9923 10.8486 14.9674 10.907 14.9613 10.9667C14.9571 11.0079 14.9647 11.1362 14.9561 11.189C14.9474 11.2417 14.9378 11.1342 14.9234 11.1963C14.909 11.2591 14.9154 11.405 14.8866 11.4222ZM7.01525 9.39582C7.03797 9.51832 7.04132 9.06967 7.01675 9.17701C7.01556 9.18273 7.01408 9.38981 7.01525 9.39582ZM4.26622 9.46669C4.29592 9.66457 4.31625 9.3736 4.29529 9.22078C4.27434 9.06811 4.25717 9.4067 4.26622 9.46669ZM3.9582 9.61116C3.99292 9.76718 3.99838 9.13098 3.9612 9.25959C3.95904 9.26686 3.95617 9.6021 3.9582 9.61116ZM14.8508 9.56465C14.8511 9.5706 14.8695 9.57641 14.87 9.57051C14.8797 9.42802 14.843 9.41651 14.8508 9.56465ZM3.65254 9.76844C3.66338 9.8545 3.69458 9.75516 3.68112 9.64814C3.67028 9.56205 3.63905 9.66139 3.65254 9.76844ZM8.20048 9.87464C8.20084 9.88133 8.21401 9.88735 8.21374 9.84956C8.21285 9.72784 8.19452 9.76219 8.20048 9.87464ZM3.13305 9.77577C3.2098 9.79971 3.25634 10.3252 3.17276 10.2659C3.15762 10.2552 3.20538 10.0984 3.18611 10.051C3.15086 9.96466 3.12745 10.2946 3.09148 10.1178C3.08497 10.0854 3.12867 9.77323 3.13319 9.77503C3.13314 9.77528 3.13309 9.77552 3.13305 9.77577ZM7.02833 9.9347C7.02879 9.94063 7.04702 9.94626 7.04746 9.94038C7.05733 9.79795 7.0206 9.78653 7.02833 9.9347ZM8.96911 10.152C8.97012 10.1647 9.01244 10.1765 9.01382 10.1649C9.03589 9.93195 8.95034 9.90736 8.96911 10.152ZM5.80026 10.263C5.78036 10.4063 5.75656 10.4232 5.7407 10.2432C5.76047 10.2528 5.78038 10.2542 5.80026 10.263ZM6.54451 15.9567C6.46205 15.9295 6.41973 15.8281 6.40567 15.7329C6.40113 15.7032 6.46602 15.6557 6.46542 15.6326C6.46417 15.5877 6.41507 15.5937 6.41827 15.5448C6.41961 15.5284 6.51809 15.4487 6.51745 15.4335C6.51332 15.3506 6.4495 15.3322 6.42437 15.2692C6.30078 14.9588 6.12091 14.7121 5.94184 14.4518C5.88272 14.3661 5.8755 14.1972 5.76535 14.1578C5.75241 14.1533 5.67945 14.2366 5.67134 14.2414C5.54665 14.314 5.71313 14.1648 5.71708 14.1269C5.73233 13.9765 5.66444 13.8942 5.56928 13.8594C5.52856 13.8448 5.40102 14.0278 5.46033 13.9128C5.46428 13.905 5.55431 13.829 5.55558 13.8126C5.5583 13.7755 5.51084 13.7577 5.50409 13.7378C5.4915 13.699 5.48642 13.6956 5.46307 13.6704C5.43187 13.6351 5.43364 13.5544 5.3792 13.5375C5.36733 13.5342 5.2923 13.6294 5.26569 13.6317C5.23909 13.634 5.21419 13.5947 5.22342 13.5638C5.23266 13.5329 5.30416 13.4706 5.31757 13.4534C5.4312 13.3082 5.21483 13.4503 5.20562 13.4499C5.04295 13.4383 5.0703 13.2615 4.9882 13.1799C4.92566 13.1183 4.82554 13.0856 4.77107 13.0219C4.7065 12.9456 4.69294 12.8398 4.61662 12.7794C4.60866 12.7729 4.51706 12.8814 4.50714 12.8737C4.40183 12.7917 4.31972 12.6877 4.29401 12.5269C4.29152 12.5107 4.39142 12.4349 4.39418 12.4135C4.40916 12.2841 4.49206 12.0201 4.07561 12.3686C4.05179 12.3149 4.02017 12.2524 4.0626 12.1407C4.08987 12.0687 4.20728 11.9947 4.13898 12.0081C4.12369 12.011 4.04794 12.1028 4.03134 12.1009C3.96156 12.0924 3.94608 12.0225 3.86409 12.0271C3.84722 12.0282 3.77427 12.1055 3.75852 12.1168C3.63027 12.2076 3.78011 11.9953 3.78647 11.9754C3.83279 11.8255 3.75637 11.8263 3.71053 11.7757C3.69994 11.7639 3.6123 11.878 3.59848 11.8702C3.52816 11.8288 3.47896 11.7623 3.46902 11.6628C3.46705 11.6405 3.56416 11.5657 3.56762 11.5507C3.58181 11.4852 3.41384 11.6418 3.42432 11.5821C3.42632 11.5698 3.50279 11.4991 3.50993 11.4901C3.62194 11.3485 3.4294 11.5153 3.42163 11.5155C3.31927 11.5215 3.47608 11.3032 3.40301 11.2832C3.39408 11.281 3.31355 11.3867 3.29414 11.3748C3.18888 11.3112 3.11334 11.21 3.0732 11.0794C3.05469 11.0396 3.04053 10.9985 3.03064 10.9563C3.0226 10.9219 3.1128 10.8753 3.12063 10.8657C3.24851 10.722 3.03995 10.8693 3.02521 10.8661C2.91853 10.8412 3.06268 10.6701 2.77312 10.7765C2.70271 10.491 2.53967 10.2252 2.63919 9.93729C2.66394 9.86939 2.70502 9.80439 2.7666 9.74881C2.77024 9.74532 2.89396 9.76838 2.90063 9.76181C2.98354 9.6854 2.78742 9.67561 2.57008 9.55103C2.51635 9.5164 2.80938 9.53717 2.8304 9.5414C2.90947 9.54836 3.08478 9.61521 3.10062 9.61476C3.22368 9.61717 2.6308 9.43879 2.65414 9.37166C2.65579 9.37015 2.75996 9.41677 2.77241 9.41559C2.81125 9.41267 2.77466 9.38163 2.81696 9.38129C2.91543 9.37983 3.19271 9.49468 3.05331 9.38031C3.03581 9.36475 2.71374 9.22328 2.75642 9.17622C2.77269 9.158 2.82058 9.06357 2.85635 9.05202C2.89126 9.04024 2.97445 9.11944 2.9798 9.1202C3.14265 9.14626 3.17867 9.20403 3.37339 9.3122C3.56373 9.42581 3.14191 9.1121 3.10451 9.06457C3.06752 9.01654 3.19526 9.05583 3.23423 9.07679C3.27377 9.09678 3.31874 9.15438 3.34305 9.16351C3.49923 9.22739 3.16964 8.96638 3.1257 8.89126C3.1078 8.85929 3.10352 8.84 3.10846 8.83034C3.12198 8.79502 3.33345 8.96461 3.37954 8.96297C3.39469 8.96241 3.32549 8.90603 3.32661 8.89316C3.33187 8.84305 3.43454 8.91243 3.38716 8.80205C3.37946 8.78404 3.23916 8.59281 3.37729 8.69798C3.39717 8.71319 3.45924 8.78853 3.48643 8.79212C3.52716 8.79759 3.57393 8.78084 3.56992 8.73893C3.56691 8.70795 3.43767 8.61077 3.49044 8.62833C3.51397 8.63621 3.5657 8.71694 3.60438 8.72622C3.64297 8.73557 3.67746 8.69526 3.6894 8.67875C3.70126 8.66221 3.60761 8.58411 3.60298 8.57717C3.57678 8.53709 3.56263 8.46842 3.56514 8.46611C3.67615 8.33414 3.93294 8.36685 4.00332 8.20065C4.00897 8.18773 3.91223 8.10336 3.91216 8.10045C3.906 8.03073 4.12171 8.29656 4.2245 8.35495C4.03753 8.17439 4.0839 8.19456 4.08614 8.15202C4.08706 8.13137 4.01003 8.06609 4.00373 8.05782C3.91165 7.93374 4.06239 8.0622 4.09381 8.08789C4.20946 8.18234 4.09687 8.04669 4.17429 8.1097C4.25119 8.17218 4.33792 8.29208 4.35807 8.26929C4.2983 8.19748 4.11046 8.04152 4.0989 7.99735C4.05501 7.83047 4.30469 7.85054 4.36815 7.8151C4.4315 7.77975 4.43531 7.75167 4.48784 7.74669C4.58277 7.73773 4.43619 7.62922 4.41006 7.53859C4.38404 7.44786 4.68213 7.77741 4.75424 7.84022C4.82624 7.90309 4.76181 7.82869 4.80456 7.86008C4.84728 7.89149 4.8809 7.94961 4.90812 7.95021C4.93534 7.9508 4.85179 7.79442 4.78597 7.71916C4.64651 7.55973 4.47325 7.41929 4.5636 7.43917C4.5689 7.44041 4.64484 7.5295 4.66094 7.53008C4.78611 7.53197 4.85408 7.47187 4.97183 7.46649C4.98815 7.46588 5.07238 7.56525 5.08291 7.56593C5.19294 7.57334 5.01982 7.4369 4.876 7.23683C5.0985 7.47196 5.25405 7.59641 5.29435 7.55881C5.31865 7.5363 5.21468 7.44039 5.15938 7.35481C5.14269 7.32903 5.22788 7.38109 5.18388 7.33109C5.04015 7.16756 4.85256 7.01117 4.96119 7.0395C4.96621 7.041 5.0447 7.1307 5.05588 7.12971C5.12856 7.1237 4.97257 6.95829 4.99564 6.8963C5.0137 6.84769 5.17099 6.8864 5.22488 6.86437C5.48135 7.12244 5.45829 7.02767 5.29546 6.83575C5.32735 6.81838 5.34394 6.78174 5.39226 6.78245C5.40882 6.78261 5.47792 6.86248 5.487 6.8695C5.62909 6.9799 5.46723 6.79662 5.46579 6.78454C5.45765 6.66114 5.6354 6.74498 5.56258 6.56216C5.55992 6.5556 5.38438 6.37374 5.52957 6.48952C5.53951 6.49756 5.60265 6.59703 5.63481 6.57745C5.66699 6.55787 5.81157 6.60489 5.76469 6.48616C5.75345 6.45753 5.63036 6.29047 5.76136 6.38616C5.7791 6.3992 5.82778 6.45303 5.85969 6.47816C5.96154 6.55806 5.78691 6.37145 5.95325 6.512C6.11959 6.65255 6.26133 6.74064 6.19169 6.59854C6.18977 6.59431 6.05518 6.44257 6.06884 6.43344C6.09076 6.41899 6.14641 6.423 6.16446 6.40307C6.17306 6.39348 6.07834 6.31041 6.0783 6.3072C6.08962 6.19625 6.21238 6.23199 6.31227 6.20088C6.33076 6.19536 6.24404 6.03963 6.36312 6.11223C6.49356 6.19162 6.90376 6.65427 6.85845 6.49164C6.84052 6.42639 6.31679 5.84274 6.64618 6.08709C6.65756 5.93354 6.88064 6.00409 6.86184 5.81989C6.86106 5.81168 6.71829 5.64539 6.72914 5.63875C6.74554 5.62919 6.82489 5.69429 6.83892 5.68978C6.89951 5.6727 6.87325 5.57537 6.9203 5.54754C6.93801 5.53682 7.00772 5.61647 7.02885 5.60369C7.0499 5.59085 6.96286 5.48121 7.03331 5.50574C7.08686 5.5246 7.3052 5.70826 7.35164 5.70868C7.15425 5.50953 7.17415 5.49781 7.14991 5.41737C7.14516 5.40181 7.07036 5.3386 7.06455 5.32768C7.03938 5.28172 7.1062 5.32928 7.07735 5.2807C7.07046 5.269 7.00286 5.20117 6.9934 5.18779C6.91038 5.07138 7.09019 5.19617 7.12144 5.21797C7.24025 5.30057 7.16065 5.20405 7.2142 5.22982C7.26772 5.25561 7.29656 5.32591 7.33682 5.33378C7.42017 5.34998 7.45237 5.29591 7.48958 5.26492C7.504 5.25214 7.40434 5.17104 7.40431 5.16711C7.40952 5.11606 7.53411 5.18375 7.36967 4.98812C7.85467 5.43411 7.34148 4.926 7.47488 4.97898C7.48559 4.98335 7.70975 5.19945 7.7299 5.24393C7.75003 5.28837 7.66278 5.238 7.69628 5.30525C7.70411 5.32107 7.8875 5.55024 7.89687 5.56585C7.97007 5.68797 7.63764 5.36248 7.61828 5.34571C7.40862 5.1654 7.60288 5.41559 7.61087 5.43831C7.64753 5.54237 7.57265 5.52473 7.59468 5.60314C7.60871 5.65403 7.82239 5.87131 7.80132 5.87919C7.7314 5.9055 7.41402 5.6217 7.62931 5.92767C7.67518 5.99298 7.92035 6.21883 7.70033 6.06848C7.68646 6.05899 7.49119 5.91544 7.5834 6.03754C7.59504 6.05293 7.66373 6.12151 7.66702 6.12975C7.68773 6.18363 7.62199 6.14001 7.63011 6.18427C7.63823 6.22853 7.65555 6.28929 7.61164 6.28664C7.58528 6.28515 7.44145 6.17323 7.40419 6.14787C7.2972 6.07448 7.42705 6.24038 7.30743 6.14157C7.18717 6.04231 7.041 5.85509 6.94255 5.8117C7.11985 5.99104 7.30054 6.17641 7.47823 6.35738C7.41162 6.41144 7.2946 6.41313 7.24194 6.48154C7.23559 6.4902 7.33914 6.57839 7.3348 6.59015C7.31609 6.63932 7.2181 6.60063 7.21012 6.66304C7.2043 6.71172 7.27593 6.8431 7.27301 6.89717C7.05156 6.71052 7.07855 6.82207 7.02919 6.83413C7.01199 6.83844 6.95821 6.78323 6.93278 6.7731C6.83816 6.73621 7.03201 6.903 7.05247 6.93929C7.13963 7.09435 6.72858 6.68911 6.69864 6.73923C6.69692 6.74174 6.88855 6.98522 6.89853 7.00234C6.96419 7.11336 6.81905 6.93037 6.78878 6.92849C6.73349 6.92503 6.66352 6.89109 6.69683 6.98523C6.70684 7.01297 6.82117 7.16984 6.69906 7.08217C6.68306 7.07071 6.6124 6.99754 6.60637 6.99516C6.50316 6.95796 6.72825 7.18478 6.78591 7.28017C6.84355 7.37554 6.65844 7.2487 6.60756 7.20967C6.47575 7.10889 6.56974 7.14809 6.55917 7.13583C6.43322 6.99015 6.43536 7.03478 6.40765 7.03954C6.18375 6.82035 6.17434 6.85635 6.37981 7.04537C6.40229 7.06598 6.39426 7.03268 6.40765 7.03954C6.61076 7.27116 6.61365 7.32396 6.38296 7.14839C6.27485 7.06609 6.17605 6.94289 6.17746 7.02269C6.17801 7.0588 6.33743 7.20448 6.36332 7.26177C6.42235 7.39252 6.23345 7.29681 6.21891 7.3562C6.21363 7.37776 6.3102 7.44819 6.30947 7.46581C6.3078 7.5128 6.22368 7.47161 6.23134 7.52815C6.23214 7.53337 6.32496 7.61537 6.31847 7.62409C6.271 7.69186 6.16485 7.68604 6.10314 7.74464C6.07336 7.773 6.06961 7.87318 6.0298 7.89359C5.96133 7.9295 5.77003 7.86659 5.75632 7.94205C5.74701 7.99089 5.84082 8.07194 5.88793 8.14397C5.97936 8.28348 5.72997 8.1192 5.69221 8.0929C5.69098 8.09202 5.69539 8.04639 5.63716 8.01486C5.53588 7.92911 5.69209 8.09222 5.69221 8.0929C5.66776 8.07598 5.59793 8.10611 5.60472 8.13275C5.60846 8.14728 5.69431 8.22709 5.6947 8.2331C5.70199 8.37406 5.65609 8.46207 5.54958 8.49112C5.54671 8.49064 5.45585 8.39619 5.45027 8.39622C5.36983 8.39427 5.45805 8.53274 5.49298 8.6324C5.52788 8.73203 5.47969 8.73516 5.30147 8.59525C5.29708 8.6397 5.19173 8.60441 5.1289 8.5819C5.06608 8.55939 5.24362 8.74256 5.24542 8.7479C5.30422 8.91734 5.169 8.84609 5.09554 8.88741C5.06031 8.90675 5.03234 8.98704 5.02252 9.0363C5.01506 9.07554 4.95873 9.04734 4.96424 9.09588C4.96494 9.1024 5.04819 9.17977 5.05039 9.18375C5.12246 9.30384 4.93768 9.09598 4.89766 9.06587C4.75218 8.95634 4.67317 8.89954 4.7024 8.99027C4.70905 9.0111 4.97106 9.31443 4.97466 9.34389C4.97883 9.38167 4.88385 9.27401 4.8908 9.31615C4.8913 9.31966 4.95412 9.38186 4.9405 9.38997C4.87811 9.42842 4.78676 9.44702 4.74063 9.50568C4.73409 9.51345 4.84241 9.60342 4.83459 9.61629C4.79782 9.67656 4.74096 9.72608 4.64728 9.72695C4.62391 9.72685 4.56178 9.65013 4.53865 9.63205C4.39842 9.52284 4.55764 9.72604 4.55746 9.73312C4.55799 9.90676 4.32775 9.80901 4.31761 9.97531C4.31748 9.98094 4.37401 10.0664 4.37978 10.1015C4.3957 10.1128 4.38949 10.1012 4.32141 10.0359C4.31129 10.0237 4.13185 9.86277 4.25567 9.97154C4.26376 9.97793 4.35606 10.061 4.34905 10.0497C4.34084 10.04 4.41305 10.082 4.3044 9.99945C4.2713 9.97174 4.0682 9.84291 4.22989 9.94589C4.23842 9.95783 4.62132 10.1615 4.36087 10.0144C4.31787 9.99036 4.03703 9.84448 4.18058 9.92016C4.20891 9.93383 4.27199 9.96554 4.31246 9.98308C4.37591 10.0076 4.29872 9.97308 4.43304 10.0161C4.45631 10.0253 4.66342 10.0836 4.51 10.0278C4.48581 10.0196 4.38447 9.98969 4.37364 9.98466C4.32098 9.96319 4.39155 9.97024 4.32033 9.95235C4.29511 9.94719 4.12571 9.92521 4.07998 9.9222C4.03426 9.91875 3.98958 9.92571 4.0675 9.93197C4.14547 9.9363 4.41756 9.94573 4.43944 9.94027C4.44228 9.93948 4.44488 9.93865 4.44727 9.93779C4.52454 9.90214 4.36765 9.88946 4.34227 9.89031C4.33807 9.88915 4.42989 9.85638 4.42923 9.84983C4.43301 9.83238 4.46775 9.7232 4.30524 9.85449C4.18935 9.96221 4.10142 10.0471 4.05512 10.0991C4.05347 10.1021 4.05292 10.1061 4.05268 10.1102C4.05048 10.1535 4.29648 9.95192 4.30848 9.94984C4.4285 9.92673 4.36304 10.0595 4.43707 10.0727C4.45238 10.0754 4.53425 9.97589 4.54628 9.97918C4.58819 9.98963 4.57522 10.0576 4.60764 10.0752C4.6224 10.0829 4.6896 10.0116 4.69458 10.0273C4.7073 10.064 4.70003 10.1149 4.65919 10.204C4.65547 10.2121 4.55449 10.2834 4.56957 10.3049C4.59422 10.3395 4.56689 10.4402 4.66708 10.4081C4.69708 10.3983 4.85579 10.2404 4.76817 10.3715C4.74988 10.3988 4.55397 10.5831 4.74352 10.4442C4.77507 10.4211 5.03911 10.2421 4.91715 10.4057C4.88506 10.4488 4.74353 10.6184 4.78013 10.6061C4.78567 10.6039 4.86412 10.5122 4.88247 10.514C4.9457 10.5217 4.9738 10.568 5.03688 10.5778C5.05389 10.5802 5.1274 10.4777 5.14994 10.4842C5.21207 10.5018 5.23946 10.574 5.25092 10.6406C5.25497 10.6653 5.17214 10.7282 5.16525 10.7372C5.05305 10.8831 5.23716 10.7189 5.2529 10.7143C5.34844 10.6882 5.29307 10.7965 5.34673 10.8068C5.36132 10.8099 5.4381 10.7206 5.44726 10.715C5.53785 10.6608 5.37513 10.7964 5.37024 10.8244C5.35603 10.9033 5.39876 10.9326 5.44208 10.9547C5.45811 10.9627 5.5409 10.8529 5.55418 10.8612C5.63458 10.9084 5.6917 10.984 5.7009 11.0994C5.70246 11.1213 5.62093 11.188 5.60644 11.2074C5.50481 11.3427 5.6911 11.2058 5.71218 11.1961C5.80829 11.1516 5.75276 11.2272 5.78781 11.2378C5.96016 11.2883 6.05431 11.4693 6.13266 11.6013C6.23519 11.7729 6.271 11.9498 6.42002 12.0622C6.4294 12.0694 6.51966 11.9624 6.52901 11.9673C6.64523 12.036 6.69771 12.1656 6.81883 12.2297C6.8286 12.2352 6.91115 12.1307 6.92996 12.1363C6.96921 12.1471 6.99583 12.1839 6.99128 12.239C6.98923 12.2658 6.89244 12.3294 6.89202 12.3547C6.89087 12.4137 6.91521 12.4514 6.95992 12.4661C6.97914 12.4722 7.0557 12.3575 7.07324 12.3728C7.19468 12.4752 7.3211 12.5687 7.31039 12.8057C7.30964 12.822 7.12208 13.0231 7.17584 13.0023C7.23102 12.9496 7.29441 12.8861 7.35261 12.829C7.54664 12.9609 7.64057 13.1896 7.79358 13.3635C7.80005 13.3708 7.89113 13.2559 7.90419 13.2695C7.97987 13.3482 8.08338 13.3947 8.06 13.576C8.05782 13.5939 7.87263 13.771 7.92312 13.7667C7.93219 13.7658 7.99114 13.7764 8.03946 13.7461C8.04661 13.7414 8.12483 13.6504 8.1385 13.6592C8.21648 13.7115 8.26542 13.799 8.27877 13.9157C8.28076 13.9347 8.17953 14.0136 8.18017 14.0279C8.18538 14.1287 8.3115 14.1179 8.2804 14.2504C8.25925 14.3393 8.09103 14.4824 7.95582 14.6537C7.93675 14.6779 7.95432 14.7023 7.86625 14.7925C7.64486 15.0195 7.38921 15.2548 7.15443 15.4979C7.10384 15.5503 7.1874 15.523 7.04637 15.6307C7.03688 15.6378 6.97521 15.6587 6.928 15.6959C6.89533 15.7216 6.81096 15.8186 6.76649 15.8488C6.72205 15.8789 6.79021 15.7951 6.73451 15.8271C6.67827 15.8597 6.58033 15.9681 6.54451 15.9567ZM4.84742 8.48195C4.74214 8.41399 5.05662 8.73399 5.00091 8.6379C4.99784 8.63288 4.85263 8.48523 4.84742 8.48195ZM7.05565 6.17351C6.89132 6.05798 7.08037 6.28043 7.20565 6.37128C7.33081 6.46201 7.1055 6.20849 7.05565 6.17351ZM7.20653 5.81831C7.06769 5.73651 7.51305 6.19085 7.45266 6.06937C7.4493 6.06245 7.2146 5.82305 7.20653 5.81831ZM7.82862 14.6138C7.82467 14.6182 7.83565 14.6374 7.84019 14.6336C7.94898 14.5409 7.92694 14.5026 7.82862 14.6138ZM7.34641 5.456C7.27665 5.40405 7.32126 5.49993 7.408 5.56454C7.47778 5.61651 7.43319 5.52061 7.34641 5.456ZM3.53518 9.11704C3.53015 9.1126 3.51508 9.11917 3.54202 9.14567C3.62882 9.231 3.61959 9.19165 3.53518 9.11704ZM7.76799 5.02405C7.68801 5.07017 7.27818 4.7368 7.38877 4.71007C7.40879 4.70522 7.48047 4.85537 7.5298 4.87304C7.6198 4.90512 7.4057 4.65257 7.56028 4.74805C7.58852 4.76558 7.77338 5.02225 7.7684 5.02468C7.76826 5.02447 7.76813 5.02426 7.76799 5.02405ZM4.45563 8.11165C4.45106 8.10783 4.4321 8.11883 4.4359 8.12335C4.52851 8.23217 4.56675 8.21007 4.45563 8.11165ZM2.88122 9.83179C2.86821 9.83194 2.85305 9.89074 2.86494 9.8931C3.09633 9.92615 3.1262 9.82956 2.88122 9.83179ZM5.23234 6.87064C5.14737 6.75297 5.15499 6.72149 5.29525 6.83569C5.27226 6.84518 5.25491 6.86054 5.23234 6.87064Z" fill="black"/>
</svg>
